<?xml version="1.0" encoding="utf-8"?>
<!-- Generator: Adobe Illustrator 16.0.0, SVG Export Plug-In . SVG Version: 6.00 Build 0)  -->
<!DOCTYPE svg PUBLIC "-//W3C//DTD SVG 1.1//EN" "http://www.w3.org/Graphics/SVG/1.1/DTD/svg11.dtd">
<svg version="1.1" id="圖層_1" xmlns="http://www.w3.org/2000/svg" xmlns:xlink="http://www.w3.org/1999/xlink" x="0px" y="0px"
	 width="283.465px" height="283.465px" viewBox="992.128 2409.448 283.465 283.465"
	 enable-background="new 992.128 2409.448 283.465 283.465" xml:space="preserve">
<g>
	<g>
		<g>
			<g>
				<path fill="#797B7C" d="M1233.173,2562.792c17.401,5.109,14.419,17.739,14.367,26.206h-43.411
					c-1.562-5.124-5.417-9.91-14.626-12.601l-2.913-0.871c-12.185-3.544-18.707-5.458-20.414-9.299
					c-0.415-1.384-0.289-2.92,3.773-4.396c13.057-3.799,19.673-5.788,21.234-10.677h0.823c-0.223-0.197-0.438-0.39-0.642-0.624
					c-6.452-6.221-11.379-18.361-11.379-28.164c0-13.862,10.611-22.971,20.651-22.971c10.036,0,20.136,9.84,20.136,23.72
					c0,9.803-5.483,21.561-12.218,27.574C1209.943,2556.347,1217.511,2558.199,1233.173,2562.792z"/>
			</g>
			<g>
				<g>
					<path fill="#797B7C" d="M1203.197,2620.847h-134.858c-0.082-1.351-0.167-2.701-0.33-4.293
						c-0.416-5.328-0.831-10.812,0.66-15.825c1.822-5.881,6.545-11.049,17.476-14.232l4.226-1.351
						c19.216-5.487,29.49-8.585,32.885-15.824l1.08-1.821l-0.082-2.309c-0.248-0.159-0.412-0.314-0.745-0.716
						c-1.162-1.19-2.319-2.386-3.399-3.811c-7.454-9.468-12.756-24.093-12.756-36.173c0-15.431,11.435-31.809,28.495-31.809
						c13.339,0,27.672,13.201,27.672,32.918c0,12.567-6.545,28.141-15.491,37.287c-0.582,0.642-1.242,1.191-1.821,1.751
						l-1.076,0.957l0.331,1.437c2.318,9.057,12.756,12.159,33.711,18.121l4.309,1.351c10.853,3.184,15.987,8.434,18.225,14.232
						h0.082c2.074,5.644,1.821,11.773,1.572,17.494C1203.279,2619.096,1203.279,2620.049,1203.197,2620.847z"/>
				</g>
			</g>
			<g>
				<path fill="#797B7C" d="M1038.003,2562.792c-17.417,5.109-14.411,17.739-14.367,26.206h43.396
					c1.573-5.124,5.414-9.91,14.641-12.601l2.901-0.871c12.196-3.544,18.722-5.458,20.418-9.299
					c-0.464-1.524,0.378-3.811-3.781-4.396c-13.049-3.799-19.665-5.788-21.223-10.677h-0.816c0.219-0.197,0.441-0.39,0.638-0.624
					c6.453-6.221,11.383-18.361,11.383-28.164c0-13.862-10.608-22.971-20.651-22.971c-10.048,0-20.136,9.84-20.136,23.72
					c0,9.803,5.462,21.561,12.196,27.574C1061.222,2556.347,1053.642,2558.199,1038.003,2562.792z"/>
			</g>
		</g>
	</g>
</g>
</svg>
