<?xml version="1.0" encoding="utf-8"?>
<!-- Generator: Adobe Illustrator 16.0.0, SVG Export Plug-In . SVG Version: 6.00 Build 0)  -->
<!DOCTYPE svg PUBLIC "-//W3C//DTD SVG 1.1//EN" "http://www.w3.org/Graphics/SVG/1.1/DTD/svg11.dtd">
<svg version="1.1" id="圖層_1" xmlns="http://www.w3.org/2000/svg" xmlns:xlink="http://www.w3.org/1999/xlink" x="0px" y="0px"
	 width="56.693px" height="56.693px" viewBox="0 0 56.693 56.693" enable-background="new 0 0 56.693 56.693" xml:space="preserve">
<g>
	<path fill="#272829" d="M38.48,43.581c0,1.244,0,5.864,0,5.864H7.546v-7.823c0-2.042,2.489-2.934,3.823-3.466
		c4.354-1.776,5.778-3.2,5.778-6.4c0-1.956-1.333-1.334-1.956-4.889c-0.268-1.424-1.423,0-1.69-3.29
		c0-1.334,0.712-1.688,0.712-1.688s-0.354-1.955-0.444-3.468c-0.179-1.955,0.978-6.756,7.021-6.756c6.134,0,7.289,4.801,7.113,6.756
		c-0.09,1.513-0.445,3.468-0.445,3.468s0.621,0.354,0.621,1.688c-0.176,3.29-1.422,1.866-1.6,3.29
		c-0.622,3.555-1.956,2.933-1.956,4.889c0,3.2,1.423,4.624,5.778,6.4C34.746,39.934,38.48,41.714,38.48,43.581z M42.037,49.445v-6.4
		c0-3.11-0.976-3.819-8.179-7.288c1.333-0.979,1.867-1.957,1.867-3.646c0-1.421-1.065-0.979-1.511-3.643
		c-0.178-1.069-1.067,0-1.243-2.489c0-0.979,0.528-1.245,0.528-1.245s-0.265-1.422-0.354-2.581c-0.09-1.421,0.711-5.066,5.333-5.066
		c4.532,0,5.423,3.646,5.334,5.066c-0.09,1.158-0.358,2.581-0.358,2.581s0.447,0.266,0.447,1.245
		c-0.179,2.489-1.068,1.42-1.244,2.489c-0.446,2.663-1.424,2.222-1.424,3.643c0,2.401,1.067,3.556,4.357,4.891
		c3.288,1.334,5.066,2.224,5.866,3.469c0.443,0.799,0.532,8.976,0.532,8.976L42.037,49.445L42.037,49.445z"/>
</g>
</svg>
