<?xml version="1.0" encoding="utf-8"?>
<!-- Generator: Adobe Illustrator 16.0.0, SVG Export Plug-In . SVG Version: 6.00 Build 0)  -->
<!DOCTYPE svg PUBLIC "-//W3C//DTD SVG 1.1//EN" "http://www.w3.org/Graphics/SVG/1.1/DTD/svg11.dtd">
<svg version="1.1" id="圖層_1" xmlns="http://www.w3.org/2000/svg" xmlns:xlink="http://www.w3.org/1999/xlink" x="0px" y="0px"
	 width="34px" height="34px" viewBox="0 0 34 34" enable-background="new 0 0 34 34" xml:space="preserve">
<g>
	<g>
		<path fill="#FFFFFF" d="M23.939,27.712l1.55-1.209c0.146-0.114,0.229-0.3,0.218-0.489c-0.014-0.19-0.117-0.363-0.279-0.457
			l-7.162-4.19c-0.19-0.112-0.431-0.099-0.606,0.038c-0.176,0.136-0.258,0.365-0.208,0.586l1.884,8.236
			c0.043,0.188,0.174,0.338,0.349,0.404c0.176,0.066,0.371,0.037,0.521-0.076l1.528-1.154l2.226,3.218
			c0.088,0.123,0.219,0.205,0.365,0.229c0.028,0.004,0.057,0.006,0.084,0.006c0.118,0,0.233-0.039,0.329-0.111l1.322-1.008
			c0.242-0.187,0.295-0.537,0.117-0.789L23.939,27.712z M30.448,2.851H3.552C2.696,2.851,2,3.565,2,4.444v19.777
			c0,0.877,0.696,1.592,1.552,1.592h11.304c0.41,0,0.742-0.342,0.742-0.762c0-0.421-0.332-0.762-0.742-0.762H3.552
			c-0.035,0-0.067-0.033-0.067-0.068V4.444c0-0.037,0.032-0.069,0.067-0.069h26.896c0.034,0,0.067,0.033,0.067,0.069v19.777
			c0,0.035-0.033,0.068-0.067,0.068h-2.117c-0.409,0-0.742,0.341-0.742,0.762c0,0.42,0.333,0.762,0.742,0.762h2.117
			c0.854,0,1.552-0.715,1.552-1.592V4.444C32,3.565,31.305,2.851,30.448,2.851z M18.689,14.513
			c-0.357,0.486-0.537,1.206-0.535,2.137c0.002,0.586,0.102,1.089,0.295,1.499c0.197,0.414,0.479,0.728,0.83,0.929
			c0.346,0.196,0.74,0.298,1.174,0.298h0.01c0.707-0.001,1.273-0.239,1.686-0.708c0.406-0.464,0.61-1.165,0.608-2.085
			c0-0.452-0.048-0.857-0.144-1.204c-0.1-0.355-0.25-0.657-0.453-0.897c-0.207-0.243-0.457-0.428-0.744-0.547
			c-0.283-0.119-0.611-0.179-0.988-0.179C19.643,13.756,19.059,14.012,18.689,14.513z M19.859,15.616
			c0.045-0.212,0.117-0.37,0.213-0.471c0.086-0.089,0.211-0.131,0.381-0.131h0.008c0.236,0,0.391,0.092,0.482,0.292
			c0.113,0.245,0.172,0.651,0.172,1.209c0.001,0.587-0.055,1.021-0.162,1.286c-0.092,0.219-0.242,0.315-0.49,0.315
			s-0.4-0.095-0.498-0.31c-0.115-0.254-0.174-0.679-0.174-1.264C19.789,16.163,19.813,15.849,19.859,15.616z M14.115,19.795h0.002
			c0.199,0,0.487-0.091,0.73-0.521l5.56-9.233c0.208-0.341,0.292-0.546,0.292-0.71c0-0.214-0.075-0.4-0.217-0.537
			c-0.139-0.131-0.318-0.201-0.525-0.201c-0.275,0.001-0.441,0.122-0.539,0.231c-0.086,0.102-0.18,0.24-0.283,0.421l-5.59,9.303
			c-0.121,0.186-0.184,0.359-0.184,0.52c0,0.223,0.094,0.412,0.271,0.551C13.785,19.734,13.949,19.795,14.115,19.795z M13.6,14.422
			c0.705-0.003,1.271-0.242,1.684-0.71c0.404-0.463,0.609-1.165,0.607-2.083c0-0.025,0-0.047-0.004-0.096
			c-0.008-0.438-0.053-0.8-0.139-1.108c-0.097-0.352-0.248-0.654-0.447-0.9c-0.201-0.25-0.453-0.439-0.748-0.563
			c-0.285-0.117-0.618-0.176-0.99-0.176c-0.517,0-0.953,0.115-1.293,0.343c-0.344,0.229-0.597,0.568-0.75,1.009
			c-0.03,0.09-0.055,0.186-0.08,0.284c-0.091,0.373-0.136,0.802-0.135,1.274c0.001,0.581,0.098,1.083,0.289,1.494
			c0.195,0.419,0.474,0.734,0.831,0.936C12.77,14.322,13.165,14.421,13.6,14.422L13.6,14.422z M13.22,13.026
			c-0.098-0.102-0.167-0.262-0.206-0.478c-0.045-0.242-0.068-0.565-0.068-0.958c0-0.285,0.015-0.542,0.049-0.786L13,10.734
			c0.004-0.028,0.006-0.056,0.01-0.079c0.039-0.212,0.109-0.372,0.209-0.474c0.088-0.093,0.209-0.138,0.37-0.138h0.005
			c0.242,0,0.393,0.091,0.485,0.295c0.087,0.185,0.14,0.48,0.161,0.878c0.005,0.11,0.01,0.221,0.01,0.344
			c0,0.593-0.053,1.027-0.16,1.29c-0.088,0.214-0.24,0.311-0.503,0.311C13.428,13.161,13.308,13.117,13.22,13.026z"/>
	</g>
</g>
<rect fill="none" width="34" height="34"/>
</svg>
