<?xml version="1.0" encoding="utf-8"?>
<!-- Generator: Adobe Illustrator 16.0.0, SVG Export Plug-In . SVG Version: 6.00 Build 0)  -->
<!DOCTYPE svg PUBLIC "-//W3C//DTD SVG 1.1//EN" "http://www.w3.org/Graphics/SVG/1.1/DTD/svg11.dtd">
<svg version="1.1" id="圖層_1" xmlns="http://www.w3.org/2000/svg" xmlns:xlink="http://www.w3.org/1999/xlink" x="0px" y="0px"
	 width="62px" height="58px" viewBox="0 1 62 58" enable-background="new 0 1 62 58" xml:space="preserve">
<rect y="1" fill="none" width="62" height="58"/>
<g>
	<g>
		<path fill="#FFFFFF" d="M44.553,28.571H17.447C16.648,28.571,16,29.211,16,30s0.648,1.43,1.447,1.43h27.105
			c0.8,0,1.448-0.641,1.448-1.43S45.352,28.571,44.553,28.571z M17.447,22.855h27.105c0.8,0,1.447-0.641,1.447-1.429
			c0-0.789-0.647-1.429-1.447-1.429H17.447c-0.799,0-1.447,0.64-1.447,1.429C16,22.215,16.648,22.855,17.447,22.855z M44.553,37.145
			H17.447c-0.799,0-1.447,0.642-1.447,1.43c0,0.787,0.648,1.429,1.447,1.429h27.105c0.8,0,1.447-0.642,1.447-1.429
			C45.999,37.786,45.352,37.145,44.553,37.145z"/>
	</g>
</g>
</svg>
