<?xml version="1.0" encoding="utf-8"?>
<!-- Generator: Adobe Illustrator 16.0.0, SVG Export Plug-In . SVG Version: 6.00 Build 0)  -->
<!DOCTYPE svg PUBLIC "-//W3C//DTD SVG 1.1//EN" "http://www.w3.org/Graphics/SVG/1.1/DTD/svg11.dtd">
<svg version="1.1" id="圖層_1" xmlns="http://www.w3.org/2000/svg" xmlns:xlink="http://www.w3.org/1999/xlink" x="0px" y="0px"
	 width="34px" height="34px" viewBox="0 0 34 34" enable-background="new 0 0 34 34" xml:space="preserve">
<g>
	<g>
		<path fill="#FFFFFF" d="M29.896,8.638c-0.703-1.488-1.787-3.096-3.006-4.253C21.408-0.822,12.549-0.78,7.066,4.427
			C1.422,9.788,1.905,18.363,6.974,23.811l9.124,9.366c0.46,0.443,1.193,0.427,1.628-0.036l7.412-7.748
			c2.396-2.24,4.648-4.967,5.441-8.158C31.275,14.434,31.143,11.283,29.896,8.638z M16.972,25.467
			c-6.827,0-12.362-5.257-12.362-11.741S10.145,1.985,16.972,1.985c6.827,0,12.362,5.256,12.362,11.741
			C29.334,20.21,23.799,25.467,16.972,25.467z M24.242,11.212h-4.943l-1.512-4.484c-0.072-0.252-0.309-0.437-0.592-0.437
			c-0.285,0-0.521,0.185-0.594,0.437l-1.505,4.484h-4.944c-0.341,0-0.612,0.287-0.612,0.617c0,0.204,0.105,0.385,0.265,0.493
			c0.099,0.064,3.994,2.808,3.994,2.808s-1.497,4.429-1.525,4.499c-0.022,0.064-0.038,0.135-0.038,0.209
			c0,0.332,0.277,0.6,0.619,0.6c0.13,0,0.251-0.039,0.354-0.107l3.986-2.798c0,0,3.896,2.737,3.987,2.798
			c0.102,0.068,0.223,0.107,0.354,0.107c0.341,0,0.617-0.271,0.617-0.6c0-0.074-0.016-0.145-0.037-0.209
			c-0.029-0.07-1.524-4.499-1.524-4.499s3.896-2.744,3.993-2.808c0.159-0.107,0.264-0.289,0.264-0.496
			C24.848,11.499,24.584,11.212,24.242,11.212z"/>
	</g>
</g>
<rect fill="none" width="34" height="34"/>
</svg>
