<?xml version="1.0" encoding="utf-8"?>
<!-- Generator: Adobe Illustrator 16.0.0, SVG Export Plug-In . SVG Version: 6.00 Build 0)  -->
<!DOCTYPE svg PUBLIC "-//W3C//DTD SVG 1.1//EN" "http://www.w3.org/Graphics/SVG/1.1/DTD/svg11.dtd">
<svg version="1.1" id="圖層_1" xmlns="http://www.w3.org/2000/svg" xmlns:xlink="http://www.w3.org/1999/xlink" x="0px" y="0px"
	 width="34px" height="34px" viewBox="0 0 34 34" enable-background="new 0 0 34 34" xml:space="preserve">
<g>
	<g>
		<path fill="#FFFFFF" d="M30.968,4.006H3.032c-0.576,0-1.042,0.475-1.042,1.061v23.867c0,0.586,0.466,1.062,1.042,1.062h27.936
			c0.577,0,1.044-0.476,1.044-1.062V5.066C32.012,4.48,31.545,4.006,30.968,4.006z M28.409,5.572c0.61,0,1.108,0.506,1.108,1.127
			c0,0.623-0.498,1.128-1.108,1.128c-0.612,0-1.108-0.505-1.108-1.128C27.301,6.078,27.797,5.572,28.409,5.572z M3.43,6.019
			c0-0.247,0.197-0.447,0.44-0.447h20.282c0.244,0,0.439,0.2,0.439,0.447v1.127c0,0.247-0.195,0.447-0.439,0.447H3.87
			c-0.243,0-0.44-0.2-0.44-0.447V6.019z M30.602,28.459H3.398V9.855h27.204V28.459L30.602,28.459z M16.977,17.511
			c0.541,0,0.878-0.377,0.863-0.847c0-0.486-0.322-0.863-0.832-0.863c-0.494,0-0.849,0.377-0.849,0.863
			C16.159,17.134,16.498,17.511,16.977,17.511z M16.324,22.59h1.363v-4.181h-1.363V22.59z M17,25.533
			c3.512,0,6.367-2.906,6.367-6.479c0-3.573-2.855-6.479-6.367-6.479c-3.512,0-6.368,2.906-6.368,6.479
			C10.632,22.627,13.488,25.533,17,25.533z M17,14.068c2.703,0,4.902,2.237,4.902,4.987c0,2.75-2.199,4.987-4.902,4.987
			s-4.902-2.237-4.902-4.987C12.098,16.305,14.297,14.068,17,14.068z"/>
	</g>
</g>
<rect fill="none" width="34" height="34"/>
</svg>
