<?xml version="1.0" encoding="utf-8"?>
<!-- Generator: Adobe Illustrator 16.0.0, SVG Export Plug-In . SVG Version: 6.00 Build 0)  -->
<!DOCTYPE svg PUBLIC "-//W3C//DTD SVG 1.1//EN" "http://www.w3.org/Graphics/SVG/1.1/DTD/svg11.dtd">
<svg version="1.1" id="圖層_1" xmlns="http://www.w3.org/2000/svg" xmlns:xlink="http://www.w3.org/1999/xlink" x="0px" y="0px"
	 width="34px" height="34px" viewBox="0 0 34 34" enable-background="new 0 0 34 34" xml:space="preserve">
<g>
	<g>
		<path fill="#FFFFFF" d="M3.812,17.77h16.293L15.1,22.691c-0.146,0.145-0.23,0.347-0.23,0.556s0.084,0.411,0.23,0.558
			c0.006,0.006,0.012,0.01,0.019,0.016c0.144,0.129,0.332,0.199,0.53,0.199c0.213,0,0.416-0.084,0.557-0.23l6.347-6.241
			c0.143-0.14,0.225-0.339,0.225-0.546s-0.082-0.406-0.225-0.546L16.2,10.198c-0.147-0.145-0.353-0.231-0.541-0.231
			c-0.024-0.001-0.048-0.001-0.06-0.001c-0.03,0-0.061,0.003-0.092,0.009c-0.287,0.055-0.52,0.27-0.604,0.562
			c-0.08,0.281-0.004,0.574,0.2,0.768l5,4.919H3.77c-0.011,0-0.022,0.001-0.033,0.001c-0.208,0.014-0.407,0.114-0.546,0.273
			c-0.135,0.155-0.202,0.349-0.188,0.543c0.028,0.402,0.378,0.729,0.781,0.729C3.793,17.77,3.803,17.77,3.812,17.77z M30.523,13.437
			c-0.974-3.639-3.33-6.679-6.638-8.562c-2.057-1.16-4.387-1.808-6.741-1.871C17.027,3.002,16.908,3,16.791,3
			c-5.074,0-9.803,2.687-12.338,7.008c-0.401,0.678-0.746,1.396-1.027,2.137c-0.022,0.059-0.033,0.12-0.032,0.183L3.393,12.34
			c-0.006,0.044-0.016,0.11-0.011,0.19c0.029,0.432,0.366,0.733,0.82,0.733h0.017c0.214-0.003,0.391-0.113,0.457-0.16
			C4.931,12.921,4.979,12.791,5,12.735c0.243-0.651,0.543-1.288,0.892-1.89c2.237-3.808,6.409-6.173,10.885-6.173
			c0.109,0,0.221,0.001,0.332,0.004c2.075,0.047,4.127,0.612,5.935,1.635c2.923,1.66,5.005,4.34,5.865,7.543
			c0.851,3.169,0.401,6.478-1.267,9.317c-2.231,3.806-6.4,6.168-10.877,6.168c-2.193,0-4.363-0.573-6.275-1.657
			c-2.597-1.474-4.571-3.822-5.56-6.619c-0.096-0.265-0.342-0.334-0.448-0.365l-0.006-0.002c-0.107-0.037-0.223-0.059-0.334-0.059
			c-0.188,0-0.36,0.057-0.497,0.163c-0.267,0.207-0.384,0.622-0.266,0.944c1.138,3.104,3.368,5.722,6.279,7.372
			C11.822,30.35,14.281,31,16.77,31c5.069,0,9.787-2.675,12.313-6.98C30.977,20.797,31.488,17.039,30.523,13.437z"/>
	</g>
</g>
<rect fill="none" width="34" height="34"/>
</svg>
