<?xml version="1.0" encoding="utf-8"?>
<!-- Generator: Adobe Illustrator 16.0.0, SVG Export Plug-In . SVG Version: 6.00 Build 0)  -->
<!DOCTYPE svg PUBLIC "-//W3C//DTD SVG 1.1//EN" "http://www.w3.org/Graphics/SVG/1.1/DTD/svg11.dtd">
<svg version="1.1" id="圖層_1" xmlns="http://www.w3.org/2000/svg" xmlns:xlink="http://www.w3.org/1999/xlink" x="0px" y="0px"
	 width="34px" height="34px" viewBox="0 0 34 34" enable-background="new 0 0 34 34" xml:space="preserve">
<rect fill="none" width="34" height="34"/>
<g>
	<path fill="#FFFFFF" d="M12.617,17.77h16.295l-5.006,4.922c-0.146,0.145-0.229,0.347-0.229,0.556s0.084,0.411,0.229,0.558
		c0.006,0.006,0.012,0.01,0.02,0.016c0.144,0.13,0.332,0.199,0.529,0.199c0.213,0,0.416-0.084,0.558-0.229l6.347-6.241
		c0.143-0.14,0.225-0.339,0.225-0.546s-0.082-0.406-0.225-0.546l-6.353-6.259c-0.147-0.145-0.354-0.231-0.541-0.231
		c-0.024-0.001-0.049-0.001-0.061-0.001c-0.03,0-0.061,0.003-0.092,0.009c-0.287,0.055-0.521,0.27-0.604,0.562
		c-0.079,0.281-0.004,0.574,0.2,0.768l5.001,4.919H12.576c-0.012,0-0.023,0.001-0.033,0.001c-0.209,0.014-0.408,0.114-0.547,0.273
		c-0.135,0.155-0.201,0.349-0.188,0.543c0.027,0.402,0.377,0.729,0.781,0.729C12.598,17.77,12.609,17.77,12.617,17.77z"/>
	<g>
		<path fill="#FFFFFF" d="M15.541,28.86c-1.955,0-3.951-0.491-5.831-1.477c-3.931-2.062-6.379-5.769-6.548-9.916
			C2.988,13.236,5.198,9.316,9.071,6.981c3.844-2.317,8.492-2.443,12.128-0.328c0.405,0.236,0.543,0.756,0.307,1.162
			c-0.234,0.406-0.754,0.544-1.162,0.308C17.245,6.32,13.262,6.44,9.948,8.438c-3.333,2.009-5.235,5.359-5.088,8.961
			c0.145,3.534,2.252,6.704,5.64,8.479c3.374,1.769,7.167,1.7,10.148-0.186c0.397-0.249,0.922-0.131,1.173,0.265
			c0.251,0.396,0.133,0.921-0.265,1.173C19.735,28.281,17.662,28.86,15.541,28.86z"/>
	</g>
</g>
</svg>
