<?xml version="1.0" encoding="utf-8"?>
<!-- Generator: Adobe Illustrator 16.0.0, SVG Export Plug-In . SVG Version: 6.00 Build 0)  -->
<!DOCTYPE svg PUBLIC "-//W3C//DTD SVG 1.1//EN" "http://www.w3.org/Graphics/SVG/1.1/DTD/svg11.dtd">
<svg version="1.1" id="圖層_1" xmlns="http://www.w3.org/2000/svg" xmlns:xlink="http://www.w3.org/1999/xlink" x="0px" y="0px"
	 width="34px" height="34px" viewBox="0 0 34 34" enable-background="new 0 0 34 34" xml:space="preserve">
<path fill="#FFFFFF" d="M30.82,11.161c-0.756-1.786-1.838-3.39-3.215-4.767s-2.98-2.459-4.769-3.214C20.988,2.396,19.023,2,17,2
	c-2.024,0-3.988,0.396-5.84,1.179C9.374,3.934,7.77,5.016,6.393,6.393S3.935,9.374,3.179,11.16C2.396,13.011,2,14.976,2,17
	c0,2.023,0.396,3.988,1.179,5.839c0.666,1.574,1.585,3.007,2.736,4.267c0.155,0.17,0.314,0.338,0.478,0.502
	c0.515,0.516,1.061,0.986,1.637,1.418c0.103,0.076,0.207,0.151,0.311,0.228c0.877,0.622,1.82,1.146,2.819,1.567
	C13.012,31.604,14.976,32,17,32c2.023,0,3.988-0.396,5.839-1.18c1.019-0.432,1.978-0.969,2.869-1.604
	c0.088-0.063,0.176-0.127,0.263-0.19c0.575-0.432,1.121-0.902,1.637-1.418c0.164-0.164,0.322-0.332,0.479-0.502
	c1.15-1.26,2.068-2.69,2.734-4.267C31.604,20.988,32,19.023,32,17C32,14.976,31.604,13.011,30.82,11.161z M20.021,30.027
	c-0.973,0.226-1.982,0.344-3.021,0.344c-1.036,0-2.045-0.117-3.014-0.342c-2.2-0.506-4.192-1.557-5.829-3
	c0.061-0.758,0.12-1.23,0.177-1.41c0.227-0.635,0.451-0.828,0.721-1.01c0.238-0.133,1.396-0.565,2.165-0.854l0.012-0.005
	c1.573-0.587,2.643-0.994,3.159-1.287c0.814-0.465,1.6-2.092,1.256-3.061c-0.084-0.238-0.234-0.442-0.447-0.682l-0.072-0.082
	c-0.001,0-0.002-0.002-0.002-0.002l-0.03-0.033h-0.001c-0.418-0.47-0.963-1.373-1.174-2.163c-0.305-1.134-0.6-3.656,0.457-5.079
	c0.539-0.725,1.383-1.096,2.582-1.134l0.027-0.001l0.063,0.001c1.195,0.039,2.037,0.41,2.574,1.133
	c1.058,1.423,0.763,3.945,0.459,5.079c-0.216,0.807-0.781,1.733-1.205,2.197c-0.342,0.372-0.479,0.584-0.547,0.834l-0.033,0.125
	l-0.004,0.131c-0.017,0.537,0.367,2.192,1.319,2.733c0.519,0.295,1.634,0.72,3.152,1.286c0.772,0.289,1.938,0.725,2.18,0.857
	c0.271,0.183,0.496,0.377,0.722,1.006c0.058,0.182,0.116,0.654,0.177,1.414C24.208,28.471,22.219,29.521,20.021,30.027z
	 M27.779,24.912c-0.006-0.014-0.01-0.028-0.014-0.041c-0.35-0.975-0.824-1.609-1.596-2.123c-0.313-0.207-0.869-0.43-2.627-1.085
	c-0.961-0.358-2.257-0.843-2.746-1.09c-0.068-0.11-0.15-0.317-0.209-0.507c0.604-0.688,1.33-1.869,1.646-3.046
	c0.119-0.442,1.101-4.396-0.822-6.984c-0.941-1.27-2.43-1.973-4.298-2.032L16.939,8l-0.07,0.004
	c-1.861,0.063-3.341,0.766-4.281,2.032c-1.922,2.589-0.939,6.542-0.821,6.983c0.315,1.181,1.044,2.366,1.652,3.056l0.03,0.049
	c-0.059,0.158-0.153,0.344-0.228,0.438c-0.471,0.242-1.792,0.733-2.771,1.101l-0.012,0.005c-1.746,0.652-2.301,0.874-2.609,1.079
	c-0.77,0.514-1.247,1.147-1.594,2.121c-0.005,0.014-0.009,0.03-0.014,0.045C4.592,22.697,3.628,19.961,3.628,17
	C3.628,9.615,9.615,3.628,17,3.628S30.371,9.615,30.371,17C30.371,19.961,29.408,22.697,27.779,24.912z"/>
<rect fill="none" width="34" height="34"/>
</svg>
