<?xml version="1.0" encoding="utf-8"?>
<!-- Generator: Adobe Illustrator 16.0.0, SVG Export Plug-In . SVG Version: 6.00 Build 0)  -->
<!DOCTYPE svg PUBLIC "-//W3C//DTD SVG 1.1//EN" "http://www.w3.org/Graphics/SVG/1.1/DTD/svg11.dtd">
<svg version="1.1" id="圖層_1" xmlns="http://www.w3.org/2000/svg" xmlns:xlink="http://www.w3.org/1999/xlink" x="0px" y="0px"
	 width="34px" height="34px" viewBox="0 0 34 34" enable-background="new 0 0 34 34" xml:space="preserve">
<g>
	<path fill="#FFFFFF" d="M6.892,23.146H17.87V21.01H6.892V23.146z M15.674,14.601h8.781v-2.136h-8.781V14.601z M15.674,10.328h8.781
		V6.056h-8.781V10.328z M13.478,6.056H6.892v8.545h6.586V6.056z M11.283,16.737H6.892v2.136h4.391V16.737z M13.478,18.873h10.978
		v-2.136H13.478V18.873z M20.064,23.146h4.391V21.01h-4.391V23.146z M29.654,4.284h-0.809V3.792c0-0.987-0.83-1.794-1.846-1.794
		H4.345C3.33,1.997,2.5,2.804,2.5,3.792v23.397c0,0.986,0.83,1.795,1.844,1.795h0.809v1.226c0,0.985,0.83,1.794,1.844,1.794h22.657
		c1.016,0,1.845-0.809,1.845-1.794V6.079C31.499,5.092,30.67,4.284,29.654,4.284z M4.345,27.549c-0.2,0-0.369-0.164-0.369-0.359
		V3.792c0-0.195,0.169-0.359,0.369-0.359h22.657c0.2,0,0.369,0.164,0.369,0.359v23.397c0,0.194-0.169,0.358-0.369,0.358
		L4.345,27.549L4.345,27.549z M30.023,30.209c0,0.193-0.168,0.357-0.369,0.357H6.998c-0.2,0-0.369-0.164-0.369-0.357v-1.225h20.373
		c1.016,0,1.844-0.81,1.844-1.795V5.72h0.812c0.198,0,0.366,0.164,0.366,0.359V30.209L30.023,30.209z"/>
</g>
<rect fill="none" width="34" height="34"/>
</svg>
