<?xml version="1.0" encoding="utf-8"?>
<!-- Generator: Adobe Illustrator 19.2.1, SVG Export Plug-In . SVG Version: 6.00 Build 0)  -->
<svg version="1.1" id="Layer_1" xmlns="http://www.w3.org/2000/svg" xmlns:xlink="http://www.w3.org/1999/xlink" x="0px" y="0px"
	 viewBox="0 0 200 160" style="enable-background:new 0 0 200 160;" xml:space="preserve">
<style type="text/css">
	.st0{fill:#EDF1F2;}
	.st1{fill:#CFD1D3;}
</style>
<g id="圖層_1">
	<rect class="st0" width="200" height="160"/>
</g>
<g id="Layer_2">
	<g>
		<path class="st1" d="M100.9,103.1c3.3-0.3,5.7-2,6.9-4.2c-5.1,1.2-10.4,1.2-15.5,0C93.3,101.1,97,103.5,100.9,103.1"/>
		<path class="st1" d="M107.8,93.1c-0.6,0.1-1.1,0.3-1.5,0.4c-1.5,0.3-3.1,0.5-4.7,0.5c-2.2,0.1-4.4,0-6.5-0.3
			c-1-0.1-6.1-1.8-5.6,0.3c0.4,1.7,3.4,2.1,5.1,2.5c2.8,0.6,6.1,0.5,8.9,0.2c1.7-0.1,4.4-0.3,5.8-1.1c0.8-0.5,2-2.1,0.7-2.6
			C109.6,92.7,108.6,92.8,107.8,93.1"/>
		<path class="st1" d="M100,30.9c-17,0-30.8,13.2-30.8,29.5C69.2,76.7,83,90,100,90s30.8-13.2,30.8-29.5
			C130.8,44.1,117,30.9,100,30.9 M122.2,58c-0.1,0-0.1,0-0.1,0H122l-2.2,4.5l0.2,0.1c0.3,0.1,0.4,0.4,0.4,0.6c0,0.3-0.1,0.6-0.2,0.9
			l-0.4,0.7c-0.3,0.5-0.8,0.9-1.3,0.7l-0.1-0.1l-3.3,6.8c-0.2,0.4-0.6,0.7-1.1,0.7c-0.2,0-0.4,0-0.6-0.1l-0.5-0.3
			c-0.6-0.3-0.9-1.1-0.6-1.7l2.3-4.7l-0.3,0.1c-2.2,0.5-2.6,0.6-4,0.7c-0.3-0.1-3.4-0.9-4.7-0.8l0,0c0,0-0.6,0.8-0.9,1.9
			c-0.7,2-1.8,5-4.9,5.2c-0.2,0-0.3,0-0.5,0H99v0.2c0,0,0.2,3.2-0.6,5.8c-0.7,0.5-11.8,3-12.8,3.2c-0.3,0.1-0.7,0.1-1,0.2
			c-0.9,0.2-0.5-0.6-0.4-1.1c0.1-0.5,0.4-0.7,0.9-0.9c0.3-0.2,5.7-3.9,8.1-4.4l0.1-0.1v-0.1c0.2-0.9-0.1-2-0.1-2L93,73.7l-0.1,0.1
			c-0.1,0-3.8,1.6-7.1,2c-1.1-0.9-2.4-1.7-3.5-2.6c-0.7-0.5-1.4-1.1-2.2-1.5c-0.3-0.3-0.7-0.5-1.1-0.7c-0.2-0.1-0.5-0.3-0.7-0.5
			c-0.3-0.5,0.8-0.9,1.1-1c0.8-0.3,1.4,0.1,2.2,0.3c0.7,0.2,1.5,0.6,2.3,0.8c1,0.3,2,0.6,3,0.9l4.4-3.2l-0.1-0.1
			c0,0-0.5-1.5,0.3-2.6c0.5-0.8,1.3-1.7,3.3-1.9h0.1l2.6-2.3v-0.6l-0.1,0.1c-2,1.1-3.6,0.9-4.2,0.9c-0.5,0-0.7-0.1-0.9-0.1
			c-0.3-0.1,0.1-0.3,0.8-0.9c0.5-0.3,0.9-0.7,0.9-0.7l-0.1-0.1c-1.5,0.7-3.3,0.9-5,1c-1.1,0.1-1.8,0-2.2-0.1
			c0.1-0.1,0.5-0.4,1.9-1.1c0.9-0.5,1.9-0.8,2-0.8l-0.1-0.1c0,0-4.8,1.1-6.9,1.1c-1.3,0-1.7-0.1-1.8-0.3c0,0,0,0,0-0.1
			c1.3-0.7,5.2-2,5.3-2l-0.1-0.1c-2.8,0.7-5.2,0.9-7.1,1c-2.6,0.1-3.6-0.3-3.8-0.5c0.5-0.3,3.1-1.3,7.5-2.4c3.6-0.9,8-2,9.6-2.1h0.1
			c1.8-0.1,2.6,1,3.4,2.3c0.5,0.7,1,1.5,1.8,2.1c0.2,0.1,0.7,0.3,1.3,0.5h0.1l0.9-0.9c0.2-0.2,0.7-0.7,0.5-1.3
			c-0.3-0.7-1-0.6-1.6-0.7c-0.5-0.1-1-0.7-1.1-1.2c-0.1-0.5,0.3-0.7,0.5-0.9c-0.3,0.1-0.9,0-1.1,0c-0.3-0.1-0.7-0.1-1-0.5
			c-0.5-0.6,0-1.7,0-1.7s-0.1,0-0.2,0c-0.2,0-0.5,0-0.7-0.2c-0.1-0.1-0.2-0.3-0.2-0.6V50L95.7,50c-0.1,0-0.2,0.1-0.3,0.1
			c-0.3,0-0.5-0.1-0.5-0.3c-0.1-0.3,0.2-0.7,0.7-0.9l0.1-0.1v-0.1c-0.4-2-0.3-3.6,0.5-5.2c1.5-3.1,5-5.1,8.7-5.3c0.1,0,0.1,0,0.2,0
			c2.2-0.1,4.8,1.2,6,3c0.7,0.9,1,1.4,1.2,2.5c0,0.1,0.1,0.2,0.1,0.3c0.1,0.5,0.2,1.3,0.7,1.5c0,0,0,0,3.8,1.3
			c0,0.1,0.1,0.4-0.1,0.5c-0.3,0.2-2,0.6-4,0.9l-0.3,0.1l0.2,0.2c0.1,0.2,0.2,0.3,0.1,0.5c-0.1,0.5-0.9,1-1.5,1.2h-0.1v0.1
			c-0.1,0.5-0.1,0.4,0.1,0.5c0.2,0.3,0.3,0.4,0.7,0.6c0.2,0.1,0.5,0.3,0.6,0.4c-0.1,0.5-2.2,5.1-3.8,5.2c-0.1,0-0.1,0-0.1,0
			c-0.6-0.1-1.1-0.1-1.5-0.1c-0.5,0-0.7,0.1-0.7,0.1h-0.1v0.1c-0.1,0.2-0.5,1-0.1,1.3c0.3,0.2,3.4,3.2,3.5,3.2l0.1,0.1h0.1
			c0,0,2.1,0.2,6.1,0.7h0.1l0.1-0.1c0.9-1.8,1.6-3.3,1.7-3.6l1.1-2.4l-0.1-0.1c-0.8-1.1-0.9-2.5-0.3-3.7s2.5-1.8,2.6-1.8
			c0.1,0,0.1,0,0.1,0c0.1,0,0.1,0,0.1,0s0,0.1-0.1,0.2l-0.9,1.7c-0.1,0.2-0.1,0.5-0.1,0.7c0.1,0.2,0.2,0.4,0.5,0.5l1.8,0.9
			c0.1,0.1,0.3,0.1,0.4,0.1c0.3,0,0.6-0.2,0.7-0.5l0.9-1.7c0.1-0.1,0.1-0.1,0.1-0.1s0.1,0.1,0.1,0.2c0,0,0.7,1.9,0.1,3.1
			C124.6,57.1,123.5,57.9,122.2,58"/>
	</g>
</g>
</svg>
