<?xml version="1.0" encoding="utf-8"?>
<!-- Generator: Adobe Illustrator 19.2.1, SVG Export Plug-In . SVG Version: 6.00 Build 0)  -->
<svg version="1.1" xmlns="http://www.w3.org/2000/svg" xmlns:xlink="http://www.w3.org/1999/xlink" x="0px" y="0px"
	 viewBox="0 0 256 144" style="enable-background:new 0 0 256 144;" xml:space="preserve">
<style type="text/css">
	.st0{fill:#EDF1F2;}
	.st1{fill:#CFD1D3;}
</style>
<g id="圖層_1">
	<rect class="st0" width="256" height="144"/>
</g>
<g id="Layer_2">
	<g>
		<path class="st1" d="M132.4,108.3c4.4-0.5,7.6-2.7,9.1-5.6c-6.8,1.6-13.9,1.6-20.7,0C122.2,105.7,127.3,108.9,132.4,108.3"/>
		<path class="st1" d="M141.6,94.9c-0.8,0.2-1.6,0.4-2.1,0.6c-2.1,0.4-4.2,0.7-6.3,0.8c-2.9,0.1-5.8,0-8.7-0.5
			c-1.3-0.2-8.2-2.4-7.5,0.3c0.6,2.3,4.6,2.8,6.9,3.3c3.7,0.8,8.2,0.6,11.9,0.3c2.2-0.2,5.9-0.4,7.8-1.5c1.1-0.7,2.7-2.8,1-3.5
			C143.9,94.4,142.7,94.6,141.6,94.9"/>
		<path class="st1" d="M131.2,11.9c-22.7,0-41.1,17.6-41.1,39.4c0,21.8,18.4,39.4,41.1,39.4c22.7,0,41.1-17.6,41.1-39.4
			C172.3,29.5,153.9,11.9,131.2,11.9 M160.8,48c-0.1,0-0.1,0-0.2,0l-0.1,0l-2.9,6l0.3,0.1c0.4,0.2,0.5,0.6,0.5,0.8
			c0,0.4,0,0.8-0.2,1.1l-0.5,1c-0.4,0.7-1.1,1.2-1.7,0.9l-0.2-0.1l-4.4,9.1c-0.3,0.5-0.8,0.9-1.4,0.9c-0.3,0-0.6,0-0.8-0.2l-0.7-0.3
			c-0.8-0.4-1.2-1.4-0.8-2.2l3-6.3l-0.4,0.1c-2.9,0.7-3.5,0.8-5.3,0.9c-0.4-0.1-4.6-1.2-6.3-1.1h0c0,0-0.8,1.1-1.3,2.5
			c-1,2.7-2.4,6.7-6.6,6.9c-0.2,0-0.5,0-0.7,0l-0.2,0l0,0.2c0,0,0.3,4.3-0.8,7.8c-1,0.6-15.8,4-17.1,4.3c-0.5,0.1-0.9,0.2-1.4,0.3
			c-1.2,0.3-0.7-0.8-0.5-1.6c0.1-0.7,0.5-0.9,1.1-1.2c0.5-0.3,7.6-5.2,10.7-5.9l0.1,0l0-0.1c0.3-1.2-0.2-2.7-0.2-2.7l-0.1-0.2
			l-0.2,0.1c0,0-5,2.2-9.4,2.6c-1.5-1.2-3.1-2.4-4.7-3.5c-1-0.7-1.9-1.4-2.9-2.1c-0.5-0.3-0.9-0.6-1.4-1c-0.3-0.2-0.7-0.3-0.9-0.6
			c-0.4-0.7,1-1.2,1.5-1.3c1.1-0.3,1.9,0.1,2.9,0.4c1,0.3,2.1,0.8,3.1,1.1c1.3,0.4,2.6,0.8,4,1.2l5.8-4.3l-0.1-0.2
			c0,0-0.7-2.1,0.3-3.5c0.8-1.1,1.7-2.2,4.4-2.5l0.1,0l3.4-3l0-0.8l-0.2,0.1c-2.7,1.4-4.7,1.2-5.7,1.3c-0.7,0-1-0.1-1.1-0.1
			c-0.4-0.2,0.1-0.4,1.1-1.1c0.6-0.5,1.2-0.9,1.3-0.9l-0.1-0.1c-2,0.9-4.4,1.2-6.7,1.3c-1.4,0.1-2.5,0-2.9-0.1
			c0.1-0.2,0.6-0.6,2.5-1.5c1.3-0.6,2.5-1.1,2.6-1.1l-0.1-0.2c0,0-6.4,1.5-9.2,1.5c-1.8,0-2.3-0.2-2.4-0.3c0,0,0,0,0-0.1
			c1.8-1,7-2.6,7.1-2.6l-0.1-0.2c-3.8,0.9-7,1.2-9.5,1.4c-3.5,0.2-4.7-0.5-5-0.7c0.6-0.5,4.1-1.7,10.1-3.3
			c4.8-1.3,10.6-2.6,12.8-2.8l0.1,0c2.4-0.1,3.4,1.4,4.5,3.1c0.7,1,1.4,2.1,2.4,2.8c0.3,0.2,0.9,0.4,1.8,0.6l0.1,0l1.3-1.4
			c0.3-0.3,1-1,0.7-1.8c-0.4-1-1.4-0.8-2.2-1c-0.7-0.1-1.4-0.9-1.4-1.6c0-0.6,0.5-1,0.7-1.2c-0.4,0.1-1.3,0-1.5,0
			c-0.5-0.1-1-0.2-1.3-0.6c-0.6-0.8,0-2.2,0-2.2c0,0-0.1,0-0.2,0c-0.2,0-0.7,0-0.9-0.3c-0.2-0.2-0.2-0.4-0.2-0.8l0-0.3l-0.3,0.1
			c-0.1,0-0.2,0.1-0.4,0.1c-0.4,0-0.6-0.1-0.7-0.4c-0.1-0.4,0.2-0.9,1-1.2l0.2-0.1l0-0.2c-0.6-2.7-0.4-4.8,0.7-7
			c2.1-4.1,6.7-6.8,11.7-7.1c0.1,0,0.2,0,0.3,0c2.9-0.1,6.4,1.6,8,3.9c0.9,1.3,1.3,1.9,1.6,3.4c0,0.1,0.1,0.3,0.1,0.5
			c0.1,0.8,0.2,1.8,1,2.1c0,0,0,0,5.1,1.8c0,0.2,0.1,0.5-0.2,0.7c-0.3,0.3-2.7,0.8-5.3,1.1l-0.4,0.1l0.2,0.3
			c0.2,0.2,0.3,0.5,0.2,0.8c-0.2,0.7-1.2,1.3-2,1.6l-0.1,0l0,0.1c-0.1,0.6-0.1,0.5,0.1,0.7c0.3,0.4,0.5,0.5,1,0.8
			c0.3,0.2,0.7,0.4,0.8,0.6c-0.1,0.7-3,6.8-5.1,6.9c0,0-0.1,0-0.1,0c-0.8-0.1-1.4-0.1-2,0c-0.7,0-0.9,0.1-1,0.2l-0.1,0l0,0.1
			c-0.1,0.3-0.6,1.3-0.2,1.7c0.3,0.3,4.6,4.3,4.6,4.4l0.1,0.1l0.1,0c0,0,2.8,0.3,8.1,0.9l0.2,0l0.1-0.1c1.2-2.5,2.2-4.4,2.3-4.8
			l1.6-3.2l-0.1-0.1c-1.1-1.5-1.3-3.4-0.5-5c0.8-1.7,3.4-2.4,3.4-2.4c0.1,0,0.1,0,0.2,0c0.1,0,0.1,0,0.1,0c0,0,0,0.1-0.1,0.3
			l-1.1,2.3c-0.1,0.3-0.2,0.6,0,0.9c0.1,0.3,0.3,0.5,0.6,0.7l2.4,1.2c0.2,0.1,0.4,0.1,0.6,0.1c0.4,0,0.8-0.3,1-0.7l1.1-2.3
			c0.1-0.2,0.2-0.2,0.2-0.2c0,0,0.1,0.1,0.2,0.2c0,0,1,2.5,0.2,4.2C164.1,46.9,162.6,47.9,160.8,48"/>
	</g>
</g>
</svg>
