<?xml version="1.0" encoding="utf-8"?>
<!-- Generator: Adobe Illustrator 19.2.1, SVG Export Plug-In . SVG Version: 6.00 Build 0)  -->
<svg version="1.1" xmlns="http://www.w3.org/2000/svg" xmlns:xlink="http://www.w3.org/1999/xlink" x="0px" y="0px"
	 viewBox="0 0 1024 576" style="enable-background:new 0 0 1024 576;" xml:space="preserve">
<style type="text/css">
	.st0{fill:#EDF1F2;}
	.st1{fill:#CFD1D3;}
</style>
<g id="圖層_1">
	<rect y="0" class="st0" width="1024" height="576"/>
</g>
<g id="Layer_2">
	<g>
		<path class="st1" d="M519.8,447.1c13.4-1.5,23.1-8.1,27.6-16.8c-20.6,5-42.2,5-62.8,0C488.8,439.2,504.1,449,519.8,447.1"/>
		<path class="st1" d="M547.5,406.6c-2.4,0.6-4.7,1.4-6.4,1.7c-6.2,1.2-12.6,2-19,2.3c-8.8,0.4-17.6,0-26.2-1.4
			c-4-0.6-24.8-7.4-22.6,1c1.7,6.8,13.9,8.5,20.8,10.1c11.1,2.5,24.8,1.9,36.2,0.8c6.7-0.6,17.9-1.1,23.5-4.4c3.4-2,8-8.4,3-10.7
			C554.5,405.1,550.9,405.8,547.5,406.6"/>
		<path class="st1" d="M516,155.2c-68.7,0-124.3,53.4-124.3,119.3c0,65.9,55.7,119.3,124.3,119.3c68.7,0,124.3-53.4,124.3-119.3
			C640.3,208.6,584.7,155.2,516,155.2 M605.7,264.8c-0.2,0-0.4,0-0.5,0l-0.4,0l-8.8,18.1l0.8,0.4c1.2,0.6,1.5,1.7,1.6,2.5
			c0.1,1.1-0.1,2.3-0.7,3.4l-1.5,2.9c-1.1,2.1-3.3,3.7-5.2,2.8l-0.6-0.3l-13.4,27.5c-0.8,1.6-2.4,2.7-4.3,2.8
			c-0.9,0-1.7-0.1-2.5-0.5l-2.1-1c-2.5-1.2-3.6-4.3-2.3-6.8l9.1-19l-1.4,0.3c-8.9,2.2-10.7,2.3-16,2.7c-1.3-0.3-13.8-3.5-19-3.3h0
			c0,0-2.4,3.4-3.9,7.5c-2.9,8-7.3,20.2-19.9,20.9c-0.7,0-1.5,0.1-2.2,0l-0.7,0l0,0.7c0,0.1,0.8,12.9-2.6,23.5
			c-3.1,1.8-47.7,12.2-51.7,13.1c-1.4,0.3-2.8,0.6-4.2,0.9c-3.7,0.9-2.1-2.5-1.6-4.7c0.4-2.1,1.6-2.8,3.4-3.8
			c1.5-0.8,23.1-15.8,32.5-17.9l0.3-0.1l0.1-0.3c0.8-3.5-0.5-8.1-0.6-8.3l-0.2-0.7l-0.6,0.3c-0.1,0.1-15.2,6.7-28.5,7.8
			c-4.7-3.6-9.4-7.2-14.2-10.7c-2.9-2.1-5.8-4.2-8.8-6.3c-1.4-1-2.8-1.9-4.3-2.9c-0.8-0.6-2.2-1-2.6-2c-1.1-2.2,3.1-3.5,4.5-4
			c3.3-1.1,5.7,0.3,8.8,1.2c3,0.9,6.3,2.4,9.3,3.3c4,1.2,8,2.4,12,3.6l17.6-13.1l-0.2-0.5c0-0.1-2.1-6.3,1-10.6
			c2.3-3.3,5.2-6.7,13.4-7.6l0.2,0l10.2-9.2l-0.1-2.5l-0.5,0.2c-8.3,4.3-14.3,3.7-17.2,3.8c-2.1,0.1-3.1-0.2-3.5-0.4
			c-1.1-0.6,0.3-1.1,3.3-3.5c1.8-1.5,3.8-2.7,3.8-2.7l-0.3-0.4c-6.2,2.7-13.4,3.6-20.4,4c-4.3,0.3-7.5,0-8.7-0.2
			c0.4-0.5,1.8-1.8,7.6-4.4c3.9-1.8,7.7-3.3,7.8-3.3l-0.3-0.5c0,0-19.5,4.5-27.8,4.4c-5.5,0-7-0.6-7.3-1c-0.1-0.1-0.1-0.1-0.1-0.2
			c5.3-2.9,21.3-7.9,21.5-7.9l-0.2-0.5c-11.4,2.8-21.2,3.7-28.8,4.2c-10.7,0.6-14.3-1.4-15.2-2.1c1.8-1.4,12.5-5.1,30.6-9.9
			c14.6-3.9,32.2-8,38.7-8.4l0.2,0c7.4-0.3,10.3,4.2,13.7,9.4c2,3.1,4.1,6.3,7.3,8.5c0.9,0.6,2.7,1.2,5.5,1.9l0.4,0.1l3.8-4.2
			c0.8-0.8,2.9-3.1,2.1-5.4c-1.1-3-4.1-2.5-6.6-3c-2.2-0.4-4.2-2.7-4.4-5c-0.1-1.9,1.4-3,2.2-3.6c-1.1,0.5-3.8,0-4.4,0
			c-1.5-0.2-3-0.6-3.9-1.8c-2-2.4,0.1-6.7,0.1-6.7c0,0-0.3,0.1-0.7,0.1c-0.7,0-2,0-2.8-0.8c-0.5-0.5-0.7-1.3-0.7-2.3l0-0.9l-0.9,0.3
			c-0.4,0.1-0.7,0.2-1.1,0.2c-1.1,0.1-1.8-0.4-2-1.2c-0.2-1.2,0.7-2.8,3-3.6l0.5-0.2l-0.1-0.6c-1.7-8-1.2-14.6,2-21.1
			c6.3-12.5,20.3-20.6,35.4-21.4c0.3,0,0.6,0,0.9,0c8.8-0.3,19.3,4.9,24.1,11.9c2.6,3.8,4,5.7,4.9,10.1c0.1,0.4,0.2,0.9,0.2,1.4
			c0.3,2.3,0.7,5.4,3.1,6.3c0,0,0,0,15.3,5.3c0.1,0.5,0.2,1.6-0.5,2.2c-1,0.8-8.3,2.3-16,3.4l-1.2,0.2l0.8,0.9
			c0.6,0.7,0.8,1.5,0.5,2.3c-0.6,2.1-3.5,4-6.1,4.9l-0.4,0.1l-0.1,0.4c-0.3,1.8-0.2,1.6,0.2,2.1c0.8,1.1,1.5,1.6,3,2.5
			c0.9,0.6,2.2,1.3,2.5,1.7c-0.3,2.2-9.1,20.6-15.4,21c-0.1,0-0.3,0-0.4,0c-2.4-0.2-4.4-0.2-5.9-0.1c-2.1,0.1-2.8,0.4-2.9,0.5
			l-0.2,0.1l-0.1,0.2c-0.4,0.9-1.8,4.1-0.5,5.2c1,0.8,13.9,13.1,14.1,13.2l0.2,0.2l0.2,0c0.1,0,8.3,0.8,24.6,2.7l0.5,0.1l0.2-0.4
			c3.6-7.4,6.6-13.4,7-14.4l4.7-9.7l-0.2-0.3c-3.3-4.4-3.9-10.2-1.5-15.1c2.4-5,10.2-7.4,10.2-7.4c0.2-0.1,0.4-0.1,0.5-0.1
			c0.2,0,0.4,0,0.4,0.1c0.1,0.1,0.1,0.4-0.2,0.9l-3.4,7c-0.4,0.8-0.5,1.8-0.2,2.7c0.3,0.9,0.9,1.6,1.8,2l7.3,3.5
			c0.5,0.3,1.1,0.4,1.7,0.4c1.3-0.1,2.4-0.8,3-2l3.4-7c0.3-0.5,0.5-0.7,0.6-0.7c0.1,0,0.3,0.2,0.5,0.7c0,0.1,2.9,7.6,0.5,12.6
			C615.6,261.3,610.9,264.4,605.7,264.8"/>
	</g>
</g>
</svg>
