<?xml version="1.0" encoding="utf-8"?>
<!-- Generator: Adobe Illustrator 19.2.1, SVG Export Plug-In . SVG Version: 6.00 Build 0)  -->
<svg version="1.1" xmlns="http://www.w3.org/2000/svg" xmlns:xlink="http://www.w3.org/1999/xlink" x="0px" y="0px"
	 viewBox="0 0 419.5 595.3" style="enable-background:new 0 0 419.5 595.3;" xml:space="preserve">
<style type="text/css">
	.st0{display:none;}
	.st1{display:inline;fill:#DDE1E4;}
	.st2{fill:#DDE1E4;}
</style>
<g id="圖層_1" class="st0">
	<path class="st1" d="M377.2,259c-0.3-1-0.7-1.3-0.7-1.3s-0.7,0.3-1,1l-6.2,11.4c-1,2-2.9,2.9-5.2,2.9c-1,0-2-0.3-2.9-0.7l-11.7-6.5
		c-1.3-0.7-2.3-2-2.6-3.6c-0.3-1.6-0.3-2.9,0.7-4.6l6.2-11.4c0.3-0.7,0.3-1.3,0.3-1.3s-0.3,0-0.7,0c-0.3,0-0.7,0-1,0
		c0,0-13,3.3-17.6,11.4c-4.6,7.8-3.9,17.6,1,25.1l0.3,0.7l-8.8,15.6c-1,1.6-6.2,11.1-13,23.1l-0.3,0.7h-0.7
		c-26.7-4.6-40.1-6.8-40.4-6.8h-0.3l-0.3-0.3c-0.3-0.3-20.5-21.8-22.1-23.1c-2-2,0.7-7.2,1.3-8.5v-0.3h0.3c0.3,0,1.3-0.7,4.9-0.7
		c2.6,0,5.9,0.3,9.8,1c0.3,0,0.3,0,0.7,0c10.7,0,26.7-29.6,27.7-33.2c-0.3-0.7-2.3-2-3.9-2.9c-2.3-1.6-3.6-2.6-4.6-4.6
		c-0.7-1-0.7-0.7,0-3.6v-0.7l0.7-0.3c4.2-1.3,9.4-4.2,10.4-7.5c0.3-1.3,0.3-2.6-0.7-3.9l-1.3-1.6l2-0.3c12.7-1,25.1-2.9,26.7-4.2
		c1.3-1,1.3-2.6,1-3.6C300.4,206,300.4,206,300.4,206c-3.6-1.6-4.2-6.8-4.6-10.7c0-1,0-1.6-0.3-2.3c-1-7.5-3.3-10.7-7.2-17.3
		c-7.2-12.1-24.1-21.8-38.8-22.1c-0.7,0-1,0-1.6,0c-25.1,0-49.2,12.1-60.6,32.2c-6.2,10.4-7.5,21.2-5.5,34.8v1l-1,0.3
		c-3.9,1-5.5,3.6-5.2,5.5c0.3,1.3,1.3,2.3,3.3,2.3c0.7,0,1.3,0,1.6-0.3l1.6-0.3v1.6c-0.3,1.6,0,2.9,1,3.9c1.3,1.3,3.6,1.6,4.6,1.6
		c0.7,0,1.3,0,1.3,0s-3.6,6.8-0.7,11.1c1.6,2,3.9,2.9,6.5,3.3c1,0.3,5.5,1,7.2,0.3c-1.3,1-4.2,2.6-3.9,5.5c0,3.6,3.3,7.8,6.8,8.5
		c4.2,1,9.1,0.7,10.7,5.5c1.3,3.9-2.6,7.5-3.9,8.8l-6.8,6.5l-0.7-0.3c-4.6-1.3-7.5-2.6-8.8-3.6c-4.9-4.2-8.1-9.4-11.1-15
		c-5.2-9.1-9.4-16.6-21.8-16.9h-0.3c-10.7,0-40.4,5.2-64.8,10.1C66.9,266.1,49,271.3,46,273.3c1.6,1.3,7.2,4.9,25.1,4.9
		c12.7,0,29-0.7,48.2-4.2l0.3,1c-0.3,0-27.4,6.8-36.5,11.1c0,0,0,0.3,0.3,0.3c0.7,0.7,2.9,2,12.1,2.3c13.7,1,46.6-4.6,46.6-4.6
		l0.3,0.7c0,0-6.5,2.3-13,4.6c-9.8,3.9-12.4,5.9-13,6.5c2,0.3,7.2,1,14.3,1c11.4,0,23.8-0.7,34.2-4.6l0.3,0.7c0,0-3.3,2-6.5,4.2
		c-5.2,3.6-7.5,4.2-5.9,5.5c0.7,0.3,2.3,1,5.5,1c4.9,0,14.7,1.6,28.7-4.6l0.7-0.3v4.2l-17.9,14.3h-0.3c-13.7,0.7-18.9,5.9-22.8,11.4
		c-5.5,6.8-2.6,17.3-2.6,17.6l0.3,1l-30.3,19.9c-6.5-2.3-13-4.6-19.5-7.2c-4.9-1.6-10.1-4.6-15.3-6.2c-5.2-2-8.8-4.2-14.3-2.9
		c-2.3,0.7-9.4,2.3-7.8,6.2c0.7,1.6,2.9,2.6,4.2,3.6c2.3,1.6,4.6,3.6,6.8,5.2c4.6,3.6,9.4,7.5,14,11.4c7.5,6.2,15,12.7,22.5,19.2
		c22.1-0.7,47.9-10.1,47.9-10.1l1-0.3l0.3,1c0,0.3,2,8.1,0.3,13.7v0.3l-0.3,0.3c-16,2.6-53.1,25.4-55.7,26.7
		c-3.3,1.3-5.2,2.6-6.2,5.9c-1,3.6-3.9,9.1,2.3,7.8c2.3-0.3,4.6-0.7,7.2-1.3c6.8-1,81.7-14,87-16.6c6.5-17.3,6.5-38.4,6.5-38.8v-1.3
		h1.3c1.3,0,2.6,0.3,3.6,0.3c20.8,0,29.3-19.9,34.8-32.9c2.9-6.8,7.2-12.1,7.2-12.1l0,0c8.5,0.3,29,6.8,31.3,7.2
		c8.8,0,11.7-0.3,26.7-2.9l2.3-0.3l-16.9,30.6c-2.3,3.9-1,9.1,3.3,11.4l3.6,2c1.3,0.7,2.6,1,4.2,1c2.9,0,5.9-1.6,7.5-4.2l24.8-44.3
		l1,0.7c3.3,1.6,6.8-0.7,8.8-4.2l2.9-4.6c1-1.6,1.6-3.9,1.6-5.5c0-1.3-0.7-3.3-2.3-4.2l-1.3-0.7l16.3-29h0.7c0.3,0,0.7,0,1,0
		c8.8,0,16.9-4.6,21.2-12.4C381.5,272,377.6,259.3,377.2,259z M300.4,380.1c-1,2-3.3,3.3-5.5,3.3c-1,0-2-0.3-2.9-0.7
		c-2.9-1.6-3.9-5.5-2.3-8.5c1-2,3.3-3.3,5.5-3.3c1,0,2,0.3,2.9,0.7C301,373.6,302,377.2,300.4,380.1z"/>
</g>
<g id="Layer_2">
	<g>
		<path class="st2" d="M216.1,518.6c20.4-2.3,35.1-12.2,41.9-25.5c-31.3,7.5-63.9,7.5-95.2,0C169.2,506.6,192.3,521.5,216.1,518.6"
			/>
		<path class="st2" d="M258.2,457.2c-3.7,0.9-7.2,2.1-9.7,2.5c-9.4,1.9-19.1,3-28.7,3.5c-13.3,0.6-26.7-0.1-39.8-2.1
			c-6.1-0.9-37.6-11.2-34.3,1.6c2.6,10.3,21,12.9,31.5,15.3c16.8,3.8,37.7,2.8,54.8,1.2c10.1-0.9,27.2-1.6,35.6-6.7
			c5.1-3,12.2-12.8,4.5-16.2C268.8,454.9,263.3,455.9,258.2,457.2"/>
		<path class="st2" d="M210.4,76C106.3,76,21.9,157,21.9,256.9c0,99.9,84.4,180.9,188.6,180.9c104.1,0,188.6-81,188.6-180.9
			C399,157,314.6,76,210.4,76 M346.4,242.1c-0.3,0-0.5,0-0.8,0l-0.6,0l-13.4,27.5l1.2,0.6c1.8,0.9,2.3,2.6,2.4,3.8
			c0.2,1.6-0.2,3.5-1.1,5.2l-2.3,4.4c-1.7,3.1-4.9,5.7-7.9,4.2l-0.9-0.4L302.6,329c-1.2,2.5-3.7,4.1-6.5,4.3
			c-1.3,0.1-2.6-0.2-3.8-0.8l-3.3-1.6c-3.8-1.9-5.4-6.5-3.5-10.3l13.8-28.8l-2.1,0.5c-13.5,3.3-16.2,3.6-24.2,4.1
			c-1.9-0.4-21-5.3-28.8-5h0c0,0-3.7,5.1-5.9,11.4c-4.4,12.2-11.1,30.6-30.2,31.7c-1.1,0.1-2.2,0.1-3.3,0l-1.1-0.1l0,1.1
			c0,0.2,1.3,19.6-3.9,35.6c-4.7,2.7-72.3,18.5-78.5,19.9c-2.1,0.5-4.2,1-6.4,1.4c-5.6,1.3-3.2-3.8-2.5-7.1c0.7-3.2,2.4-4.2,5.2-5.7
			c2.3-1.2,35-23.9,49.4-27.2l0.4-0.2l0.1-0.4c1.3-5.4-0.8-12.3-0.9-12.6l-0.4-1l-1,0.4c-0.2,0.1-23.1,10.1-43.3,11.9
			c-7.1-5.5-14.3-10.9-21.5-16.2c-4.4-3.2-8.8-6.4-13.3-9.5c-2.1-1.5-4.3-3-6.5-4.4c-1.3-0.9-3.3-1.5-4-3c-1.6-3.3,4.8-5.3,6.8-6
			c4.9-1.6,8.6,0.4,13.3,1.9c4.6,1.4,9.6,3.6,14.2,5c6.1,1.8,12.1,3.6,18.2,5.4l26.7-19.8l-0.3-0.7c0-0.1-3.1-9.5,1.5-16.1
			c3.5-5,7.8-10.2,20.3-11.5l0.3,0l15.5-14l-0.1-3.8l-0.7,0.3c-12.6,6.5-21.7,5.6-26,5.8c-3.1,0.2-4.7-0.3-5.2-0.6
			c-1.7-0.8,0.4-1.7,5-5.3c2.8-2.2,5.7-4.1,5.8-4.1l-0.5-0.6c-9.4,4.1-20.4,5.4-30.9,6c-6.5,0.4-11.3,0-13.1-0.3
			c0.6-0.7,2.8-2.7,11.6-6.7c5.9-2.7,11.7-4.9,11.8-5l-0.4-0.7c0,0-29.5,6.8-42.1,6.7c-8.4-0.1-10.5-1-11.1-1.6
			c-0.1-0.1-0.1-0.2-0.2-0.3c8-4.4,32.4-11.9,32.6-12l-0.3-0.8c-17.3,4.3-32.1,5.7-43.6,6.3c-16.2,0.9-21.7-2.1-23.1-3.2
			c2.8-2.1,18.9-7.7,46.4-15c22.2-5.9,48.9-12.1,58.7-12.7l0.3,0c11.2-0.5,15.6,6.3,20.8,14.2c3.1,4.7,6.2,9.5,11,13
			c1.3,1,4.1,1.9,8.3,2.8l0.6,0.1l5.8-6.4c1.2-1.2,4.5-4.6,3.1-8.1c-1.7-4.5-6.3-3.8-10.1-4.5c-3.3-0.6-6.4-4.1-6.6-7.5
			c-0.2-2.9,2.1-4.5,3.4-5.4c-1.6,0.7-5.8,0.1-6.7-0.1c-2.2-0.3-4.5-1-6-2.8c-3-3.7,0.1-10.1,0.1-10.1c0,0-0.5,0.1-1.1,0.1
			c-1.1,0.1-3.1,0-4.3-1.2c-0.8-0.8-1.1-2-1.1-3.5l0.1-1.4l-1.3,0.4c-0.6,0.2-1.1,0.3-1.6,0.3c-1.6,0.1-2.8-0.6-3-1.9
			c-0.3-1.8,1.1-4.2,4.6-5.4l0.8-0.3l-0.2-0.9c-2.6-12.2-1.9-22.1,3.1-32c9.6-18.9,30.8-31.2,53.7-32.5c0.4,0,0.9-0.1,1.4-0.1
			c13.3-0.5,29.3,7.5,36.5,18.1c3.9,5.8,6,8.7,7.4,15.4c0.1,0.6,0.2,1.4,0.3,2.2c0.5,3.5,1.1,8.2,4.6,9.6c0,0,0,0,23.2,8.1
			c0.2,0.8,0.4,2.5-0.8,3.3c-1.5,1.1-12.5,3.5-24.2,5.2l-1.8,0.2l1.1,1.4c0.9,1.1,1.2,2.2,0.8,3.5c-0.9,3.1-5.3,6.1-9.3,7.4
			l-0.6,0.2l-0.1,0.6c-0.4,2.8-0.4,2.4,0.3,3.3c1.2,1.7,2.2,2.4,4.5,3.8c1.4,0.8,3.3,2,3.7,2.6c-0.5,3.3-13.7,31.3-23.4,31.8
			c-0.2,0-0.4,0-0.6,0c-3.6-0.3-6.6-0.4-9-0.2c-3.2,0.2-4.2,0.7-4.5,0.8l-0.3,0.1l-0.1,0.3c-0.7,1.4-2.7,6.2-0.8,7.9
			c1.5,1.3,21.1,19.8,21.3,20l0.3,0.3l0.4,0c0.2,0,12.7,1.3,37.3,4.1l0.7,0.1l0.3-0.6c5.5-11.3,9.9-20.4,10.7-21.9l7.2-14.7
			l-0.4-0.5c-5-6.7-5.9-15.4-2.3-22.8c3.7-7.6,15.4-11.2,15.5-11.2c0.3-0.1,0.5-0.1,0.8-0.1c0.3,0,0.6,0.1,0.6,0.1
			c0.1,0.1,0.1,0.6-0.3,1.3l-5.2,10.6c-0.6,1.3-0.7,2.7-0.2,4.1c0.5,1.3,1.4,2.4,2.7,3l11,5.4c0.8,0.4,1.7,0.6,2.6,0.5
			c1.9-0.1,3.6-1.3,4.5-3l5.2-10.7c0.4-0.8,0.8-1,0.9-1c0.1,0,0.5,0.3,0.8,1.1c0,0.1,4.4,11.6,0.8,19.1
			C361.5,236.9,354.4,241.6,346.4,242.1"/>
	</g>
</g>
</svg>
