<?xml version="1.0" encoding="utf-8"?>
<!-- Generator: Adobe Illustrator 16.0.0, SVG Export Plug-In . SVG Version: 6.00 Build 0)  -->
<!DOCTYPE svg PUBLIC "-//W3C//DTD SVG 1.1//EN" "http://www.w3.org/Graphics/SVG/1.1/DTD/svg11.dtd">
<svg version="1.1" id="圖層_1" xmlns="http://www.w3.org/2000/svg" xmlns:xlink="http://www.w3.org/1999/xlink" x="0px" y="0px"
	 width="56.693px" height="56.693px" viewBox="0 0 56.693 56.693" enable-background="new 0 0 56.693 56.693" xml:space="preserve">
<path fill-rule="evenodd" clip-rule="evenodd" fill="#B2EBF2" d="M28.346,11.757c9.162,0,16.59,7.428,16.59,16.59
	s-7.428,16.59-16.59,16.59c-9.163,0-16.59-7.428-16.59-16.59S19.184,11.757,28.346,11.757z"/>
<g>
	<path fill="#B2EBF2" d="M28.346,49.979c-11.928,0-21.633-9.704-21.633-21.633c0-11.929,9.705-21.633,21.633-21.633
		c11.929,0,21.633,9.704,21.633,21.633C49.979,40.275,40.275,49.979,28.346,49.979z M28.346,8.837
		c-10.757,0-19.51,8.752-19.51,19.51c0,10.758,8.752,19.51,19.51,19.51c10.758,0,19.51-8.752,19.51-19.51
		C47.856,17.589,39.104,8.837,28.346,8.837z"/>
</g>
<g>
	<g>
		<path fill="#0097A7" d="M9.116,33.983l7.185,2.162l-2.042,7.311l3.33-1.858l1.692-7.116l-6.835-2.356L9.116,33.983z
			 M33.971,16.901l5.067,4.224L23.065,30.28l-6.077-0.69l-2.568,1.434l6.937,2.3l-1.793,7.173l2.568-1.434l2.674-5.575l15.976-9.156
			l0.809,6.602l5.988-12.486L33.971,16.901z"/>
	</g>
</g>
</svg>
