<?xml version="1.0" encoding="utf-8"?>
<!-- Generator: Adobe Illustrator 16.0.0, SVG Export Plug-In . SVG Version: 6.00 Build 0)  -->
<!DOCTYPE svg PUBLIC "-//W3C//DTD SVG 1.1//EN" "http://www.w3.org/Graphics/SVG/1.1/DTD/svg11.dtd">
<svg version="1.1" id="圖層_1" xmlns="http://www.w3.org/2000/svg" xmlns:xlink="http://www.w3.org/1999/xlink" x="0px" y="0px"
	 width="110px" height="80px" viewBox="0 7 110 80" enable-background="new 0 7 110 80" xml:space="preserve">
<rect y="7" fill="none" width="110" height="80"/>
<g>
	<g>
		<rect x="15.481" y="42.366" fill="#FFFFFF" width="2.869" height="10.556"/>
		<path fill="#FFFFFF" d="M16.956,40.83c0.419,0,0.806-0.158,1.151-0.471c0.354-0.321,0.533-0.738,0.533-1.24
			c0-0.5-0.178-0.92-0.53-1.25c-0.345-0.323-0.733-0.487-1.155-0.487c-0.439,0-0.837,0.165-1.181,0.487
			c-0.352,0.33-0.53,0.75-0.53,1.25c0,0.503,0.18,0.92,0.533,1.24C16.122,40.67,16.518,40.83,16.956,40.83z"/>
	</g>
	<g>
		<rect x="35.229" y="42.366" fill="#FFFFFF" width="2.869" height="10.556"/>
		<path fill="#FFFFFF" d="M36.703,40.83c0.419,0,0.806-0.158,1.151-0.471c0.354-0.321,0.533-0.738,0.533-1.24
			c0-0.5-0.178-0.92-0.53-1.25c-0.344-0.323-0.733-0.487-1.155-0.487c-0.439,0-0.837,0.165-1.182,0.487
			c-0.351,0.33-0.529,0.75-0.529,1.25c0,0.501,0.179,0.92,0.533,1.24C35.869,40.671,36.265,40.83,36.703,40.83z"/>
	</g>
	<path fill="#FFFFFF" d="M29.073,36.458v6.379c-0.716-0.396-1.517-0.634-2.338-0.691l-0.059-0.004
		c-0.102-0.007-0.204-0.011-0.294-0.011l-0.061-0.001c-0.079,0-0.158,0.001-0.25,0.006l-0.026,0.001
		c-0.047,0.002-0.094,0.005-0.141,0.01l-0.07,0.004c-0.024,0.001-0.048,0.003-0.072,0.006l-0.03,0.003
		c-0.562,0.056-1.104,0.192-1.611,0.405c-0.035,0.015-0.068,0.031-0.102,0.047l-0.035,0.017c-0.071,0.032-0.143,0.066-0.208,0.099
		c-0.109,0.054-0.215,0.112-0.322,0.173l-0.086,0.052c-0.394,0.236-0.744,0.507-1.04,0.803c-0.033,0.033-0.063,0.068-0.094,0.102
		l-0.027,0.031c-0.046,0.049-0.09,0.099-0.138,0.151c-0.053,0.062-0.106,0.123-0.155,0.185c-0.088,0.109-0.173,0.221-0.253,0.335
		l-0.02,0.032c-0.188,0.276-0.351,0.57-0.483,0.872l-0.02,0.042c-0.289,0.663-0.436,1.375-0.437,2.12v0.019
		c0,1.263,0.424,2.45,1.224,3.434c0.038,0.047,0.077,0.092,0.131,0.156c0.05,0.056,0.1,0.112,0.149,0.163l0.03,0.034
		c0.03,0.034,0.061,0.069,0.093,0.101c0.299,0.3,0.653,0.572,1.06,0.816l0.06,0.035c0.11,0.064,0.224,0.126,0.339,0.183
		c0.064,0.032,0.129,0.063,0.188,0.09l0.035,0.016c0.037,0.019,0.074,0.037,0.112,0.053c0.509,0.214,1.055,0.35,1.622,0.406
		l0.034,0.003c0.023,0.002,0.047,0.003,0.07,0.005l0.066,0.005c0.042,0.003,0.084,0.007,0.127,0.009l0.027,0.001
		c0.083,0.003,0.166,0.006,0.249,0.006h0.018c0.022,0,0.042-0.001,0.072-0.002c0.075-0.001,0.15-0.004,0.22-0.007
		c0.447-0.02,0.855-0.084,1.214-0.19c0.431-0.128,0.802-0.273,1.101-0.433c0.096-0.051,0.182-0.101,0.256-0.146
		c0.046-0.026,0.092-0.055,0.138-0.083v0.624h2.605V36.458H29.073z M29.073,47.631c0,0.774-0.248,1.407-0.759,1.934
		c-0.507,0.523-1.155,0.777-1.979,0.777c-0.824,0-1.472-0.254-1.979-0.777c-0.511-0.526-0.759-1.159-0.759-1.934
		c0-0.791,0.247-1.422,0.755-1.93c0.508-0.509,1.157-0.756,1.982-0.756s1.474,0.247,1.982,0.756
		C28.826,46.208,29.073,46.84,29.073,47.631z"/>
	<path fill="#FFFFFF" d="M97.103,47.534c-0.299-0.237-0.629-0.439-0.982-0.598c-0.374-0.169-0.728-0.32-1.053-0.45
		c-0.341-0.135-0.646-0.281-0.909-0.433c-0.413-0.239-0.545-0.555-0.581-0.78c-0.067-0.522,0.139-0.837,0.321-1.012
		c0.251-0.238,0.633-0.359,1.132-0.359c0.514,0,0.938,0.104,1.266,0.304c0.123,0.077,0.227,0.146,0.316,0.208
		c0.151-0.211,0.31-0.419,0.468-0.618c0.165-0.207,0.329-0.421,0.485-0.642c-0.139-0.123-0.294-0.232-0.459-0.323
		c-0.257-0.141-0.521-0.258-0.786-0.347c-0.262-0.087-0.523-0.149-0.78-0.185c-0.258-0.036-0.478-0.054-0.65-0.054
		c-0.29,0-0.624,0.054-0.991,0.158c-0.358,0.102-0.696,0.271-1.004,0.502c-0.304,0.228-0.563,0.524-0.767,0.883
		c-0.196,0.346-0.297,0.789-0.297,1.316c0,0.603,0.101,1.085,0.297,1.431c0.201,0.352,0.456,0.624,0.756,0.812
		c0.327,0.202,0.679,0.363,1.05,0.478c0.402,0.124,0.777,0.251,1.111,0.375c0.365,0.136,0.671,0.309,0.908,0.513
		c0.287,0.248,0.42,0.6,0.394,1.044c-0.022,0.345-0.123,0.611-0.297,0.799c-0.154,0.165-0.328,0.291-0.521,0.374
		c-0.183,0.08-0.356,0.128-0.515,0.14c-0.139,0.012-0.218,0.016-0.239,0.016c-0.504,0-0.908-0.069-1.237-0.211
		c-0.241-0.104-0.529-0.259-0.857-0.458c-0.176,0.21-0.352,0.425-0.521,0.644c-0.167,0.215-0.343,0.434-0.525,0.65
		c0.317,0.284,0.722,0.518,1.205,0.695c0.606,0.223,1.248,0.335,1.907,0.335c0.7,0,1.273-0.111,1.698-0.332
		c0.428-0.223,0.763-0.496,0.997-0.814c0.24-0.326,0.409-0.664,0.503-1.003c0.097-0.35,0.146-0.646,0.146-0.881
		c0-0.53-0.093-0.971-0.276-1.311C97.629,48.053,97.39,47.761,97.103,47.534z"/>
	<path fill="#FFFFFF" d="M43.833,57.248v-5.886c0.005,0.005,0.011,0.008,0.018,0.013c0.868,0.784,2.001,1.292,3.254,1.38
		c0.017,0.002,0.034,0.002,0.05,0.004c0.097,0.006,0.195,0.01,0.293,0.011c0.011,0,0.021,0.001,0.033,0.001
		c0.002,0,0.004-0.001,0.007-0.001c0.002,0,0.004,0.001,0.007,0.001c0.085,0,0.17-0.003,0.254-0.007c0.004,0,0.007,0,0.011,0
		c0.058-0.003,0.115-0.007,0.172-0.013c0.037-0.003,0.074-0.004,0.111-0.008c0.006,0,0.013-0.002,0.019-0.002
		c0.538-0.055,1.054-0.184,1.539-0.387c0.045-0.019,0.087-0.042,0.131-0.063c0.069-0.03,0.137-0.063,0.204-0.097
		c0.104-0.052,0.205-0.106,0.305-0.163c0.028-0.018,0.058-0.034,0.086-0.052c0.363-0.218,0.697-0.472,0.99-0.764
		c0.042-0.042,0.078-0.087,0.119-0.13c0.043-0.047,0.086-0.094,0.128-0.142c0.051-0.06,0.102-0.118,0.15-0.179
		c0.084-0.105,0.166-0.212,0.243-0.323c0.007-0.009,0.012-0.019,0.019-0.028c0.181-0.267,0.337-0.55,0.467-0.847
		c0.005-0.01,0.01-0.02,0.015-0.028c0.274-0.629,0.414-1.308,0.414-2.018c0-0.003,0-0.004,0-0.004c0-0.006,0-0.008,0-0.009
		c0-1.24-0.438-2.377-1.169-3.275c-0.04-0.049-0.081-0.097-0.123-0.145c-0.047-0.054-0.096-0.108-0.146-0.161
		c-0.04-0.042-0.076-0.088-0.117-0.128c-0.297-0.297-0.634-0.551-1.001-0.771c-0.022-0.013-0.043-0.026-0.065-0.04
		c-0.106-0.062-0.215-0.12-0.327-0.176c-0.061-0.03-0.122-0.059-0.184-0.086c-0.047-0.021-0.091-0.045-0.139-0.067
		c-0.489-0.204-1.008-0.334-1.55-0.387c-0.002,0-0.004,0-0.007,0c-0.04-0.005-0.081-0.007-0.121-0.009
		c-0.055-0.004-0.108-0.01-0.163-0.012c-0.007,0-0.015,0-0.022,0c-0.081-0.005-0.162-0.007-0.244-0.007c-0.002,0-0.005,0-0.007,0
		c-0.002,0-0.005,0-0.007,0c-0.023,0-0.045,0.001-0.068,0.001c-0.073,0.002-0.146,0.004-0.218,0.007
		c-0.42,0.019-0.805,0.076-1.143,0.177c-0.422,0.125-0.78,0.266-1.063,0.416c-0.091,0.049-0.172,0.097-0.25,0.143
		c-0.442,0.259-0.843,0.579-1.19,0.947v-1.435H42.12v14.746H43.833z M44.851,50.096c-0.675-0.676-1.018-1.542-1.018-2.573
		c0-1.012,0.341-1.875,1.014-2.57c0.676-0.697,1.562-1.05,2.634-1.05c1.071,0,1.958,0.354,2.633,1.05
		c0.673,0.693,1.015,1.558,1.015,2.57c0,1.032-0.343,1.897-1.018,2.573c-0.676,0.675-1.561,1.018-2.629,1.018
		S45.527,50.771,44.851,50.096z"/>
	<path fill="#FFFFFF" d="M80.726,57.248v-5.886c0.007,0.005,0.012,0.008,0.02,0.013c0.868,0.784,2.002,1.292,3.253,1.38
		c0.017,0.002,0.034,0.002,0.05,0.004c0.099,0.006,0.195,0.01,0.293,0.011c0.013,0,0.021,0.001,0.034,0.001
		c0.001,0,0.003-0.001,0.007-0.001c0.002,0,0.003,0.001,0.007,0.001c0.084,0,0.171-0.003,0.253-0.007c0.006,0,0.009,0,0.013,0
		c0.056-0.003,0.114-0.007,0.172-0.013c0.037-0.003,0.074-0.004,0.109-0.008c0.007,0,0.014-0.002,0.02-0.002
		c0.537-0.055,1.055-0.184,1.539-0.387c0.046-0.019,0.087-0.042,0.131-0.063c0.068-0.03,0.137-0.063,0.203-0.097
		c0.104-0.052,0.206-0.106,0.305-0.163c0.029-0.018,0.058-0.034,0.088-0.052c0.362-0.218,0.696-0.472,0.989-0.764
		c0.042-0.042,0.077-0.087,0.118-0.13c0.044-0.047,0.086-0.094,0.128-0.142c0.053-0.06,0.103-0.118,0.151-0.179
		c0.084-0.105,0.165-0.212,0.242-0.323c0.008-0.009,0.013-0.019,0.018-0.028c0.182-0.267,0.338-0.55,0.468-0.847
		c0.006-0.01,0.011-0.02,0.015-0.028c0.273-0.629,0.414-1.308,0.414-2.018c0-0.003-0.001-0.004-0.001-0.004
		c0-0.006,0.001-0.008,0.001-0.009c0-1.24-0.438-2.377-1.169-3.275c-0.04-0.049-0.08-0.097-0.123-0.145
		c-0.047-0.054-0.095-0.108-0.146-0.161c-0.039-0.042-0.075-0.088-0.116-0.128c-0.297-0.297-0.635-0.551-1.002-0.771
		c-0.021-0.013-0.042-0.026-0.063-0.04c-0.106-0.062-0.216-0.12-0.328-0.176c-0.06-0.03-0.121-0.059-0.183-0.086
		c-0.048-0.021-0.092-0.045-0.14-0.067c-0.488-0.204-1.009-0.334-1.55-0.387c-0.004,0-0.006,0-0.007,0
		c-0.041-0.005-0.081-0.007-0.122-0.009c-0.054-0.004-0.106-0.01-0.161-0.012c-0.007,0-0.015,0-0.023,0
		c-0.08-0.005-0.161-0.007-0.242-0.007c-0.004,0-0.005,0-0.007,0c-0.004,0-0.006,0-0.007,0c-0.023,0-0.046,0.001-0.069,0.001
		c-0.071,0.002-0.146,0.004-0.218,0.007c-0.418,0.019-0.803,0.076-1.143,0.177c-0.422,0.125-0.778,0.266-1.063,0.416
		c-0.09,0.049-0.172,0.097-0.249,0.143c-0.443,0.259-0.843,0.579-1.19,0.947v-1.435h-1.429v14.746H80.726z M81.745,50.096
		c-0.677-0.676-1.02-1.542-1.02-2.573c0-1.012,0.343-1.875,1.016-2.57c0.675-0.697,1.562-1.05,2.634-1.05
		c1.07,0,1.956,0.354,2.633,1.05c0.673,0.693,1.015,1.558,1.015,2.57c0,1.032-0.343,1.897-1.019,2.573
		c-0.677,0.675-1.561,1.018-2.629,1.018C83.306,51.113,82.42,50.771,81.745,50.096z"/>
	<path fill="#FFFFFF" d="M66.068,59.922c1.16-0.128,1.995-0.695,2.384-1.452c-1.778,0.428-3.639,0.428-5.417,0
		C63.398,59.236,64.714,60.087,66.068,59.922z"/>
	<path fill="#FFFFFF" d="M68.459,56.429c-0.209,0.054-0.409,0.116-0.55,0.145c-0.536,0.107-1.085,0.174-1.635,0.199
		c-0.758,0.036-1.521-0.004-2.266-0.12c-0.345-0.053-2.14-0.64-1.953,0.09c0.149,0.587,1.195,0.734,1.791,0.867
		c0.958,0.215,2.143,0.162,3.12,0.069c0.577-0.053,1.547-0.093,2.028-0.378c0.289-0.173,0.694-0.728,0.257-0.923
		C69.064,56.295,68.753,56.353,68.459,56.429z"/>
	<path fill="#FFFFFF" d="M70.706,48.493c-0.05-0.024-0.105-0.035-0.16-0.032c-0.116,0.007-0.222,0.076-0.272,0.182
		c-0.077,0.159-0.011,0.353,0.149,0.431c0.049,0.024,0.105,0.036,0.16,0.032c0.116-0.006,0.22-0.076,0.271-0.182
		C70.933,48.765,70.866,48.571,70.706,48.493z"/>
	<path fill="#FFFFFF" d="M65.743,34.734c-5.925,0-10.729,4.609-10.729,10.295c0,5.686,4.805,10.294,10.729,10.294
		c5.926,0,10.73-4.608,10.73-10.294C76.474,39.343,71.669,34.734,65.743,34.734z M73.479,44.186c-0.014,0-0.029,0-0.046,0
		l-0.035,0.001l-0.761,1.561l0.07,0.037c0.101,0.054,0.13,0.147,0.139,0.215c0.011,0.092-0.012,0.2-0.063,0.295l-0.133,0.249
		c-0.096,0.178-0.281,0.322-0.452,0.241l-0.051-0.024l-1.158,2.371c-0.069,0.141-0.211,0.233-0.369,0.243
		c-0.074,0.004-0.148-0.011-0.217-0.043l-0.185-0.091c-0.216-0.105-0.308-0.367-0.202-0.584l0.789-1.64l-0.117,0.028
		c-0.771,0.19-0.921,0.202-1.38,0.234c-0.109-0.021-1.192-0.303-1.639-0.287h-0.002c0,0-0.209,0.292-0.339,0.651
		c-0.251,0.694-0.633,1.744-1.718,1.807c-0.062,0.003-0.124,0.004-0.189,0.002l-0.062-0.004l0.004,0.062
		c0,0.012,0.071,1.114-0.222,2.025c-0.268,0.152-4.117,1.051-4.465,1.129c-0.121,0.027-0.241,0.056-0.362,0.082
		c-0.32,0.073-0.181-0.218-0.143-0.405c0.039-0.182,0.139-0.241,0.297-0.326c0.129-0.066,1.99-1.358,2.81-1.547l0.022-0.013
		l0.006-0.024c0.071-0.306-0.048-0.698-0.053-0.715l-0.021-0.058l-0.057,0.025c-0.012,0.006-1.314,0.575-2.461,0.677
		c-0.404-0.314-0.813-0.622-1.227-0.924c-0.25-0.185-0.503-0.365-0.76-0.543c-0.121-0.084-0.242-0.169-0.367-0.25
		c-0.072-0.049-0.187-0.085-0.227-0.17c-0.092-0.188,0.271-0.304,0.385-0.341c0.281-0.092,0.489,0.025,0.756,0.105
		c0.262,0.077,0.545,0.204,0.806,0.282c0.346,0.104,0.692,0.205,1.037,0.308l1.517-1.128l-0.014-0.041
		c-0.002-0.008-0.18-0.54,0.082-0.918c0.199-0.284,0.446-0.578,1.155-0.652l0.02-0.001l0.882-0.796l-0.005-0.217l-0.041,0.021
		c-0.713,0.373-1.231,0.316-1.479,0.33c-0.176,0.011-0.27-0.021-0.297-0.032c-0.096-0.048,0.024-0.096,0.281-0.299
		c0.159-0.125,0.326-0.234,0.328-0.235l-0.026-0.032c-0.532,0.233-1.158,0.308-1.76,0.342c-0.372,0.023-0.643-0.002-0.747-0.015
		c0.034-0.041,0.16-0.152,0.659-0.38c0.334-0.153,0.667-0.281,0.67-0.283l-0.022-0.04c0,0-1.681,0.386-2.396,0.381
		c-0.476-0.004-0.599-0.055-0.633-0.09c-0.005-0.005-0.009-0.011-0.01-0.016c0.457-0.25,1.84-0.679,1.854-0.683l-0.017-0.044
		c-0.982,0.244-1.828,0.323-2.481,0.359c-0.923,0.055-1.232-0.118-1.315-0.183c0.157-0.12,1.078-0.438,2.641-0.856
		c1.261-0.337,2.781-0.691,3.342-0.724l0.018-0.001c0.635-0.029,0.89,0.359,1.183,0.81c0.174,0.266,0.354,0.541,0.628,0.737
		c0.075,0.055,0.231,0.108,0.473,0.161l0.031,0.007l0.333-0.362c0.07-0.069,0.255-0.264,0.179-0.464
		c-0.097-0.257-0.356-0.215-0.573-0.256c-0.188-0.036-0.361-0.233-0.378-0.428c-0.012-0.162,0.122-0.258,0.192-0.306
		c-0.092,0.039-0.331,0.002-0.382-0.003c-0.127-0.016-0.257-0.055-0.341-0.158c-0.167-0.211,0.005-0.575,0.005-0.575
		s-0.026,0.005-0.063,0.007c-0.063,0.003-0.177,0-0.244-0.067c-0.046-0.044-0.064-0.112-0.062-0.2l0.004-0.079l-0.076,0.022
		c-0.031,0.011-0.063,0.016-0.093,0.018c-0.093,0.005-0.158-0.035-0.172-0.107c-0.02-0.102,0.064-0.239,0.262-0.308l0.046-0.018
		l-0.011-0.048c-0.147-0.693-0.107-1.258,0.176-1.82c0.545-1.078,1.754-1.774,3.057-1.85c0.024-0.001,0.053-0.003,0.077-0.004
		c0.756-0.028,1.668,0.424,2.078,1.029c0.225,0.33,0.345,0.494,0.424,0.875c0.007,0.034,0.014,0.078,0.019,0.123
		c0.026,0.197,0.065,0.468,0.264,0.545c0,0.002,0.002,0.002,1.32,0.461c0.011,0.044,0.021,0.139-0.042,0.189
		c-0.083,0.065-0.714,0.2-1.378,0.294l-0.101,0.015l0.065,0.077c0.051,0.063,0.066,0.126,0.046,0.197
		c-0.052,0.179-0.303,0.346-0.526,0.421l-0.033,0.012l-0.005,0.033c-0.021,0.16-0.02,0.137,0.018,0.187
		c0.07,0.095,0.125,0.138,0.257,0.217c0.079,0.048,0.188,0.113,0.212,0.147c-0.026,0.188-0.782,1.779-1.332,1.811
		c-0.013,0.001-0.024,0-0.037,0c-0.204-0.018-0.374-0.021-0.512-0.013c-0.181,0.01-0.24,0.039-0.255,0.047l-0.014,0.008
		l-0.009,0.016c-0.037,0.081-0.153,0.352-0.046,0.447c0.085,0.073,1.202,1.127,1.213,1.138l0.016,0.015l0.021,0.001
		c0.011,0,0.721,0.072,2.122,0.232l0.038,0.005l0.018-0.035c0.313-0.643,0.566-1.159,0.606-1.244l0.408-0.837l-0.021-0.028
		c-0.283-0.379-0.334-0.878-0.128-1.299c0.209-0.431,0.877-0.635,0.884-0.636c0.016-0.004,0.03-0.007,0.042-0.009
		c0.02,0,0.032,0.003,0.034,0.007c0.005,0.007,0.005,0.033-0.017,0.075l-0.293,0.605c-0.035,0.072-0.041,0.155-0.015,0.232
		c0.026,0.076,0.081,0.138,0.155,0.173l0.627,0.306c0.046,0.023,0.099,0.034,0.149,0.031c0.109-0.007,0.208-0.072,0.255-0.17
		l0.296-0.606c0.021-0.045,0.042-0.057,0.049-0.058c0.007,0,0.028,0.015,0.046,0.062c0.004,0.007,0.253,0.659,0.046,1.088
		C74.339,43.89,73.935,44.157,73.479,44.186z"/>
</g>
</svg>
