<?xml version="1.0" encoding="utf-8"?>
<!-- Generator: Adobe Illustrator 19.2.1, SVG Export Plug-In . SVG Version: 6.00 Build 0)  -->
<svg version="1.1" id="Layer_2" xmlns="http://www.w3.org/2000/svg" xmlns:xlink="http://www.w3.org/1999/xlink" x="0px" y="0px"
	 viewBox="0 0 130 42" style="enable-background:new 0 0 130 42;" xml:space="preserve">
<style type="text/css">
	.st0{fill:#FFFFFF;}
</style>
<g>
	<g>
		<rect x="0.3" y="14.7" class="st0" width="3.8" height="14"/>
		<path class="st0" d="M2.3,12.7c0.6,0,1.1-0.2,1.5-0.6c0.5-0.4,0.7-1,0.7-1.6c0-0.7-0.2-1.2-0.7-1.7c-0.5-0.5-1-0.7-1.5-0.7
			c-0.6,0-1.1,0.2-1.6,0.6C0.2,9.2,0,9.7,0,10.4c0,0.7,0.2,1.2,0.7,1.6C1.2,12.4,1.7,12.7,2.3,12.7z"/>
	</g>
	<g>
		<rect x="26.5" y="14.7" class="st0" width="3.8" height="14"/>
		<path class="st0" d="M28.5,12.7c0.6,0,1.1-0.2,1.5-0.6c0.5-0.4,0.7-1,0.7-1.6c0-0.7-0.2-1.2-0.7-1.7c-0.5-0.4-1-0.6-1.5-0.6
			c-0.6,0-1.1,0.2-1.6,0.6s-0.7,1-0.7,1.7s0.2,1.2,0.7,1.6C27.4,12.4,27.9,12.7,28.5,12.7z"/>
	</g>
	<path class="st0" d="M18.4,6.9v8.4c-1-0.5-2-0.8-3.1-0.9h-0.1c-0.1,0-0.3,0-0.4,0h-0.1c-0.1,0-0.2,0-0.3,0l0,0c-0.1,0-0.1,0-0.2,0
		h-0.1H14l0,0c-0.7,0.1-1.5,0.3-2.1,0.5c0,0-0.1,0-0.1,0.1l0,0c-0.1,0-0.2,0.1-0.3,0.1c-0.3,0.2-0.5,0.2-0.6,0.3l-0.1,0.1
		c-0.5,0.3-1,0.7-1.4,1.1l-0.1,0.1l0,0c-0.1,0.1-0.1,0.1-0.2,0.2C9,17,9,17.1,8.9,17.1c-0.1,0.1-0.2,0.3-0.3,0.4l0,0
		c-0.2,0.4-0.5,0.8-0.6,1.2v0.1c-0.4,0.9-0.6,1.8-0.6,2.8l0,0c0,1.7,0.6,3.3,1.6,4.6c-0.1,0.1,0,0.2,0,0.3c0.1,0.1,0.1,0.1,0.2,0.2
		l0,0l0.1,0.1c0.4,0.4,0.9,0.8,1.4,1.1h0.1c0.1,0.1,0.3,0.2,0.5,0.2c0.1,0,0.2,0.1,0.2,0.1l0,0c0,0,0.1,0,0.1,0.1
		c0.7,0.3,1.4,0.5,2.2,0.5l0,0h0.1H14c0.1,0,0.1,0,0.2,0l0,0c0.1,0,0.2,0,0.3,0l0,0h0.1c0.1,0,0.2,0,0.3,0c0.6,0,1.1-0.1,1.6-0.3
		c0.6-0.2,1.1-0.4,1.5-0.6c0.1-0.1,0.2-0.1,0.3-0.2c0.1,0,0.1-0.1,0.2-0.1v0.8H22V6.9H18.4z M18.4,21.7c0,1-0.3,1.9-1,2.6
		s-1.5,1-2.6,1s-2-0.3-2.6-1c-0.7-0.7-1-1.5-1-2.6s0.3-1.9,1-2.6s1.5-1,2.6-1s2,0.3,2.6,1S18.4,20.6,18.4,21.7z"/>
	<path class="st0" d="M108.7,21.6c-0.4-0.3-0.8-0.6-1.3-0.8c-0.5-0.2-1-0.4-1.4-0.6c-0.5-0.2-0.9-0.4-1.2-0.6
		c-0.5-0.3-0.7-0.7-0.8-1c-0.1-0.7,0.2-1.1,0.4-1.3c0.3-0.3,0.8-0.5,1.5-0.5s1.2,0.1,1.7,0.4c0.2,0.1,0.3,0.2,0.4,0.3
		c0.2-0.3,0.4-0.6,0.6-0.8c0.2-0.3,0.4-0.6,0.6-0.9c-0.2-0.2-0.4-0.3-0.6-0.4c-0.3-0.2-0.7-0.3-1-0.5c-0.3-0.1-0.7-0.2-1-0.2
		s-0.6-0.1-0.9-0.1c-0.4,0-0.8,0.1-1.3,0.2c-0.5,0.1-0.9,0.4-1.3,0.7s-0.7,0.7-1,1.2s-0.4,1-0.4,1.7c0,0.8,0.1,1.4,0.4,1.9
		s0.6,0.8,1,1.1c0.4,0.3,0.9,0.5,1.4,0.6c0.5,0.2,1,0.3,1.5,0.5s0.9,0.4,1.2,0.7c0.4,0.3,0.6,0.8,0.5,1.4c0,0.5-0.2,0.8-0.4,1.1
		c-0.2,0.2-0.4,0.4-0.7,0.5c-0.2,0.1-0.5,0.2-0.7,0.2s-0.3,0-0.3,0c-0.7,0-1.2-0.1-1.6-0.3c-0.3-0.1-0.7-0.3-1.1-0.6
		c-0.2,0.3-0.5,0.6-0.7,0.9s-0.5,0.6-0.7,0.9c0.4,0.4,1,0.7,1.6,0.9c0.8,0.3,1.7,0.4,2.5,0.4c0.9,0,1.7-0.1,2.3-0.4
		c0.6-0.3,1-0.7,1.3-1.1s0.5-0.9,0.7-1.3c0.1-0.5,0.2-0.9,0.2-1.2c0-0.7-0.1-1.3-0.4-1.7C109.4,22.2,109.1,21.9,108.7,21.6z"/>
	<path class="st0" d="M38,34.5v-7.8l0,0c1.2,1,2.7,1.7,4.3,1.8c0,0,0,0,0.1,0s0.3,0,0.4,0l0,0l0,0l0,0c0.1,0,0.2,0,0.3,0l0,0
		c0.1,0,0.2,0,0.2,0h0.1l0,0c0.7-0.1,1.4-0.2,2-0.5c0.1,0,0.1-0.1,0.2-0.1c0.1,0,0.2-0.1,0.3-0.1c0.1-0.1,0.3-0.1,0.4-0.2
		c0,0,0.1,0,0.1-0.1c0.5-0.3,0.9-0.6,1.3-1c0.3-0.1,0.3-0.2,0.4-0.2c0.1-0.1,0.1-0.1,0.2-0.2c0.1-0.1,0.1-0.2,0.2-0.2
		c0.1-0.1,0.2-0.3,0.3-0.4l0,0c0.2-0.4,0.4-0.7,0.6-1.1l0,0c0.4-0.8,0.5-1.7,0.5-2.7l0,0l0,0c0-1.6-0.6-3.2-1.6-4.3
		c-0.1-0.1-0.1-0.1-0.2-0.2C48,17.1,48,17.1,47.9,17c-0.1-0.1-0.1-0.1-0.2-0.2c-0.4-0.4-0.8-0.7-1.3-1c0,0-0.1,0-0.1-0.1
		c-0.1-0.1-0.3-0.2-0.4-0.2c-0.1,0-0.2-0.1-0.2-0.1c-0.1,0-0.1-0.1-0.2-0.1c-0.6-0.3-1.3-0.4-2.1-0.5l0,0c-0.1,0-0.1,0-0.2,0
		c-0.1,0-0.1,0-0.2,0l0,0c-0.1,0-0.2,0-0.3,0l0,0l0,0h-0.1c-0.1,0-0.2,0-0.3,0c-0.6,0-1.1,0.1-1.5,0.2c-0.6,0.2-1,0.4-1.4,0.6
		c-0.1,0.1-0.2,0.1-0.3,0.2c-0.6,0.3-1.1,0.8-1.6,1.3v-1.9h-1.9v19.6L38,34.5L38,34.5z M39.3,25c-0.9-0.9-1.4-2-1.4-3.4
		c0-1.3,0.5-2.5,1.3-3.4c0.9-0.9,2.1-1.4,3.5-1.4s2.6,0.5,3.5,1.4s1.3,2.1,1.3,3.4c0,1.4-0.5,2.5-1.4,3.4s-2.1,1.4-3.5,1.4
		S40.2,25.9,39.3,25z"/>
	<path class="st0" d="M86.9,34.5v-7.8l0,0c1.2,1,2.7,1.7,4.3,1.8c0,0,0,0,0.1,0s0.3,0,0.4,0l0,0l0,0l0,0c0.1,0,0.2,0,0.3,0l0,0
		c0.1,0,0.2,0,0.2,0h0.1l0,0c0.7-0.1,1.4-0.2,2-0.5c0.1,0,0.1-0.1,0.2-0.1s0.2-0.1,0.3-0.1c0.1-0.1,0.3-0.1,0.4-0.2
		c0,0,0.1,0,0.1-0.1c0.5-0.3,0.9-0.6,1.3-1c0.3-0.1,0.4-0.2,0.4-0.2c0.1-0.1,0.1-0.1,0.2-0.2s0.1-0.2,0.2-0.2
		c0.1-0.1,0.2-0.3,0.3-0.4l0,0c0.2-0.4,0.4-0.7,0.6-1.1l0,0c0.4-0.8,0.5-1.7,0.5-2.7l0,0l0,0c0-1.6-0.6-3.2-1.6-4.3
		c-0.1-0.1-0.1-0.1-0.2-0.2s-0.1-0.1-0.2-0.2s-0.1-0.1-0.2-0.2c-0.4-0.4-0.8-0.7-1.3-1c0,0-0.1,0-0.1-0.1c-0.1-0.1-0.3-0.2-0.4-0.2
		s-0.2-0.1-0.2-0.1c-0.1,0-0.1-0.1-0.2-0.1c-0.6-0.3-1.3-0.4-2.1-0.5l0,0c-0.1,0-0.1,0-0.2,0s-0.1,0-0.2,0l0,0c-0.1,0-0.2,0-0.3,0
		l0,0l0,0h-0.1c-0.1,0-0.2,0-0.3,0c-0.6,0-1.1,0.1-1.5,0.2c-0.6,0.2-1,0.4-1.4,0.6c-0.1,0.1-0.2,0.1-0.3,0.2
		c-0.6,0.3-1.1,0.8-1.6,1.3v-1.9h-1.9v19.6L86.9,34.5L86.9,34.5z M88.3,25c-0.9-0.9-1.4-2-1.4-3.4c0-1.3,0.5-2.5,1.3-3.4
		c0.9-0.9,2.1-1.4,3.5-1.4s2.6,0.5,3.5,1.4s1.3,2.1,1.3,3.4c0,1.4-0.5,2.5-1.4,3.4s-2.1,1.4-3.5,1.4C90.4,26.3,89.2,25.9,88.3,25z"
		/>
	<path class="st0" d="M67.5,38c1.5-0.2,2.6-0.9,3.2-1.9c-2.4,0.6-4.8,0.6-7.2,0C63.9,37.1,65.7,38.2,67.5,38z"/>
	<path class="st0" d="M70.7,33.4c-0.3,0.1-0.5,0.2-0.7,0.2c-0.7,0.1-1.4,0.2-2.2,0.3c-1,0-2,0-3-0.2c-0.5-0.1-2.8-0.8-2.6,0.1
		c0.2,0.8,1.6,1,2.4,1.2c1.3,0.3,2.8,0.2,4.1,0.1c0.8-0.1,2.1-0.1,2.7-0.5c0.4-0.2,0.9-1,0.3-1.2C71.5,33.2,71,33.3,70.7,33.4z"/>
	<path class="st0" d="M73.6,22.8c-0.1,0-0.1,0-0.2,0c-0.2,0-0.3,0.1-0.4,0.2c-0.1,0.2,0,0.5,0.2,0.6c0.1,0,0.1,0,0.2,0
		c0.2,0,0.3-0.1,0.4-0.2C73.9,23.2,73.9,22.9,73.6,22.8z"/>
	<path class="st0" d="M67,4.6c-7.9,0-14.2,6.1-14.2,13.7S59.2,31.9,67,31.9c7.9,0,14.2-6.1,14.2-13.7C81.3,10.7,74.9,4.6,67,4.6z
		 M77.3,17.1L77.3,17.1L77.3,17.1l-1.1,2.1h0.1c0.1,0.1,0.2,0.2,0.2,0.3c0,0.1,0,0.3-0.1,0.4l-0.2,0.3c-0.1,0.2-0.4,0.4-0.6,0.3
		h-0.1L74,23.7c-0.1,0.2-0.3,0.3-0.5,0.3c-0.1,0-0.2,0-0.3-0.1L73,23.8c-0.3-0.1-0.4-0.5-0.3-0.8l1-2.2h-0.2c-1,0.3-1.2,0.3-1.8,0.3
		c-0.1,0-1.6-0.4-2.2-0.4l0,0c0,0-0.3,0.4-0.5,0.9c-0.3,0.9-0.8,2.3-2.3,2.4c-0.1,0-0.2,0-0.3,0h-0.1v0.1c0,0,0.1,1.5-0.3,2.7
		c-0.4,0.2-5.5,1.4-5.9,1.5c-0.2,0-0.3,0.1-0.5,0.1c-0.4,0.1-0.2-0.3-0.2-0.5c0.1-0.2,0.2-0.3,0.4-0.4s2.6-1.8,3.7-2.1l0,0l0,0
		c0.1-0.4-0.1-0.9-0.1-0.9v-0.1h-0.1c0,0-1.7,0.8-3.3,0.9c-0.5-0.4-1.1-0.8-1.6-1.2c-0.3-0.2-0.7-0.5-1-0.7
		c-0.2-0.1-0.3-0.2-0.5-0.3c-0.1-0.1-0.2-0.1-0.3-0.2c-0.1-0.2,0.4-0.4,0.5-0.5c0.4-0.1,0.6,0,1,0.1c0.3,0.1,0.7,0.3,1.1,0.4
		c0.5,0.1,0.9,0.3,1.4,0.4l2-1.5v-0.1c0,0-0.2-0.7,0.1-1.2c0.3-0.4,0.6-0.8,1.5-0.9l0,0l1.2-1.1v-0.3h-0.1c-0.9,0.5-1.6,0.4-2,0.4
		c-0.2,0-0.4,0-0.4,0c-0.1-0.1,0-0.1,0.4-0.4c0.2-0.2,0.4-0.3,0.4-0.3l0,0c-0.7,0.3-1.5,0.4-2.3,0.5c-0.5,0-0.9,0-1,0
		c0-0.1,0.2-0.2,0.9-0.5c0.4-0.2,0.9-0.4,0.9-0.4v-0.1c0,0-2.2,0.5-3.2,0.5c-0.6,0-0.8-0.1-0.8-0.1l0,0c0.6-0.3,2.4-0.9,2.5-0.9
		v-0.1c-1.3,0.3-2.4,0.4-3.3,0.5c-1.2,0.1-1.6-0.2-1.7-0.2c0.2-0.2,1.4-0.6,3.5-1.1c1.7-0.4,3.7-0.9,4.4-1l0,0
		c0.8,0,1.2,0.5,1.6,1.1c0.2,0.4,0.5,0.7,0.8,1c0.1,0.1,0.3,0.1,0.6,0.2l0,0l0.4-0.5c0.1-0.1,0.3-0.4,0.2-0.6
		c-0.1-0.3-0.5-0.3-0.8-0.3c-0.2,0-0.5-0.3-0.5-0.6c0-0.2,0.2-0.3,0.3-0.4c-0.1,0.1-0.4,0-0.5,0c-0.2,0-0.3-0.1-0.5-0.2
		c-0.2-0.3,0-0.8,0-0.8s0,0-0.1,0s-0.2,0-0.3-0.1c-0.1-0.1-0.1-0.1-0.1-0.3v-0.1h-0.1h-0.1c-0.1,0-0.2,0-0.2-0.1s0.1-0.3,0.3-0.4
		h0.1v-0.1c-0.2-0.9-0.1-1.7,0.2-2.4C65.6,9,67.2,8,69,7.9h0.1c1,0,2.2,0.6,2.8,1.4c0.3,0.4,0.5,0.7,0.6,1.2c0,0,0,0.1,0,0.2
		c0,0.3,0.1,0.6,0.4,0.7c0,0,0,0,1.8,0.6c0,0.1,0,0.2-0.1,0.3s-0.9,0.3-1.8,0.4h-0.1l0.1,0.1c0.1,0.1,0.1,0.2,0.1,0.3
		c-0.1,0.2-0.4,0.5-0.7,0.6l0,0l0,0c0,0.2,0,0.2,0,0.2c0.1,0.1,0.2,0.2,0.3,0.3c0.1,0.1,0.2,0.2,0.3,0.2c0,0.2-1,2.4-1.8,2.4l0,0
		c-0.3,0-0.5,0-0.7,0S70,16.9,70,16.9l0,0l0,0c0,0.1-0.2,0.5-0.1,0.6s1.6,1.5,1.6,1.5l0,0l0,0c0,0,1,0.1,2.8,0.3h0.1l0,0
		c0.4-0.9,0.8-1.5,0.8-1.7l0.5-1.1l0,0c-0.4-0.5-0.4-1.2-0.2-1.7c0.3-0.6,1.2-0.8,1.2-0.8s0,0,0.1,0l0,0c0,0,0,0,0,0.1l-0.4,0.8
		c0,0.1-0.1,0.2,0,0.3c0,0.1,0.1,0.2,0.2,0.2l0.8,0.4c0.1,0,0.1,0,0.2,0s0.3-0.1,0.3-0.2l0.4-0.8c0-0.1,0.1-0.1,0.1-0.1s0,0,0.1,0.1
		c0,0,0.3,0.9,0.1,1.4C78.5,16.7,77.9,17.1,77.3,17.1z"/>
</g>
</svg>
