<?xml version="1.0" encoding="utf-8"?>
<!-- Generator: Adobe Illustrator 16.0.0, SVG Export Plug-In . SVG Version: 6.00 Build 0)  -->
<!DOCTYPE svg PUBLIC "-//W3C//DTD SVG 1.1//EN" "http://www.w3.org/Graphics/SVG/1.1/DTD/svg11.dtd">
<svg version="1.1" id="Layer_1" xmlns="http://www.w3.org/2000/svg" xmlns:xlink="http://www.w3.org/1999/xlink" x="0px" y="0px"
	 width="558.1px" height="560px" viewBox="0 0 558.1 560" enable-background="new 0 0 558.1 560" xml:space="preserve">
<path fill="#FFFFFF" d="M412.2,254.4H304.7V146.9c0-14.1-11.5-15.4-25.6-15.4c-14.2,0-25.6,1.2-25.6,15.4v107.5H145.9
	c-14.1,0-15.4,11.5-15.4,25.6c0,14.1,1.2,25.6,15.4,25.6h107.5v107.5c0,14.2,11.5,15.4,25.6,15.4c14.1,0,25.6-1.2,25.6-15.4V305.6
	h107.5c14.1,0,15.4-11.5,15.4-25.6C427.6,265.8,426.3,254.4,412.2,254.4"/>
</svg>
