<?xml version="1.0" encoding="utf-8"?>
<!-- Generator: Adobe Illustrator 19.2.1, SVG Export Plug-In . SVG Version: 6.00 Build 0)  -->
<svg version="1.1" id="Layer_2" xmlns="http://www.w3.org/2000/svg" xmlns:xlink="http://www.w3.org/1999/xlink" x="0px" y="0px"
	 viewBox="0 0 110 35" style="enable-background:new 0 0 110 35;" xml:space="preserve">
<style type="text/css">
	.st0{fill:#676869;}
</style>
<g>
	<g>
		<rect x="5.5" y="10.4" class="st0" width="3.4" height="12.6"/>
		<path class="st0" d="M7.3,8.5c0.5,0,1-0.2,1.4-0.6c0.4-0.4,0.6-0.9,0.6-1.5c0-0.6-0.2-1.1-0.6-1.5C8.2,4.6,7.8,4.4,7.3,4.4
			c-0.5,0-1,0.2-1.4,0.6C5.4,5.4,5.2,5.9,5.2,6.5c0,0.6,0.2,1.1,0.6,1.5C6.3,8.3,6.8,8.5,7.3,8.5z"/>
	</g>
	<g>
		<rect x="29" y="10.4" class="st0" width="3.4" height="12.6"/>
		<path class="st0" d="M30.8,8.5c0.5,0,1-0.2,1.4-0.6c0.4-0.4,0.6-0.9,0.6-1.5c0-0.6-0.2-1.1-0.6-1.5c-0.4-0.4-0.9-0.6-1.4-0.6
			c-0.5,0-1,0.2-1.4,0.6c-0.4,0.4-0.6,0.9-0.6,1.5c0,0.6,0.2,1.1,0.6,1.5C29.8,8.3,30.3,8.5,30.8,8.5z"/>
	</g>
	<path class="st0" d="M21.7,3.3v7.6c-0.9-0.5-1.8-0.8-2.8-0.8l-0.1,0c-0.1,0-0.2,0-0.4,0l-0.1,0c-0.1,0-0.2,0-0.3,0l0,0
		c-0.1,0-0.1,0-0.2,0l-0.1,0c0,0-0.1,0-0.1,0l0,0c-0.7,0.1-1.3,0.2-1.9,0.5c0,0-0.1,0-0.1,0.1l0,0c-0.1,0-0.2,0.1-0.2,0.1
		c-0.1,0.1-0.3,0.1-0.4,0.2l-0.1,0.1c-0.5,0.3-0.9,0.6-1.2,1c0,0-0.1,0.1-0.1,0.1l0,0c-0.1,0.1-0.1,0.1-0.2,0.2
		c-0.1,0.1-0.1,0.1-0.2,0.2c-0.1,0.1-0.2,0.3-0.3,0.4l0,0c-0.2,0.3-0.4,0.7-0.6,1l0,0.1c-0.3,0.8-0.5,1.6-0.5,2.5v0
		c0,1.5,0.5,2.9,1.5,4.1c0,0.1,0.1,0.1,0.2,0.2c0.1,0.1,0.1,0.1,0.2,0.2l0,0c0,0,0.1,0.1,0.1,0.1c0.4,0.4,0.8,0.7,1.3,1l0.1,0
		c0.1,0.1,0.3,0.2,0.4,0.2c0.1,0,0.2,0.1,0.2,0.1l0,0c0,0,0.1,0,0.1,0.1c0.6,0.3,1.3,0.4,1.9,0.5l0,0c0,0,0.1,0,0.1,0l0.1,0
		c0.1,0,0.1,0,0.2,0l0,0c0.1,0,0.2,0,0.3,0h0c0,0,0.1,0,0.1,0c0.1,0,0.2,0,0.3,0c0.5,0,1-0.1,1.4-0.2c0.5-0.2,1-0.3,1.3-0.5
		c0.1-0.1,0.2-0.1,0.3-0.2c0.1,0,0.1-0.1,0.2-0.1v0.7h3.1V3.3H21.7z M21.7,16.6c0,0.9-0.3,1.7-0.9,2.3c-0.6,0.6-1.4,0.9-2.4,0.9
		s-1.8-0.3-2.4-0.9c-0.6-0.6-0.9-1.4-0.9-2.3c0-0.9,0.3-1.7,0.9-2.3c0.6-0.6,1.4-0.9,2.4-0.9c1,0,1.8,0.3,2.4,0.9
		C21.4,14.9,21.7,15.7,21.7,16.6z"/>
	<path class="st0" d="M102.8,16.5c-0.4-0.3-0.7-0.5-1.2-0.7c-0.4-0.2-0.9-0.4-1.3-0.5c-0.4-0.2-0.8-0.3-1.1-0.5
		c-0.5-0.3-0.6-0.7-0.7-0.9c-0.1-0.6,0.2-1,0.4-1.2c0.3-0.3,0.8-0.4,1.3-0.4c0.6,0,1.1,0.1,1.5,0.4c0.1,0.1,0.3,0.2,0.4,0.2
		c0.2-0.3,0.4-0.5,0.6-0.7c0.2-0.2,0.4-0.5,0.6-0.8c-0.2-0.1-0.4-0.3-0.5-0.4c-0.3-0.2-0.6-0.3-0.9-0.4c-0.3-0.1-0.6-0.2-0.9-0.2
		c-0.3,0-0.6-0.1-0.8-0.1c-0.3,0-0.7,0.1-1.2,0.2c-0.4,0.1-0.8,0.3-1.2,0.6c-0.4,0.3-0.7,0.6-0.9,1.1c-0.2,0.4-0.4,0.9-0.4,1.6
		c0,0.7,0.1,1.3,0.4,1.7c0.2,0.4,0.5,0.7,0.9,1c0.4,0.2,0.8,0.4,1.3,0.6c0.5,0.1,0.9,0.3,1.3,0.4c0.4,0.2,0.8,0.4,1.1,0.6
		c0.3,0.3,0.5,0.7,0.5,1.2c0,0.4-0.1,0.7-0.4,1c-0.2,0.2-0.4,0.3-0.6,0.4c-0.2,0.1-0.4,0.2-0.6,0.2c-0.2,0-0.3,0-0.3,0
		c-0.6,0-1.1-0.1-1.5-0.3c-0.3-0.1-0.6-0.3-1-0.5c-0.2,0.3-0.4,0.5-0.6,0.8c-0.2,0.3-0.4,0.5-0.6,0.8c0.4,0.3,0.9,0.6,1.4,0.8
		c0.7,0.3,1.5,0.4,2.3,0.4c0.8,0,1.5-0.1,2-0.4c0.5-0.3,0.9-0.6,1.2-1c0.3-0.4,0.5-0.8,0.6-1.2c0.1-0.4,0.2-0.8,0.2-1
		c0-0.6-0.1-1.2-0.3-1.6C103.4,17.1,103.1,16.8,102.8,16.5z"/>
	<path class="st0" d="M39.3,28.1v-7c0,0,0,0,0,0c1,0.9,2.4,1.5,3.9,1.6c0,0,0,0,0.1,0c0.1,0,0.2,0,0.3,0c0,0,0,0,0,0c0,0,0,0,0,0
		c0,0,0,0,0,0c0.1,0,0.2,0,0.3,0c0,0,0,0,0,0c0.1,0,0.1,0,0.2,0c0,0,0.1,0,0.1,0c0,0,0,0,0,0c0.6-0.1,1.3-0.2,1.8-0.5
		c0.1,0,0.1-0.1,0.2-0.1c0.1,0,0.2-0.1,0.2-0.1c0.1-0.1,0.2-0.1,0.4-0.2c0,0,0.1,0,0.1-0.1c0.4-0.3,0.8-0.6,1.2-0.9
		c0.1-0.1,0.1-0.1,0.1-0.2c0.1-0.1,0.1-0.1,0.2-0.2c0.1-0.1,0.1-0.1,0.2-0.2c0.1-0.1,0.2-0.3,0.3-0.4c0,0,0,0,0,0
		c0.2-0.3,0.4-0.7,0.6-1c0,0,0,0,0,0c0.3-0.7,0.5-1.6,0.5-2.4c0,0,0,0,0,0c0,0,0,0,0,0c0-1.5-0.5-2.8-1.4-3.9c0-0.1-0.1-0.1-0.1-0.2
		c-0.1-0.1-0.1-0.1-0.2-0.2c0-0.1-0.1-0.1-0.1-0.2c-0.4-0.4-0.8-0.7-1.2-0.9c0,0-0.1,0-0.1,0c-0.1-0.1-0.3-0.1-0.4-0.2
		c-0.1,0-0.1-0.1-0.2-0.1c-0.1,0-0.1-0.1-0.2-0.1c-0.6-0.2-1.2-0.4-1.8-0.5c0,0,0,0,0,0c0,0-0.1,0-0.1,0c-0.1,0-0.1,0-0.2,0
		c0,0,0,0,0,0c-0.1,0-0.2,0-0.3,0c0,0,0,0,0,0s0,0,0,0c0,0-0.1,0-0.1,0c-0.1,0-0.2,0-0.3,0c-0.5,0-1,0.1-1.4,0.2
		c-0.5,0.1-0.9,0.3-1.3,0.5c-0.1,0.1-0.2,0.1-0.3,0.2c-0.5,0.3-1,0.7-1.4,1.1v-1.7h-1.7v17.6L39.3,28.1L39.3,28.1z M40.5,19.6
		c-0.8-0.8-1.2-1.8-1.2-3.1c0-1.2,0.4-2.2,1.2-3.1c0.8-0.8,1.9-1.3,3.1-1.3c1.3,0,2.3,0.4,3.1,1.3c0.8,0.8,1.2,1.9,1.2,3.1
		c0,1.2-0.4,2.3-1.2,3.1c-0.8,0.8-1.9,1.2-3.1,1.2C42.4,20.8,41.3,20.4,40.5,19.6z"/>
	<path class="st0" d="M83.3,28.1v-7c0,0,0,0,0,0c1,0.9,2.4,1.5,3.9,1.6c0,0,0,0,0.1,0c0.1,0,0.2,0,0.3,0c0,0,0,0,0,0c0,0,0,0,0,0
		c0,0,0,0,0,0c0.1,0,0.2,0,0.3,0c0,0,0,0,0,0c0.1,0,0.1,0,0.2,0c0,0,0.1,0,0.1,0c0,0,0,0,0,0c0.6-0.1,1.3-0.2,1.8-0.5
		c0.1,0,0.1-0.1,0.2-0.1c0.1,0,0.2-0.1,0.2-0.1c0.1-0.1,0.2-0.1,0.4-0.2c0,0,0.1,0,0.1-0.1c0.4-0.3,0.8-0.6,1.2-0.9
		c0.1-0.1,0.1-0.1,0.1-0.2c0.1-0.1,0.1-0.1,0.2-0.2c0.1-0.1,0.1-0.1,0.2-0.2c0.1-0.1,0.2-0.3,0.3-0.4c0,0,0,0,0,0
		c0.2-0.3,0.4-0.7,0.6-1c0,0,0,0,0,0c0.3-0.7,0.5-1.6,0.5-2.4c0,0,0,0,0,0c0,0,0,0,0,0c0-1.5-0.5-2.8-1.4-3.9c0-0.1-0.1-0.1-0.1-0.2
		c-0.1-0.1-0.1-0.1-0.2-0.2c0-0.1-0.1-0.1-0.1-0.2c-0.4-0.4-0.8-0.7-1.2-0.9c0,0-0.1,0-0.1,0c-0.1-0.1-0.3-0.1-0.4-0.2
		c-0.1,0-0.1-0.1-0.2-0.1c-0.1,0-0.1-0.1-0.2-0.1c-0.6-0.2-1.2-0.4-1.8-0.5c0,0,0,0,0,0c0,0-0.1,0-0.1,0c-0.1,0-0.1,0-0.2,0
		c0,0,0,0,0,0c-0.1,0-0.2,0-0.3,0c0,0,0,0,0,0c0,0,0,0,0,0c0,0-0.1,0-0.1,0c-0.1,0-0.2,0-0.3,0c-0.5,0-1,0.1-1.4,0.2
		c-0.5,0.1-0.9,0.3-1.3,0.5c-0.1,0.1-0.2,0.1-0.3,0.2c-0.5,0.3-1,0.7-1.4,1.1v-1.7h-1.7v17.6L83.3,28.1L83.3,28.1z M84.5,19.6
		c-0.8-0.8-1.2-1.8-1.2-3.1c0-1.2,0.4-2.2,1.2-3.1c0.8-0.8,1.9-1.3,3.1-1.3c1.3,0,2.3,0.4,3.1,1.3c0.8,0.8,1.2,1.9,1.2,3.1
		c0,1.2-0.4,2.3-1.2,3.1c-0.8,0.8-1.9,1.2-3.1,1.2C86.3,20.8,85.3,20.4,84.5,19.6z"/>
	<path class="st0" d="M65.8,31.3c1.4-0.2,2.4-0.8,2.8-1.7c-2.1,0.5-4.3,0.5-6.5,0C62.6,30.5,64.2,31.5,65.8,31.3z"/>
	<path class="st0" d="M68.6,27.1c-0.2,0.1-0.5,0.1-0.7,0.2c-0.6,0.1-1.3,0.2-1.9,0.2c-0.9,0-1.8,0-2.7-0.1c-0.4-0.1-2.5-0.8-2.3,0.1
		c0.2,0.7,1.4,0.9,2.1,1c1.1,0.3,2.6,0.2,3.7,0.1c0.7-0.1,1.8-0.1,2.4-0.5c0.3-0.2,0.8-0.9,0.3-1.1C69.4,27,69,27,68.6,27.1z"/>
	<path class="st0" d="M71.3,17.7c-0.1,0-0.1,0-0.2,0c-0.1,0-0.3,0.1-0.3,0.2c-0.1,0.2,0,0.4,0.2,0.5c0.1,0,0.1,0,0.2,0
		c0.1,0,0.3-0.1,0.3-0.2C71.6,18,71.5,17.8,71.3,17.7z"/>
	<path class="st0" d="M65.4,1.3c-7.1,0-12.8,5.5-12.8,12.3s5.7,12.3,12.8,12.3c7.1,0,12.8-5.5,12.8-12.3C78.2,6.8,72.5,1.3,65.4,1.3
		z M74.6,12.5C74.6,12.5,74.6,12.5,74.6,12.5L74.6,12.5l-1,1.9l0.1,0c0.1,0.1,0.2,0.2,0.2,0.3c0,0.1,0,0.2-0.1,0.4l-0.2,0.3
		c-0.1,0.2-0.3,0.4-0.5,0.3l-0.1,0l-1.4,2.8c-0.1,0.2-0.3,0.3-0.4,0.3c-0.1,0-0.2,0-0.3-0.1l-0.2-0.1c-0.3-0.1-0.4-0.4-0.2-0.7
		l0.9-2l-0.1,0c-0.9,0.2-1.1,0.2-1.6,0.3c-0.1,0-1.4-0.4-2-0.3h0c0,0-0.2,0.3-0.4,0.8c-0.3,0.8-0.8,2.1-2,2.2c-0.1,0-0.1,0-0.2,0
		l-0.1,0l0,0.1c0,0,0.1,1.3-0.3,2.4c-0.3,0.2-4.9,1.3-5.3,1.3c-0.1,0-0.3,0.1-0.4,0.1c-0.4,0.1-0.2-0.3-0.2-0.5
		c0-0.2,0.2-0.3,0.4-0.4c0.2-0.1,2.4-1.6,3.3-1.8l0,0l0,0c0.1-0.4-0.1-0.8-0.1-0.9l0-0.1l-0.1,0c0,0-1.6,0.7-2.9,0.8
		c-0.5-0.4-1-0.7-1.5-1.1c-0.3-0.2-0.6-0.4-0.9-0.6c-0.1-0.1-0.3-0.2-0.4-0.3c-0.1-0.1-0.2-0.1-0.3-0.2c-0.1-0.2,0.3-0.4,0.5-0.4
		c0.3-0.1,0.6,0,0.9,0.1c0.3,0.1,0.6,0.2,1,0.3c0.4,0.1,0.8,0.2,1.2,0.4l1.8-1.3l0,0c0,0-0.2-0.6,0.1-1.1c0.2-0.3,0.5-0.7,1.4-0.8
		l0,0l1.1-0.9l0-0.3l0,0c-0.8,0.4-1.5,0.4-1.8,0.4c-0.2,0-0.3,0-0.4,0c-0.1-0.1,0-0.1,0.3-0.4c0.2-0.1,0.4-0.3,0.4-0.3l0,0
		c-0.6,0.3-1.4,0.4-2.1,0.4c-0.4,0-0.8,0-0.9,0c0,0,0.2-0.2,0.8-0.5c0.4-0.2,0.8-0.3,0.8-0.3l0,0c0,0-2,0.5-2.9,0.5
		c-0.6,0-0.7-0.1-0.8-0.1c0,0,0,0,0,0c0.5-0.3,2.2-0.8,2.2-0.8l0-0.1c-1.2,0.3-2.2,0.4-3,0.4c-1.1,0.1-1.5-0.1-1.6-0.2
		c0.2-0.1,1.3-0.5,3.1-1c1.5-0.4,3.3-0.8,4-0.9l0,0c0.8,0,1.1,0.4,1.4,1c0.2,0.3,0.4,0.6,0.7,0.9c0.1,0.1,0.3,0.1,0.6,0.2l0,0
		l0.4-0.4c0.1-0.1,0.3-0.3,0.2-0.6c-0.1-0.3-0.4-0.3-0.7-0.3c-0.2,0-0.4-0.3-0.5-0.5c0-0.2,0.1-0.3,0.2-0.4c-0.1,0-0.4,0-0.5,0
		c-0.2,0-0.3-0.1-0.4-0.2c-0.2-0.3,0-0.7,0-0.7s0,0-0.1,0c-0.1,0-0.2,0-0.3-0.1c-0.1-0.1-0.1-0.1-0.1-0.2l0-0.1l-0.1,0
		c0,0-0.1,0-0.1,0c-0.1,0-0.2,0-0.2-0.1c0-0.1,0.1-0.3,0.3-0.4l0.1,0l0-0.1c-0.2-0.8-0.1-1.5,0.2-2.2c0.6-1.3,2.1-2.1,3.6-2.2
		c0,0,0.1,0,0.1,0c0.9,0,2,0.5,2.5,1.2c0.3,0.4,0.4,0.6,0.5,1c0,0,0,0.1,0,0.1c0,0.2,0.1,0.6,0.3,0.6c0,0,0,0,1.6,0.5
		c0,0.1,0,0.2-0.1,0.2c-0.1,0.1-0.9,0.2-1.6,0.4l-0.1,0l0.1,0.1c0.1,0.1,0.1,0.2,0.1,0.2c-0.1,0.2-0.4,0.4-0.6,0.5l0,0l0,0
		c0,0.2,0,0.2,0,0.2c0.1,0.1,0.1,0.2,0.3,0.3c0.1,0.1,0.2,0.1,0.3,0.2c0,0.2-0.9,2.1-1.6,2.2c0,0,0,0,0,0c-0.2,0-0.4,0-0.6,0
		c-0.2,0-0.3,0-0.3,0.1l0,0l0,0c0,0.1-0.2,0.4-0.1,0.5c0.1,0.1,1.4,1.3,1.4,1.4l0,0l0,0c0,0,0.9,0.1,2.5,0.3l0,0l0,0
		c0.4-0.8,0.7-1.4,0.7-1.5l0.5-1l0,0c-0.3-0.5-0.4-1-0.2-1.5c0.2-0.5,1-0.8,1.1-0.8c0,0,0,0,0.1,0c0,0,0,0,0,0c0,0,0,0,0,0.1
		L74,10.4c0,0.1,0,0.2,0,0.3c0,0.1,0.1,0.2,0.2,0.2l0.7,0.4c0.1,0,0.1,0,0.2,0c0.1,0,0.2-0.1,0.3-0.2l0.4-0.7c0-0.1,0.1-0.1,0.1-0.1
		c0,0,0,0,0.1,0.1c0,0,0.3,0.8,0.1,1.3C75.6,12.2,75.2,12.5,74.6,12.5z"/>
</g>
</svg>
