<?xml version="1.0" encoding="utf-8"?>
<!-- Generator: Adobe Illustrator 16.0.0, SVG Export Plug-In . SVG Version: 6.00 Build 0)  -->
<!DOCTYPE svg PUBLIC "-//W3C//DTD SVG 1.1//EN" "http://www.w3.org/Graphics/SVG/1.1/DTD/svg11.dtd">
<svg version="1.1" id="圖層_1" xmlns="http://www.w3.org/2000/svg" xmlns:xlink="http://www.w3.org/1999/xlink" x="0px" y="0px"
	 width="110.551px" height="90.708px" viewBox="512.405 -27.508 110.551 90.708"
	 enable-background="new 512.405 -27.508 110.551 90.708" xml:space="preserve">
<g>
	<g>
		<path fill="#FFA727" d="M545.687,33.806l-3.594,0.971l0.625,2.35l1.166-0.317l0.807,3.032c0.313,1.176-0.086,1.738-0.904,1.957
			c-0.816,0.221-1.441-0.063-1.754-1.236l-2.365-8.886c-0.313-1.173,0.082-1.76,0.898-1.979c0.818-0.22,1.449,0.087,1.762,1.262
			l0.469,1.763l2.428-0.654l-0.426-1.598c-0.701-2.633-2.408-3.783-4.928-3.104c-2.518,0.68-3.426,2.537-2.725,5.168l2.275,8.554
			c0.701,2.633,2.408,3.783,4.926,3.104c2.521-0.68,3.428-2.535,2.727-5.169L545.687,33.806z M556.855,35.753
			c-0.457-1.716-1.209-2.848-2.635-3.042c0.998-0.849,1.24-2.099,0.791-3.79l-0.344-1.293c-0.676-2.537-2.15-3.477-4.811-2.758
			l-3.873,1.047l4.377,16.45l2.566-0.694l-1.781-6.696l0.887-0.239c1.166-0.315,1.83,0.11,2.236,1.638l0.688,2.587
			c0.357,1.337,0.518,1.571,0.771,1.955l2.611-0.704c-0.418-0.541-0.598-1.123-0.811-1.922L556.855,35.753z M551.525,32.356
			l-1.004,0.271l-1.344-5.054l1.236-0.332c0.91-0.246,1.443,0.162,1.756,1.336l0.432,1.622
			C552.953,31.517,552.482,32.096,551.525,32.356z M557.881,22.704l1.764,17.155L562,39.224l-0.35-3.105l3.148-0.85l1.238,2.865
			l2.59-0.699l-6.99-15.745L557.881,22.704z M561.383,33.799l-0.979-8.651l3.451,7.985L561.383,33.799z M572.943,21.157
			l-0.625-2.352l-7.932,2.143l0.625,2.352l2.684-0.725l3.752,14.098l2.566-0.691l-3.752-14.1L572.943,21.157z M581.554,16.313
			l-2.426,0.656l3.377,12.689c0.313,1.176-0.09,1.735-0.904,1.955c-0.816,0.222-1.443-0.063-1.756-1.236l-3.377-12.691l-2.566,0.691
			l3.334,12.527c0.699,2.634,2.406,3.784,4.926,3.104c2.52-0.68,3.428-2.536,2.727-5.17L581.554,16.313z M583.885,15.684
			l4.377,16.451l2.566-0.694l-4.377-16.45L583.885,15.684z M596.711,14.743l-0.627-2.352l-7.932,2.141l0.625,2.352l2.684-0.725
			l3.752,14.1l2.566-0.694l-3.752-14.099L596.711,14.743z M614.041,34.808l-9.355-35.257c-0.166-0.633-0.576-1.17-1.139-1.496
			c-0.561-0.328-1.229-0.416-1.852-0.246L584.64,2.384L562.127-9.882c0.578-1.342,0.721-2.818,0.342-4.252
			c-0.752-2.84-3.314-4.824-6.23-4.824c-0.559,0-1.123,0.076-1.668,0.223c-1.666,0.447-3.055,1.521-3.918,3.025
			c-0.863,1.502-1.092,3.254-0.648,4.932c0.385,1.455,1.252,2.68,2.393,3.533L540.521,14.26l-17.566,4.707
			c-1.301,0.35-2.076,1.699-1.729,3.01l9.357,35.255c0.289,1.101,1.275,1.828,2.355,1.828c0.209,0,0.422-0.028,0.633-0.084
			l78.736-21.158C613.613,37.467,614.39,36.119,614.041,34.808z M553.824-13.865c0.371-0.65,0.973-1.113,1.691-1.307
			c0.238-0.064,0.479-0.098,0.723-0.098c1.26,0,2.367,0.857,2.691,2.09c0.08,0.301,0.1,0.607,0.076,0.91
			c-0.025,0.424-0.139,0.84-0.355,1.219c-0.338,0.584-0.861,1.006-1.49,1.229l-0.42,0.111c-1.098,0.205-2.199-0.297-2.811-1.197
			c-0.168-0.25-0.307-0.521-0.387-0.824C553.351-12.456,553.449-13.214,553.824-13.865z M555.211-6.044
			c0.332,0.055,0.672,0.086,1.021,0.086c0.561,0,1.125-0.076,1.672-0.221c0.891-0.24,1.695-0.674,2.393-1.244l20.609,10.811
			l-36.65,9.867L555.211-6.044z M533.994,54.141l-8.275-31.197l75.555-20.301l8.277,31.197L533.994,54.141z"/>
	</g>
</g>
</svg>
