<?xml version="1.0" encoding="utf-8"?>
<!-- Generator: Adobe Illustrator 16.0.0, SVG Export Plug-In . SVG Version: 6.00 Build 0)  -->
<!DOCTYPE svg PUBLIC "-//W3C//DTD SVG 1.1//EN" "http://www.w3.org/Graphics/SVG/1.1/DTD/svg11.dtd">
<svg version="1.1" id="圖層_1" xmlns="http://www.w3.org/2000/svg" xmlns:xlink="http://www.w3.org/1999/xlink" x="0px" y="0px"
	 width="110.551px" height="90.708px" viewBox="119.905 -27.508 110.551 90.708"
	 enable-background="new 119.905 -27.508 110.551 90.708" xml:space="preserve">
<g>
	<g>
		<path fill="#FFA727" d="M223.189,5.69l-7.18-10.238c-0.321-0.456-0.808-0.77-1.358-0.871l-25.769-4.745
			c-0.307-0.165-0.647-0.262-1.002-0.262h-35.338c-1.176,0-2.129,0.951-2.129,2.123v2.069l-20.227,3.949
			c-1.127,0.22-1.861,1.309-1.639,2.431l10.692,54.379c0.22,1.122,1.313,1.854,2.438,1.633l28.537-5.572h12.487
			c-0.199,0.014-0.401,0.035-0.601,0.046l30.197,5.561c1.16,0.215,2.271-0.546,2.483-1.699l8.754-47.2
			C223.641,6.733,223.514,6.155,223.189,5.69z M142.921,51.695l-9.895-50.314l17.388-3.396V8.23l-8.43,1.646
			c-0.452,0.088-0.747,0.523-0.658,0.973s0.526,0.741,0.978,0.652l8.11-1.581v5.285l-7.109,1.39
			c-0.451,0.088-0.746,0.522-0.657,0.972c0.087,0.448,0.526,0.743,0.977,0.655l6.79-1.327v4.581l-5.923,1.156
			c-0.45,0.088-0.744,0.524-0.656,0.975c0.088,0.448,0.526,0.741,0.977,0.652l5.603-1.095v5.363l-4.587,0.897
			c-0.451,0.088-0.746,0.524-0.657,0.973c0.088,0.448,0.525,0.742,0.978,0.655l4.267-0.834v5.286l-3.266,0.637
			c-0.45,0.09-0.745,0.523-0.656,0.974c0.088,0.449,0.526,0.74,0.977,0.654l2.945-0.574v5.361l-1.93,0.377
			c-0.452,0.088-0.746,0.524-0.657,0.971c0.089,0.452,0.526,0.745,0.977,0.656l1.61-0.314v4.219c0,0.653,0.302,1.229,0.767,1.618
			L142.921,51.695z M194.678,46.342h-40.006V-6.181h31.93v6.665c0,0.703,0.57,1.273,1.278,1.273h6.798V46.342z M210.984,51.635
			l-12.261-2.259c0.133-0.276,0.214-0.584,0.214-0.912v-5.168l5.764,1.062c0.465,0.086,0.909-0.219,0.994-0.682
			c0.086-0.46-0.219-0.903-0.685-0.988l-6.073-1.117v-5.483l7.057,1.299c0.465,0.086,0.909-0.22,0.994-0.68
			c0.086-0.46-0.219-0.904-0.684-0.99l-7.367-1.355v-5.405l8.335,1.534c0.467,0.086,0.909-0.22,0.995-0.68
			c0.085-0.462-0.219-0.903-0.685-0.99l-8.646-1.593V0.465c0-0.568-0.23-1.112-0.636-1.512L194.46-4.82l18.162,3.344l-1.217,6.554
			c-0.128,0.691,0.329,1.355,1.024,1.483l6.685,1.231L210.984,51.635z M208.807,11.158c-0.178-0.228-0.412-0.454-0.705-0.678
			c-0.29-0.222-0.646-0.416-1.054-0.58l0.206-0.903c0.043-0.229-0.002-0.421-0.133-0.57c-0.128-0.147-0.282-0.239-0.458-0.272
			c-0.176-0.032-0.354-0.002-0.525,0.092c-0.176,0.092-0.283,0.255-0.325,0.486l-0.173,0.815c-1.096-0.14-1.998,0.042-2.706,0.545
			c-0.711,0.501-1.155,1.239-1.336,2.213c-0.095,0.507-0.082,0.963,0.039,1.361c0.123,0.4,0.313,0.756,0.576,1.076
			c0.262,0.318,0.568,0.601,0.917,0.855c0.349,0.251,0.707,0.496,1.065,0.724l-0.689,3.204c-0.435-0.231-0.757-0.498-0.965-0.8
			c-0.111-0.145-0.238-0.283-0.377-0.415c-0.139-0.134-0.313-0.224-0.517-0.276c-0.633-0.117-1.002,0.111-1.107,0.682
			c-0.054,0.291-0.01,0.57,0.136,0.844c0.145,0.271,0.348,0.522,0.607,0.752c0.26,0.23,0.555,0.438,0.885,0.622
			c0.33,0.188,0.649,0.341,0.952,0.458l-0.163,0.8c-0.046,0.241-0.003,0.434,0.127,0.578c0.132,0.146,0.285,0.232,0.461,0.262
			c0.178,0.035,0.354,0.008,0.526-0.08c0.175-0.088,0.283-0.253,0.327-0.494l0.151-0.708c1.049,0.105,1.92-0.075,2.614-0.543
			c0.689-0.469,1.123-1.177,1.298-2.123c0.097-0.525,0.09-0.986-0.024-1.388c-0.113-0.406-0.297-0.764-0.549-1.082
			c-0.247-0.314-0.546-0.595-0.889-0.842c-0.348-0.243-0.693-0.477-1.045-0.689l0.679-3.151c0.157,0.092,0.291,0.191,0.397,0.299
			c0.105,0.107,0.195,0.199,0.271,0.275c0.113,0.132,0.238,0.259,0.375,0.372s0.303,0.186,0.497,0.222
			c0.331,0.061,0.578,0.017,0.751-0.134c0.173-0.149,0.285-0.366,0.337-0.645c0.024-0.132,0-0.302-0.073-0.511
			C209.114,11.602,208.987,11.384,208.807,11.158z M203.927,13.493c-0.167-0.249-0.222-0.543-0.158-0.884
			c0.071-0.389,0.24-0.676,0.502-0.867c0.262-0.189,0.582-0.275,0.955-0.258l-0.58,2.737
			C204.333,13.989,204.094,13.746,203.927,13.493z M206.16,17.955c0.153,0.258,0.201,0.547,0.144,0.863
			c-0.072,0.386-0.23,0.666-0.469,0.834c-0.239,0.168-0.54,0.252-0.904,0.249l0.572-2.682
			C205.786,17.45,206.006,17.693,206.16,17.955z M187.173,38.626h-25.175c-0.472,0-0.854,0.379-0.854,0.848
			c0,0.471,0.382,0.851,0.854,0.851h25.175c0.474,0,0.854-0.38,0.854-0.851C188.027,39.005,187.646,38.626,187.173,38.626z
			 M187.173,31.538h-25.175c-0.472,0-0.854,0.381-0.854,0.849s0.382,0.849,0.854,0.849h25.175c0.474,0,0.854-0.381,0.854-0.849
			S187.646,31.538,187.173,31.538z M187.173,24.522h-25.175c-0.472,0-0.854,0.381-0.854,0.848c0,0.469,0.382,0.85,0.854,0.85h25.175
			c0.474,0,0.854-0.381,0.854-0.85C188.027,24.903,187.646,24.522,187.173,24.522z M161.998,19.131h10.073
			c0.472,0,0.852-0.379,0.852-0.848s-0.38-0.85-0.852-0.85h-10.073c-0.472,0-0.854,0.381-0.854,0.85S161.526,19.131,161.998,19.131z
			 M161.998,12.827h10.073c0.472,0,0.852-0.381,0.852-0.85c0-0.467-0.38-0.848-0.852-0.848h-10.073
			c-0.472,0-0.854,0.381-0.854,0.848C161.144,12.447,161.526,12.827,161.998,12.827z M161.998,5.814h10.073
			c0.472,0,0.852-0.381,0.852-0.85c0-0.469-0.38-0.848-0.852-0.848h-10.073c-0.472,0-0.854,0.379-0.854,0.848
			C161.144,5.433,161.526,5.814,161.998,5.814z M179.326,11.652c0.315,0.266,0.669,0.49,1.059,0.678
			c0.388,0.184,0.785,0.358,1.18,0.517l-0.093,3.277c-0.472-0.149-0.837-0.352-1.096-0.612c-0.138-0.123-0.286-0.235-0.446-0.341
			c-0.161-0.105-0.349-0.165-0.559-0.178c-0.644,0-0.964,0.291-0.964,0.871c0,0.297,0.094,0.565,0.287,0.806
			c0.191,0.241,0.437,0.45,0.734,0.628c0.297,0.182,0.624,0.331,0.982,0.454c0.359,0.125,0.702,0.216,1.021,0.278l-0.015,0.815
			c0,0.247,0.076,0.429,0.23,0.545c0.157,0.119,0.323,0.176,0.501,0.176c0.181,0,0.351-0.057,0.504-0.176
			c0.155-0.117,0.231-0.299,0.231-0.545l0.02-0.722c1.051-0.088,1.873-0.421,2.471-1.009c0.594-0.586,0.89-1.361,0.89-2.322
			c0-0.532-0.092-0.986-0.277-1.361c-0.186-0.377-0.431-0.699-0.736-0.965c-0.301-0.264-0.646-0.486-1.028-0.666
			c-0.386-0.178-0.768-0.343-1.152-0.49l0.092-3.219c0.173,0.061,0.322,0.134,0.446,0.222c0.123,0.086,0.229,0.161,0.315,0.222
			c0.136,0.109,0.281,0.211,0.437,0.297c0.156,0.086,0.332,0.128,0.53,0.128c0.335,0,0.571-0.088,0.714-0.268
			c0.143-0.178,0.214-0.41,0.214-0.695c0-0.136-0.056-0.299-0.166-0.49c-0.112-0.191-0.276-0.383-0.493-0.572
			c-0.217-0.191-0.489-0.373-0.817-0.538c-0.326-0.167-0.711-0.293-1.143-0.379l0.038-0.927c0-0.235-0.079-0.413-0.233-0.536
			c-0.154-0.125-0.322-0.186-0.5-0.186c-0.18,0-0.35,0.061-0.502,0.186c-0.155,0.123-0.231,0.3-0.231,0.536l-0.02,0.833
			c-1.104,0.063-1.958,0.404-2.563,1.028c-0.607,0.622-0.911,1.428-0.911,2.416c0,0.519,0.096,0.962,0.288,1.332
			C178.757,11.07,179.01,11.388,179.326,11.652z M183.013,13.493c0.32,0.174,0.58,0.374,0.779,0.603
			c0.199,0.228,0.299,0.503,0.299,0.823c0,0.394-0.104,0.696-0.309,0.905c-0.204,0.21-0.485,0.346-0.844,0.41L183.013,13.493z
			 M180.802,8.329c0.223-0.233,0.521-0.375,0.893-0.425l-0.073,2.794c-0.349-0.172-0.627-0.366-0.838-0.584
			c-0.211-0.214-0.317-0.496-0.317-0.842C180.467,8.879,180.579,8.565,180.802,8.329z"/>
	</g>
</g>
</svg>
