<?xml version="1.0" encoding="utf-8"?>
<!-- Generator: Adobe Illustrator 16.0.0, SVG Export Plug-In . SVG Version: 6.00 Build 0)  -->
<!DOCTYPE svg PUBLIC "-//W3C//DTD SVG 1.1//EN" "http://www.w3.org/Graphics/SVG/1.1/DTD/svg11.dtd">
<svg version="1.1" id="圖層_1" xmlns="http://www.w3.org/2000/svg" xmlns:xlink="http://www.w3.org/1999/xlink" x="0px" y="0px"
	 width="110.551px" height="90.708px" viewBox="512.405 109.493 110.551 90.708"
	 enable-background="new 512.405 109.493 110.551 90.708" xml:space="preserve">
<g>
	<g>
		<path fill="#FFA727" d="M568.747,156.979H547.01c-0.386,0-0.699,0.311-0.699,0.693s0.313,0.694,0.699,0.694h21.736
			c0.388,0,0.699-0.312,0.699-0.694S569.135,156.979,568.747,156.979z M568.747,150.484H547.01c-0.386,0-0.699,0.311-0.699,0.692
			c0,0.384,0.313,0.695,0.699,0.695h21.736c0.388,0,0.699-0.312,0.699-0.695C569.446,150.795,569.135,150.484,568.747,150.484z
			 M568.747,143.989H547.01c-0.386,0-0.699,0.311-0.699,0.693c0,0.384,0.313,0.694,0.699,0.694h21.736
			c0.388,0,0.699-0.311,0.699-0.694C569.446,144.3,569.135,143.989,568.747,143.989z M568.747,179.604H547.01
			c-0.386,0-0.699,0.311-0.699,0.693s0.313,0.694,0.699,0.694h21.736c0.388,0,0.699-0.312,0.699-0.694
			S569.135,179.604,568.747,179.604z M568.747,173.109H547.01c-0.386,0-0.699,0.311-0.699,0.692c0,0.384,0.313,0.695,0.699,0.695
			h21.736c0.388,0,0.699-0.312,0.699-0.695C569.446,173.42,569.135,173.109,568.747,173.109z M568.747,166.614H547.01
			c-0.386,0-0.699,0.312-0.699,0.693c0,0.384,0.313,0.694,0.699,0.694h21.736c0.388,0,0.699-0.311,0.699-0.694
			C569.446,166.926,569.135,166.614,568.747,166.614z M579.298,152.117l-2.116-1.65l-0.935,0.752l3.66,3.701
			c0.627-1.604,2.623-4.74,5.058-6.969l-0.226-0.515C582.089,149.054,580.166,151.094,579.298,152.117z M591.991,120.776h-49.358
			c-2.412,0-4.372,2.022-4.372,4.51v62.986c0,2.487,2.033,4.509,4.533,4.509h48.932c2.498,0,4.531-2.021,4.531-4.509v-62.986
			C596.257,122.799,594.344,120.776,591.991,120.776z M562.544,123.782h8.292v2.556l-8.228,0.107l-0.103-2.662L562.544,123.782z
			 M548.008,123.782h11.58v2.663c0,1.597,1.311,2.897,2.918,2.897h8.435c1.609,0,2.916-1.301,2.916-2.897v-2.663h12.865v8.717
			h-38.714V123.782z M593.236,188.272c0,0.828-0.679,1.504-1.511,1.504h-48.932c-0.833,0-1.513-0.676-1.513-1.504v-62.986
			c0-0.816,0.621-1.504,1.352-1.504h2.354v11.723h44.756v-11.723h2.248c0.676,0,1.245,0.688,1.245,1.504V188.272z M586.145,166.702
			c0.003-0.002,0.005-0.005,0.009-0.007c-0.086-0.011-0.174-0.018-0.264-0.019c-0.001,0-0.001,0-0.003,0h-10.564
			c-0.688,0-1.294,0.328-1.688,0.829c-0.284,0.362-0.46,0.813-0.46,1.308v9.979c0,0.863,0.516,1.602,1.256,1.939
			c0.02,0.009,0.036,0.021,0.057,0.03c0.032,0.014,0.069,0.02,0.102,0.031c0.23,0.084,0.476,0.137,0.733,0.137h10.563
			c1.1,0,1.995-0.823,2.123-1.882c0.004,0.004,0.007,0.007,0.009,0.011c0.01-0.088,0.018-0.176,0.018-0.267v-9.979
			C588.036,167.721,587.209,166.831,586.145,166.702z M586.962,178.792c0,0.59-0.48,1.068-1.075,1.068h-10.562
			c-0.12,0-0.229-0.032-0.337-0.067c-0.026-0.009-0.057-0.006-0.082-0.017c-0.04-0.017-0.067-0.049-0.104-0.07
			c-0.323-0.184-0.553-0.517-0.553-0.914v-9.979c0-0.245,0.098-0.462,0.239-0.643c0.197-0.252,0.49-0.426,0.836-0.426h10.563
			c0.593,0,1.074,0.479,1.074,1.068V178.792z M586.145,144.077c0.003-0.002,0.005-0.005,0.009-0.008
			c-0.086-0.01-0.174-0.017-0.264-0.018c-0.001,0-0.001,0-0.003,0h-10.564c-0.688,0-1.294,0.328-1.688,0.829
			c-0.284,0.362-0.46,0.813-0.46,1.308v9.978c0,0.864,0.516,1.603,1.256,1.94c0.02,0.009,0.036,0.021,0.057,0.03
			c0.032,0.014,0.069,0.02,0.102,0.031c0.23,0.084,0.476,0.137,0.733,0.137h10.563c1.1,0,1.995-0.823,2.123-1.882
			c0.004,0.004,0.007,0.007,0.009,0.011c0.01-0.089,0.018-0.177,0.018-0.268v-9.978
			C588.036,145.096,587.209,144.206,586.145,144.077z M586.962,156.166c0,0.59-0.48,1.069-1.075,1.069h-10.562
			c-0.12,0-0.229-0.032-0.337-0.067c-0.026-0.009-0.057-0.006-0.082-0.017c-0.04-0.017-0.067-0.049-0.104-0.07
			c-0.323-0.184-0.553-0.517-0.553-0.915v-9.978c0-0.246,0.098-0.462,0.239-0.643c0.197-0.253,0.49-0.426,0.836-0.426h10.563
			c0.593,0,1.074,0.479,1.074,1.068V156.166z M583.027,170.388l-2.422,2.408l-2.421-2.41l-1.012,1.008l2.42,2.408l-2.42,2.408
			l1.012,1.008l2.421-2.409l2.422,2.409l1.012-1.006l-2.422-2.41l2.422-2.407L583.027,170.388z"/>
	</g>
</g>
</svg>
