<?xml version="1.0" encoding="utf-8"?>
<!-- Generator: Adobe Illustrator 16.0.0, SVG Export Plug-In . SVG Version: 6.00 Build 0)  -->
<!DOCTYPE svg PUBLIC "-//W3C//DTD SVG 1.1//EN" "http://www.w3.org/Graphics/SVG/1.1/DTD/svg11.dtd">
<svg version="1.1" id="圖層_1" xmlns="http://www.w3.org/2000/svg" xmlns:xlink="http://www.w3.org/1999/xlink" x="0px" y="0px"
	 width="110.551px" height="90.708px" viewBox="383.905 -27.508 110.551 90.708"
	 enable-background="new 383.905 -27.508 110.551 90.708" xml:space="preserve">
<g>
	<g>
		<path fill="#FFA727" d="M443.329,6.464c8.797,0,15.932-7.147,15.932-15.96c0-8.814-7.135-15.963-15.932-15.963
			c-8.799,0-15.932,7.148-15.932,15.963C427.397-0.684,434.53,6.464,443.329,6.464z M443.329-21.146
			c6.42,0,11.625,5.216,11.625,11.649c0,6.427-5.205,11.642-11.625,11.642c-6.422,0-11.629-5.215-11.629-11.642
			C431.7-15.93,436.907-21.146,443.329-21.146z M476.581,30.813c1.281-1.418,2.441-2.581,2.447-2.587l-2.256-2.261
			c-0.004,0.009-1.549,1.551-3.109,3.333c-1.303-0.51-2.686-0.9-3.881-1.184c-10.047-23.987-26.531-20.757-42.506-14.121
			c-0.471,0.196-0.941,0.393-1.406,0.595c-0.322-0.348-0.666-0.681-1.031-0.997c-2.207-1.94-5.129-3.292-9.064-3.801l-2.926-0.38
			l0.08,2.96l0.217,7.887c-3.467,1.475-6.748,2.687-9.697,3.271l-1.656,0.33l-0.119,1.69l-0.582,8.376l-0.072,1.057l0.797,0.723
			l13.838,12.534l3.316,7.601l0.58,1.329h1.436h8.045h1.689l0.438-1.64l1.416-5.295c3.316,0.533,6.561,0.768,9.748,0.748
			c3.07-0.019,6.057-0.271,8.977-0.725l0.975,5.438l0.326,1.823h1.834h10.893h1.996l0.191-2.002l2.338-24.131
			c0.564,0.145,1.15,0.307,1.721,0.492c-2.199,3.049-1.672,5.092-0.145,6.197c0.844,0.612,2,0.821,3.127,0.691
			c1.051-0.121,2.139-0.545,2.936-1.216c1.564-1.316,2.186-3.354,0.16-5.771C477.358,31.434,476.995,31.113,476.581,30.813z
			 M463.333,53.101h-7.063l-1.035-5.779l-0.395-2.194l-2.18,0.418c-3.391,0.648-6.838,1.015-10.357,1.036
			c-3.521,0.021-7.156-0.303-10.924-1.036l-2.006-0.394l-0.533,1.988l-1.5,5.609h-4.92l-2.922-6.698l-0.188-0.428l-0.354-0.323
			l-13.4-12.137l0.396-5.68c2.658-0.679,5.451-1.711,8.342-2.926l4.021-0.109l-0.246-8.979c1.396,0.474,2.523,1.129,3.438,1.933
			c1.48,1.294,2.471,3.045,3.191,5.053l4.777-1.705c-0.301-0.853-0.652-1.672-1.049-2.46l0.535-0.224
			c13.834-5.745,28.08-8.611,36.648,11.491L463.333,53.101z M475.444,35.103c-0.313,0.265-0.781,0.438-1.25,0.492
			c-0.396,0.046-0.742,0.017-0.91-0.105c-0.141-0.102,0.039-0.6,0.867-1.754c0.121-0.162,0.25-0.333,0.383-0.508
			c0.27,0.191,0.494,0.389,0.67,0.601C475.735,34.464,475.704,34.885,475.444,35.103z M433.43,20.348h17.502v-3.817H433.43V20.348z
			 M418.434,25.981c-1.84,0-3.33,1.496-3.33,3.338c0,1.845,1.49,3.337,3.33,3.337s3.33-1.492,3.33-3.337
			C421.764,27.477,420.274,25.981,418.434,25.981z M445.454-2.431c0.646,0,1.242-0.082,1.838-0.225v-2.016
			c-0.498,0.123-1.016,0.182-1.588,0.182c-2.16,0-3.674-1.058-4.369-2.807h4.467v-1.648h-4.838
			c-0.025-0.225-0.025-0.471-0.025-0.715s0-0.467,0.025-0.711h4.838v-1.647h-4.467c0.695-1.73,2.209-2.81,4.369-2.81
			c0.572,0,1.09,0.063,1.588,0.184v-2.033c-0.57-0.145-1.217-0.204-1.838-0.204c-3.725,0-6.33,1.854-7.199,4.863h-1.486v1.647h1.217
			c-0.023,0.244-0.023,0.467-0.023,0.711s0,0.49,0.023,0.715h-1.217v1.648h1.486C439.124-4.287,441.729-2.431,445.454-2.431z"/>
	</g>
</g>
</svg>
