<?xml version="1.0" encoding="utf-8"?>
<!-- Generator: Adobe Illustrator 16.0.0, SVG Export Plug-In . SVG Version: 6.00 Build 0)  -->
<!DOCTYPE svg PUBLIC "-//W3C//DTD SVG 1.1//EN" "http://www.w3.org/Graphics/SVG/1.1/DTD/svg11.dtd">
<svg version="1.1" id="圖層_1" xmlns="http://www.w3.org/2000/svg" xmlns:xlink="http://www.w3.org/1999/xlink" x="0px" y="0px"
	 width="110.551px" height="90.708px" viewBox="249.905 -27.508 110.551 90.708"
	 enable-background="new 249.905 -27.508 110.551 90.708" xml:space="preserve">
<g>
	<g>
		<path fill="#FFA727" d="M306.286-4.598c-11.918,0-22.175,7.075-26.824,17.252l-4.858-6.109l-2.756,0.977l1.776,3.841l-3.686-1.275
			l-4.662-6.814l-2.255,1.045l1.857,4.019l-3.339-1.155l-4.423-7.135l-2.754,1.275l3.195,6.907l-6.77,3.48l1.435,2.792l7.985-3.024
			l3.298,1.141l-4.058,2.088l1.258,2.447l7.99-2.739l3.81,1.318l-4.231,2.177l1.221,2.375l8.078-2.089
			c-0.501,2.155-0.774,4.397-0.774,6.705c0,16.289,13.198,29.5,29.486,29.5c16.28,0,29.487-13.212,29.487-29.5
			C335.773,8.609,322.566-4.598,306.286-4.598z M306.286,49.626c-13.626,0-24.712-11.091-24.712-24.724
			c0-1.995,0.244-3.932,0.691-5.791l6.405,2.216c-0.232,1.156-0.357,2.351-0.357,3.575c0,9.931,8.048,17.982,17.973,17.982
			s17.973-8.051,17.973-17.982c0-9.931-8.048-17.981-17.973-17.981c-7.116,0-13.249,4.149-16.16,10.152l-6.41-2.218
			c3.856-8.638,12.52-14.676,22.57-14.676c13.624,0,24.712,11.093,24.712,24.724C330.998,38.535,319.91,49.626,306.286,49.626z
			 M300.66,25.476c0.287,2.856,2.695,5.085,5.626,5.085c3.12,0,5.656-2.534,5.656-5.66c0-3.121-2.536-5.659-5.656-5.659
			c-1.702,0-3.225,0.757-4.261,1.948l-7.028-2.432c2.183-3.998,6.423-6.717,11.289-6.717c7.085,0,12.854,5.772,12.854,12.86
			c0,7.094-5.77,12.861-12.854,12.861c-7.09,0-12.854-5.767-12.854-12.861c0-0.638,0.063-1.261,0.152-1.875L300.66,25.476z"/>
	</g>
</g>
</svg>
