<?xml version="1.0" encoding="utf-8"?>
<!-- Generator: Adobe Illustrator 16.0.0, SVG Export Plug-In . SVG Version: 6.00 Build 0)  -->
<!DOCTYPE svg PUBLIC "-//W3C//DTD SVG 1.1//EN" "http://www.w3.org/Graphics/SVG/1.1/DTD/svg11.dtd">
<svg version="1.1" id="圖層_1" xmlns="http://www.w3.org/2000/svg" xmlns:xlink="http://www.w3.org/1999/xlink" x="0px" y="0px"
	 width="110.551px" height="90.708px" viewBox="119.905 109.493 110.551 90.708"
	 enable-background="new 119.905 109.493 110.551 90.708" xml:space="preserve">
<g>
	<g>
		<path fill="#FFA727" d="M190.396,145.83c-0.08-1.027-0.736-1.691-1.786-1.691l-7.639-0.442c-0.616,0-1.115-0.5-1.115-1.115
			c0.288-1.783,0.733-3.582,0.919-5.379c0.131-1.271-0.223-2.454-1.729-2.454c-0.824,0-1.521,0.562-1.721,1.318
			c-0.687,2.594-1.848,5.193-3.54,7.29c-0.74,0.916-1.556,1.434-2.504,2.129c-0.088,0.063-0.307,0.183-0.563,0.314v9.373
			c3.478,1.485,7.434,2.788,11.34,2.788c1.436,0,2.49-0.067,3.869-0.293c0.712-0.117,1.51-0.35,1.939-0.974
			c0.493-0.719,0.355-1.72-0.305-2.3h0.156c1.73,0,2.675-3.394,0.794-3.394h0.098c0.986,0,1.783-0.798,1.783-1.782
			c0-0.985-0.335-1.784-1.321-1.784C189.933,147.434,190.46,146.635,190.396,145.83z M166.787,155.331h2.379v-9.681h-2.379V155.331z
			 M203.413,139.385c-0.901-2.707-0.075-6.4-1.805-8.743c-1.671-2.259-5.417-2.573-7.827-4.294c-2.41-1.723-3.922-5.167-6.599-6.014
			c-2.776-0.878-6.004,1.1-8.857,1.124c-2.878,0.027-6.14-1.889-8.874-0.978c-2.703,0.9-4.164,4.374-6.507,6.106
			c-2.261,1.667-6.025,2.017-7.748,4.428c-1.722,2.408-0.833,6.085-1.678,8.765c-0.878,2.775-3.692,5.285-3.669,8.135
			c0.025,2.879,2.895,5.346,3.803,8.076c0.9,2.707,0.074,6.402,1.803,8.741c1.672,2.261,5.42,2.575,7.83,4.296
			c2.41,1.723,3.92,5.166,6.599,6.014c2.776,0.88,6.004-1.101,8.855-1.125c2.88-0.025,6.142,1.89,8.872,0.979
			c2.705-0.9,4.168-4.373,6.508-6.105c2.263-1.668,6.027-2.019,7.75-4.428c1.722-2.41,0.832-6.085,1.678-8.765
			c0.879-2.775,3.691-5.286,3.666-8.135C207.191,144.582,204.323,142.117,203.413,139.385z M196.58,160.584
			c-7.11,9.95-20.99,12.261-30.941,5.149c-9.95-7.109-12.264-20.99-5.154-30.94c7.11-9.951,20.993-12.262,30.943-5.15
			C201.378,136.752,203.689,150.633,196.58,160.584z M154.365,167.87c-0.607-0.434-1.096-0.905-1.494-1.445
			c-1.348-1.821-1.496-4.071-1.637-6.25c-0.079-1.217-0.163-2.363-0.445-3.336l-13.655,11.198l9.04,2.742l0.4,8.773l11.868-9.731
			c-0.075-0.029-0.146-0.059-0.222-0.085C156.893,169.219,155.515,168.692,154.365,167.87z M169.121,178.036
			c-0.639-0.2-1.244-0.512-1.853-0.946c-1.149-0.82-2.094-1.952-3.012-3.04c-0.052-0.064-0.102-0.121-0.154-0.184l-5.358,14.383
			l8.43-2.47l5.521,7.668l6.171-16.546c-1.013,0.046-2.124,0.34-3.301,0.657C173.456,178.131,171.279,178.719,169.121,178.036z"/>
	</g>
</g>
</svg>
