<?xml version="1.0" encoding="utf-8"?>
<!-- Generator: Adobe Illustrator 16.0.0, SVG Export Plug-In . SVG Version: 6.00 Build 0)  -->
<!DOCTYPE svg PUBLIC "-//W3C//DTD SVG 1.1//EN" "http://www.w3.org/Graphics/SVG/1.1/DTD/svg11.dtd">
<svg version="1.1" id="圖層_1" xmlns="http://www.w3.org/2000/svg" xmlns:xlink="http://www.w3.org/1999/xlink" x="0px" y="0px"
	 width="110.551px" height="90.708px" viewBox="383.905 109.493 110.551 90.708"
	 enable-background="new 383.905 109.493 110.551 90.708" xml:space="preserve">
<g>
	<g>
		<path fill="#FFA727" d="M456.039,147.484c0.147,0.11,0.303,0.166,0.473,0.166c0.168,0,0.325-0.056,0.472-0.166
			c0.143-0.11,0.216-0.281,0.216-0.514l0.018-0.68c0.988-0.081,1.762-0.397,2.321-0.95c0.557-0.55,0.837-1.279,0.837-2.187
			c0-0.499-0.089-0.926-0.264-1.28c-0.174-0.354-0.403-0.655-0.688-0.905c-0.284-0.25-0.607-0.46-0.968-0.627
			c-0.36-0.169-0.721-0.323-1.083-0.462l0.091-3.032c0.161,0.059,0.3,0.128,0.418,0.209c0.116,0.081,0.214,0.151,0.297,0.21
			c0.128,0.104,0.263,0.197,0.408,0.278c0.147,0.081,0.311,0.122,0.497,0.122c0.314,0,0.539-0.084,0.671-0.253
			c0.134-0.168,0.201-0.386,0.201-0.653c0-0.127-0.051-0.282-0.156-0.462c-0.104-0.18-0.26-0.359-0.463-0.54
			c-0.203-0.18-0.46-0.349-0.769-0.505c-0.307-0.157-0.665-0.276-1.072-0.357l0.037-0.871c0-0.221-0.072-0.39-0.22-0.505
			c-0.147-0.116-0.302-0.175-0.469-0.175c-0.169,0-0.327,0.059-0.472,0.175c-0.146,0.115-0.218,0.284-0.218,0.505l-0.02,0.784
			c-1.033,0.059-1.837,0.38-2.404,0.967c-0.571,0.586-0.856,1.345-0.856,2.273c0,0.488,0.09,0.906,0.271,1.255
			s0.421,0.647,0.715,0.897c0.297,0.25,0.627,0.461,0.993,0.637c0.367,0.174,0.739,0.336,1.111,0.487l-0.088,3.084
			c-0.443-0.14-0.786-0.332-1.031-0.575c-0.127-0.116-0.266-0.224-0.42-0.323c-0.148-0.099-0.321-0.153-0.521-0.165
			c-0.606,0-0.909,0.273-0.909,0.819c0,0.278,0.091,0.531,0.271,0.757c0.182,0.227,0.411,0.425,0.69,0.593
			c0.28,0.169,0.586,0.312,0.926,0.428c0.337,0.115,0.655,0.202,0.957,0.261l-0.017,0.767
			C455.822,147.203,455.893,147.374,456.039,147.484z M457.322,141.935c0.302,0.163,0.546,0.352,0.732,0.566
			c0.185,0.215,0.28,0.474,0.28,0.774c0,0.373-0.097,0.656-0.287,0.854c-0.193,0.197-0.458,0.326-0.797,0.383L457.322,141.935z
			 M455.229,138.756c-0.197-0.203-0.297-0.468-0.297-0.793c0-0.372,0.104-0.668,0.313-0.889c0.211-0.22,0.489-0.354,0.838-0.4
			l-0.071,2.631C455.69,139.141,455.427,138.959,455.229,138.756z M463.306,176.167h-46.144c-0.361,0-0.654,0.293-0.654,0.655
			c0,0.361,0.293,0.655,0.654,0.655h46.144c0.363,0,0.655-0.294,0.655-0.655C463.962,176.46,463.67,176.167,463.306,176.167z
			 M463.306,182.002h-46.144c-0.361,0-0.654,0.293-0.654,0.655c0,0.361,0.293,0.655,0.654,0.655h46.144
			c0.363,0,0.655-0.294,0.655-0.655C463.962,182.295,463.67,182.002,463.306,182.002z M417.5,147.362h28.435
			c0.368,0,0.664-0.297,0.664-0.663c0-0.365-0.296-0.662-0.664-0.662H417.5c-0.366,0-0.664,0.297-0.664,0.662
			C416.836,147.065,417.134,147.362,417.5,147.362z M417.5,141.16h28.435c0.368,0,0.664-0.297,0.664-0.663
			c0-0.365-0.296-0.661-0.664-0.661H417.5c-0.366,0-0.664,0.296-0.664,0.661C416.836,140.863,417.134,141.16,417.5,141.16z
			 M417.5,134.959h28.435c0.368,0,0.664-0.297,0.664-0.663c0-0.365-0.296-0.662-0.664-0.662H417.5c-0.366,0-0.664,0.297-0.664,0.662
			C416.836,134.662,417.134,134.959,417.5,134.959z M467.72,188.459h-55.368v-63.361h49.084v5.201c0,0.548,0.443,0.992,0.994,0.992
			h5.29v9.365l3.313-3.067v-7.307c0-0.442-0.179-0.867-0.494-1.178l-6.947-6.842c-0.31-0.306-0.727-0.477-1.162-0.477h-51.735
			c-0.916,0-1.657,0.741-1.657,1.656v66.672c0,0.915,0.741,1.656,1.657,1.656h58.68c0.918,0,1.659-0.741,1.659-1.656v-31.546
			l-3.313,3.067V188.459z M416.836,159.818c0,0.399,0.324,0.723,0.724,0.723h18.193c0.398,0,0.722-0.323,0.722-0.723v-6.421
			c0-0.399-0.323-0.723-0.722-0.723h-18.193c-0.399,0-0.724,0.323-0.724,0.723V159.818z M416.836,169.878
			c0,0.397,0.324,0.722,0.724,0.722h18.193c0.398,0,0.722-0.324,0.722-0.722v-6.422c0-0.399-0.323-0.723-0.722-0.723h-18.193
			c-0.399,0-0.724,0.323-0.724,0.723V169.878z M418.282,164.177h16.748v4.977h-16.748V164.177z M453.461,154.119
			c0.178-0.323,0.394-0.627,0.668-0.885l0.605-0.56h-15.562c-0.398,0-0.723,0.323-0.723,0.723v6.421
			c0,0.399,0.324,0.723,0.723,0.723h11.372l0.648-1.445h-11.298v-4.977H453.461z M462.193,165.686v3.468h-22.298v-4.977h9.026
			c0.017-0.042,0.028-0.085,0.047-0.127l0.591-1.317h-10.387c-0.398,0-0.723,0.323-0.723,0.723v6.422
			c0,0.397,0.324,0.722,0.723,0.722h23.743c0.399,0,0.724-0.324,0.724-0.722v-4.74c-0.077,0.035-0.146,0.08-0.227,0.11
			L462.193,165.686z M490.722,135.517l-5.649-6.09c-0.437-0.471-1.172-0.499-1.641-0.063l-0.852,0.789l-1.936,1.79l-0.113,0.105
			l-24.771,22.924c-0.112,0.106-0.205,0.234-0.269,0.376l-4.351,9.687c-0.193,0.425-0.11,0.921,0.207,1.262
			c0.213,0.23,0.506,0.359,0.806,0.37c0.146,0.006,0.294-0.015,0.438-0.066l6.352-2.283l3.648-1.311
			c0.146-0.054,0.28-0.135,0.393-0.242l27.567-25.513l0.106-0.098c0.223-0.208,0.356-0.497,0.369-0.806
			C491.041,136.043,490.928,135.744,490.722,135.517z M461.585,160.905l-3.904,1.403l-1.868-2.012l1.701-3.781l26.643-24.662
			l1.877,2.021l-25.353,23.464c-0.232,0.218-0.247,0.582-0.031,0.817c0.112,0.118,0.254,0.181,0.403,0.187
			c0.15,0.006,0.3-0.046,0.418-0.155l25.352-23.462l1.406,1.518L461.585,160.905z"/>
	</g>
</g>
</svg>
