<?xml version="1.0" encoding="utf-8"?>
<!-- Generator: Adobe Illustrator 16.0.0, SVG Export Plug-In . SVG Version: 6.00 Build 0)  -->
<!DOCTYPE svg PUBLIC "-//W3C//DTD SVG 1.1//EN" "http://www.w3.org/Graphics/SVG/1.1/DTD/svg11.dtd">
<svg version="1.1" id="圖層_1" xmlns="http://www.w3.org/2000/svg" xmlns:xlink="http://www.w3.org/1999/xlink" x="0px" y="0px"
	 width="110.551px" height="90.708px" viewBox="-14.095 109.493 110.551 90.708"
	 enable-background="new -14.095 109.493 110.551 90.708" xml:space="preserve">
<g>
	<g>
		<path fill="#FFA727" d="M58.297,139.509c-0.349-0.521-0.933-0.834-1.556-0.834H25.929c-0.624,0-1.206,0.313-1.556,0.834
			l-9.627,14.411c-0.451,0.674-0.424,1.563,0.067,2.208l25.035,32.919c0.355,0.467,0.906,0.74,1.488,0.74
			c0.584,0,1.135-0.273,1.49-0.74l25.029-32.919c0.492-0.646,0.519-1.534,0.068-2.208L58.297,139.509z M54.655,142.459l-4.549,10.12
			l-6.27-10.12H54.655z M48.233,153.842H34.438l6.898-11.133L48.233,153.842z M38.839,142.459l-6.272,10.12l-4.55-10.12H38.839z
			 M26.1,143.696l4.561,10.146H19.323L26.1,143.696z M19.53,156.112h12.019l6.665,24.564L19.53,156.112z M41.337,183.593
			l-7.453-27.48H48.79L41.337,183.593z M44.462,180.677l6.661-24.564h12.019L44.462,180.677z M52.01,153.842l4.559-10.146
			l6.778,10.146H52.01z M49.512,132.178c0.143,1.109,1.149,1.889,2.246,1.744c1.1-0.144,1.873-1.157,1.73-2.266l-1.02-6.126
			c-0.143-1.112-1.147-1.89-2.246-1.744c-1.098,0.143-1.875,1.153-1.73,2.266L49.512,132.178z M61.718,134.785
			c0.969,0.545,2.188,0.196,2.729-0.78l2.801-5.531c0.543-0.979,0.195-2.207-0.773-2.752c-0.965-0.544-2.186-0.2-2.729,0.779
			l-2.801,5.532C60.403,133.01,60.753,134.241,61.718,134.785z M76.302,137.937c-0.35-1.059-1.48-1.634-2.537-1.278l-5.764,2.184
			c-1.053,0.354-1.618,1.5-1.268,2.559c0.351,1.061,1.484,1.632,2.536,1.278l5.766-2.184
			C76.091,140.141,76.653,138.998,76.302,137.937z"/>
	</g>
</g>
</svg>
