<?xml version="1.0" encoding="utf-8"?>
<!-- Generator: Adobe Illustrator 16.0.0, SVG Export Plug-In . SVG Version: 6.00 Build 0)  -->
<!DOCTYPE svg PUBLIC "-//W3C//DTD SVG 1.1//EN" "http://www.w3.org/Graphics/SVG/1.1/DTD/svg11.dtd">
<svg version="1.1" id="圖層_1" xmlns="http://www.w3.org/2000/svg" xmlns:xlink="http://www.w3.org/1999/xlink" x="0px" y="0px"
	 width="110.551px" height="90.708px" viewBox="249.905 109.493 110.551 90.708"
	 enable-background="new 249.905 109.493 110.551 90.708" xml:space="preserve">
<g>
	<g>
		<path fill="#FFA727" d="M333.644,127.286h-64.249c-1.325,0-2.397,1.049-2.397,2.344v54.297c0,1.295,1.072,2.344,2.397,2.344
			h64.249c1.325,0,2.397-1.049,2.397-2.344V129.63C336.042,128.335,334.969,127.286,333.644,127.286z M331.247,181.584h-59.454
			v-45.567h59.454V181.584z M277.182,155.47h48.643c0.795,0,1.438-0.63,1.438-1.406v-10.432c0-0.776-0.643-1.406-1.438-1.406
			h-48.643c-0.795,0-1.438,0.63-1.438,1.406v10.432C275.744,154.841,276.387,155.47,277.182,155.47z M277.036,175.788h21.008
			c0.796,0,1.439-0.629,1.439-1.407v-13.646c0-0.777-0.644-1.406-1.439-1.406h-21.008c-0.795,0-1.438,0.629-1.438,1.406v13.646
			C275.597,175.159,276.241,175.788,277.036,175.788z M278.475,162.14h18.131v10.835h-18.131V162.14z M325.858,159.329h-21.009
			c-0.794,0-1.439,0.629-1.439,1.406v13.646c0,0.778,0.646,1.407,1.439,1.407h21.009c0.794,0,1.438-0.629,1.438-1.407v-13.646
			C327.296,159.958,326.652,159.329,325.858,159.329z M324.419,172.975h-18.131V162.14h18.131V172.975z M356.133,152.225
			c-1.72-2.014-3.869-3.55-6.276-4.53l0.016-3.788c0.001-0.32-0.182-0.614-0.472-0.762c-0.292-0.144-0.643-0.119-0.907,0.066
			l-8.039,5.658c-0.225,0.161-0.359,0.414-0.36,0.688c-0.002,0.272,0.13,0.527,0.355,0.689l7.987,5.726
			c0.266,0.188,0.614,0.218,0.905,0.073c0.297-0.145,0.48-0.437,0.48-0.758l0.015-3.153c1.187,0.694,2.266,1.571,3.177,2.64
			c2.127,2.484,3.136,5.631,2.84,8.856c-0.285,3.138-1.782,6.001-4.214,8.07c-0.845,0.718-0.934,1.975-0.197,2.801
			c0.735,0.827,2.02,0.915,2.865,0.194c3.226-2.743,5.212-6.547,5.594-10.711c0.042-0.466,0.064-0.931,0.067-1.394
			C359.985,158.804,358.647,155.166,356.133,152.225z"/>
	</g>
</g>
</svg>
