<?xml version="1.0" encoding="utf-8"?>
<!-- Generator: Adobe Illustrator 16.0.0, SVG Export Plug-In . SVG Version: 6.00 Build 0)  -->
<!DOCTYPE svg PUBLIC "-//W3C//DTD SVG 1.1//EN" "http://www.w3.org/Graphics/SVG/1.1/DTD/svg11.dtd">
<svg version="1.1" id="圖層_1" xmlns="http://www.w3.org/2000/svg" xmlns:xlink="http://www.w3.org/1999/xlink" x="0px" y="0px"
	 width="273px" height="267px" viewBox="0 0 273 267" enable-background="new 0 0 273 267" xml:space="preserve">
<path fill="#818182" d="M207.167,149.914c-0.179-0.555-0.411-0.737-0.494-0.737c-0.069,0-0.315,0.109-0.606,0.625l-3.802,6.79
	c-0.616,1.105-1.782,1.789-3.053,1.789c-0.603,0-1.184-0.153-1.709-0.447l-7.031-3.953c-0.817-0.451-1.402-1.2-1.648-2.104
	c-0.255-0.901-0.146-1.843,0.309-2.648l3.796-6.788c0.262-0.458,0.283-0.76,0.232-0.85c-0.03-0.04-0.16-0.094-0.381-0.094
	c-0.149,0-0.316,0.018-0.508,0.065c-0.077,0.016-7.899,1.919-10.609,6.743c-2.647,4.716-2.405,10.482,0.616,15.061l0.219,0.331
	l-5.265,9.375c-0.53,0.947-3.787,6.743-7.819,13.923l-0.227,0.395l-0.449-0.071c-16.025-2.783-24.151-4.096-24.274-4.11
	l-0.252-0.022l-0.165-0.177c-0.124-0.131-12.317-13.038-13.233-13.935c-1.176-1.169,0.353-4.214,0.847-5.119l0.095-0.167
	l0.172-0.091c0.169-0.09,0.87-0.381,2.964-0.381c1.579,0,3.557,0.167,5.896,0.493c0.138,0.012,0.28,0.033,0.422,0.033
	c6.357,0,16.128-17.814,16.563-19.975c-0.262-0.408-1.461-1.229-2.354-1.835c-1.458-0.997-2.07-1.534-2.813-2.675
	c-0.388-0.591-0.434-0.327-0.077-2.154l0.081-0.39l0.388-0.104c2.628-0.709,5.65-2.478,6.357-4.499
	c0.278-0.798,0.143-1.547-0.409-2.296l-0.697-0.931l1.158-0.097c7.725-0.643,15.086-1.773,16.083-2.47
	c0.776-0.535,0.707-1.639,0.628-2.163c-14.901-6.169-14.909-6.173-14.915-6.181c-2.239-1.031-2.485-4.171-2.671-6.467
	c-0.033-0.526-0.08-1.031-0.138-1.432c-0.653-4.443-1.93-6.419-4.287-10.376c-4.319-7.238-14.541-13.059-23.265-13.244
	c-0.299-0.007-0.599-0.007-0.896-0.007c-15.054,0-29.456,7.22-36.458,19.268c-3.655,6.293-4.494,12.771-3.248,20.866l0.095,0.567
	l-0.554,0.159c-2.324,0.655-3.375,2.199-3.208,3.38c0.114,0.841,0.829,1.344,1.916,1.344c0.329,0,0.686-0.047,1.06-0.139
	l0.895-0.206l-0.099,0.907c-0.099,1.021,0.091,1.813,0.573,2.348c0.742,0.81,2.05,0.934,2.773,0.934
	c0.437,0,0.734-0.041,0.738-0.041c0,0-2.235,4.084-0.438,6.628c0.891,1.247,2.381,1.781,3.827,2.049
	c0.585,0.106,3.295,0.684,4.396,0.287c-0.847,0.517-2.452,1.534-2.42,3.408c0.041,2.246,1.908,4.637,4.055,5.177
	c2.481,0.625,5.501,0.309,6.446,3.34c0.729,2.354-1.519,4.465-2.377,5.22l-4.069,3.954l-0.353-0.103
	c-2.757-0.773-4.516-1.483-5.354-2.165c-3.016-2.449-4.908-5.745-6.736-8.921c-3.092-5.384-5.765-10.038-13.105-10.122h-0.188
	c-6.481,0-24.257,3.065-39.005,6.1c-18.293,3.766-29.109,6.831-30.996,8.094c0.91,0.811,4.364,2.991,15.039,2.991
	c7.554,0,17.346-0.334,28.844-2.47l0.162,0.507c-0.172,0.04-16.404,4.059-21.849,6.624c0.029,0.058,0.062,0.124,0.114,0.194
	c0.347,0.435,1.757,1.089,7.23,1.452c8.25,0.545,27.877-2.771,27.877-2.771l0.226,0.476c-0.047,0.007-3.96,1.271-7.896,2.808
	c-5.918,2.304-7.454,3.494-7.854,3.951c1.168,0.207,4.294,0.675,8.599,0.675c6.945,0,14.199-0.45,20.499-2.777l0.286,0.397
	c-0.02,0.011-2.018,1.145-3.934,2.485c-3.113,2.169-4.521,2.638-3.458,3.252c0.322,0.155,1.362,0.566,3.415,0.566
	c2.859,0,8.788,1.007,17.292-2.804l0.455-0.211l-0.083,2.51l-10.706,8.571l-0.232,0.012c-8.197,0.393-11.256,3.61-13.726,6.754
	c-3.279,4.174-1.598,10.423-1.579,10.495l0.136,0.494l-18.232,11.99c-3.913-1.417-7.822-2.827-11.736-4.237
	c-2.956-1.075-6.137-2.731-9.097-3.808c-3.041-1.098-5.338-2.579-8.641-1.715c-1.343,0.356-5.602,1.446-4.68,3.678
	c0.412,0.995,1.716,1.497,2.518,2.106c1.362,1.025,2.722,2.072,4.066,3.125c2.834,2.217,5.623,4.477,8.393,6.773
	c4.554,3.757,9.062,7.571,13.505,11.459c13.286-0.407,28.678-6.082,28.828-6.14l0.649-0.262l0.207,0.674
	c0.054,0.189,1.17,4.797,0.134,8.278l-0.087,0.275l-0.27,0.124c-9.554,1.619-31.871,15.267-33.399,15.964
	c-1.893,0.865-3.09,1.482-3.642,3.555c-0.579,2.113-2.365,5.392,1.371,4.758c1.402-0.232,2.811-0.464,4.221-0.696
	c4.071-0.676,49.02-8.444,52.206-10.028c3.994-10.297,3.914-23.05,3.914-23.188l0.008-0.704l0.705,0.065
	c0.744,0.079,1.482,0.122,2.193,0.122c12.528,0,17.621-11.837,20.997-19.67c1.743-4.04,4.335-7.274,4.335-7.274h0.034
	c5.144,0.117,17.438,4.077,18.681,4.404c5.31-0.052,7.059-0.095,16.06-1.773l1.366-0.248L151.4,219.046
	c-1.357,2.42-0.495,5.501,1.932,6.86l2.078,1.17c0.752,0.422,1.599,0.639,2.452,0.639c1.835,0,3.521-0.98,4.411-2.564l14.947-26.531
	l0.563,0.307c1.914,1.061,4.153-0.481,5.37-2.465l1.704-2.78c0.653-1.068,0.992-2.293,0.93-3.362
	c-0.056-0.792-0.337-1.881-1.458-2.564l-0.779-0.473l9.824-17.493l0.396,0.018c0.175,0.011,0.353,0.011,0.527,0.011
	c5.265,0.003,10.108-2.812,12.652-7.335C209.645,157.656,207.185,149.99,207.167,149.914z M160.871,222.679
	c-0.663,1.171-1.9,1.905-3.251,1.905c-0.637,0-1.272-0.168-1.824-0.48c-1.788-1.01-2.435-3.285-1.424-5.071
	c0.658-1.17,1.906-1.905,3.252-1.905c0.63,0,1.267,0.168,1.815,0.48C161.228,218.611,161.868,220.885,160.871,222.679z"/>
<path fill="#FB8C00" d="M206.544,8.254c-32.258,0-58.5,20.262-58.5,45.167c0,18.914,15.342,35.865,38.262,42.384
	c-0.221,4.225-1.348,7.947-3.354,11.075c-0.228,0.354-0.209,0.813,0.047,1.147c0.193,0.252,0.488,0.393,0.795,0.393
	c0.1,0,0.201-0.015,0.301-0.046c0.393-0.124,9.588-3.074,17.507-9.954c1.737,0.113,3.358,0.168,4.942,0.168
	c32.256,0,58.5-20.262,58.5-45.167C265.044,28.516,238.8,8.254,206.544,8.254z"/>
<g>
	<path fill="#FFFFFF" d="M176.973,46.126l-1.561,3.541h-1.7l6.281-14.003h1.66l6.262,14.003h-1.74l-1.561-3.541H176.973z
		 M180.773,37.484l-3.121,7.102h6.281L180.773,37.484z"/>
	<path fill="#FFFFFF" d="M197.732,49.667l-4.181-10.542h1.66l3.361,8.922l3.34-8.922h1.581l-4.142,10.542H197.732z"/>
	<path fill="#FFFFFF" d="M214.953,44.386c0,3.161-2.221,5.341-5.341,5.341c-3.121,0-5.342-2.181-5.342-5.341
		c0-3.141,2.221-5.301,5.342-5.301C212.732,39.085,214.953,41.245,214.953,44.386z M205.831,44.406c0,2.321,1.58,3.921,3.781,3.921
		c2.2,0,3.78-1.6,3.78-3.921c0-2.3-1.58-3.901-3.78-3.901C207.411,40.505,205.831,42.105,205.831,44.406z"/>
	<path fill="#FFFFFF" d="M223.133,48.947c-0.74,0.5-1.541,0.78-2.381,0.8c-1.54,0-2.681-0.92-2.681-3v-6.021h-1.521v-1.26h1.521
		v-2.781h1.541v2.781l3.34-0.02v1.28h-3.34v5.741c0,1.28,0.5,1.76,1.399,1.76c0.541,0,1.101-0.18,1.681-0.54L223.133,48.947z"/>
	<path fill="#FFFFFF" d="M227.052,41.465c0.7-1.541,2-2.38,3.78-2.4v1.58c-2.22-0.04-3.601,1.34-3.78,3.421v5.601h-1.561V39.125
		h1.561V41.465z"/>
	<path fill="#FFFFFF" d="M242.014,45.006h-8.602c0.279,2.061,1.78,3.361,3.82,3.361c1.301,0,2.44-0.46,3.261-1.32l0.86,0.92
		c-1,1.12-2.48,1.76-4.241,1.76c-3.101,0-5.241-2.181-5.241-5.321s2.161-5.321,5.222-5.321
		C240.493,39.065,242.174,41.425,242.014,45.006z M240.613,43.726c-0.1-2.021-1.46-3.301-3.521-3.301
		c-2.001,0-3.441,1.3-3.681,3.301H240.613z"/>
	<path fill="#FFFFFF" d="M178.233,60.025l-0.6,1.24c-0.82-0.52-1.881-0.86-2.861-0.86c-1.18,0-2.08,0.42-2.08,1.4
		c0,2.341,5.881,1.14,5.881,4.921c0,2.08-1.84,3-3.86,3c-1.5,0-3.041-0.52-4.041-1.48l0.601-1.18c0.899,0.84,2.26,1.34,3.5,1.34
		s2.241-0.46,2.261-1.5c0.061-2.541-5.841-1.24-5.821-4.981c0-2.021,1.74-2.86,3.661-2.86
		C176.133,59.065,177.354,59.425,178.233,60.025z"/>
	<path fill="#FFFFFF" d="M190.214,65.006h-8.602c0.279,2.061,1.78,3.361,3.82,3.361c1.301,0,2.44-0.46,3.261-1.32l0.86,0.92
		c-1,1.12-2.48,1.76-4.241,1.76c-3.101,0-5.241-2.181-5.241-5.321s2.161-5.321,5.222-5.321
		C188.693,59.065,190.374,61.425,190.214,65.006z M188.813,63.726c-0.1-2.021-1.46-3.301-3.521-3.301
		c-2.001,0-3.441,1.3-3.681,3.301H188.813z"/>
	<path fill="#FFFFFF" d="M194.452,61.465c0.7-1.541,2-2.38,3.78-2.4v1.58c-2.22-0.04-3.601,1.34-3.78,3.421v5.601h-1.561V59.125
		h1.561V61.465z"/>
	<path fill="#FFFFFF" d="M202.692,69.667l-4.181-10.542h1.66l3.361,8.922l3.34-8.922h1.581l-4.142,10.542H202.692z"/>
	<path fill="#FFFFFF" d="M212.072,56.104c0,0.62-0.44,1.081-1.021,1.081s-1.02-0.46-1.02-1.081s0.439-1.08,1.02-1.08
		S212.072,55.484,212.072,56.104z M210.292,69.667V59.125h1.54v10.542H210.292z"/>
	<path fill="#FFFFFF" d="M223.854,60.645l-0.86,1.1c-0.8-0.76-1.86-1.22-3.141-1.22c-2.181,0-3.74,1.581-3.74,3.881
		c0,2.301,1.56,3.901,3.74,3.901c1.381,0,2.521-0.48,3.261-1.36l0.9,0.96c-0.94,1.14-2.4,1.82-4.221,1.82
		c-3.061,0-5.222-2.181-5.222-5.321s2.181-5.321,5.222-5.321C221.493,59.065,222.894,59.645,223.854,60.645z"/>
	<path fill="#FFFFFF" d="M235.934,65.006h-8.602c0.279,2.061,1.78,3.361,3.82,3.361c1.301,0,2.44-0.46,3.261-1.32l0.86,0.92
		c-1,1.12-2.48,1.76-4.241,1.76c-3.101,0-5.241-2.181-5.241-5.321s2.161-5.321,5.222-5.321
		C234.413,59.065,236.094,61.425,235.934,65.006z M234.533,63.726c-0.1-2.021-1.46-3.301-3.521-3.301
		c-2.001,0-3.441,1.3-3.681,3.301H234.533z"/>
	<path fill="#FFFFFF" d="M245.371,68.787c0,0.6-0.42,1.041-0.98,1.041c-0.54,0-0.96-0.44-0.96-1.041s0.42-1.04,0.96-1.04
		C244.951,67.747,245.371,68.187,245.371,68.787z M244.911,65.446h-1.04l-0.221-6.162v-3.38h1.501v3.38L244.911,65.446z"/>
</g>
</svg>
