<?xml version="1.0" encoding="utf-8"?>
<!-- Generator: Adobe Illustrator 16.0.0, SVG Export Plug-In . SVG Version: 6.00 Build 0)  -->
<!DOCTYPE svg PUBLIC "-//W3C//DTD SVG 1.1//EN" "http://www.w3.org/Graphics/SVG/1.1/DTD/svg11.dtd">
<svg version="1.1" id="圖層_1" xmlns="http://www.w3.org/2000/svg" xmlns:xlink="http://www.w3.org/1999/xlink" x="0px" y="0px"
	 width="200px" height="200px" viewBox="0 0 200 200" enable-background="new 0 0 200 200" xml:space="preserve">
<g>
	<path fill="#0097A7" d="M171.957,132.801c-6.639,0-12.011,5.376-12.011,12.015c0,6.629,5.372,12.008,12.011,12.008
		c6.632,0,12.012-5.379,12.012-12.008C183.969,138.177,178.589,132.801,171.957,132.801z"/>
	<path fill="#0097A7" d="M28.306,119.005c-6.64,0-12.016,5.376-12.016,12.015c0,6.629,5.376,12.012,12.016,12.012
		c6.628,0,12.011-5.383,12.011-12.012C40.317,124.381,34.934,119.005,28.306,119.005z"/>
	<path fill="#0097A7" d="M46.724,31.815c6.628,0,12.004-5.38,12.004-12.016c0-6.635-5.376-12.015-12.004-12.015
		c-6.64,0-12.016,5.38-12.016,12.015C34.708,26.436,40.084,31.815,46.724,31.815z"/>
	<path fill="#0097A7" d="M64.562,44.393l-4.66-8.686c-1.068-1.991-3.539-2.745-5.544-1.672c-1.987,1.064-2.741,3.546-1.672,5.544
		l4.67,8.687c0.732,1.372,2.141,2.163,3.603,2.163c0.656,0,1.32-0.161,1.938-0.491C64.884,48.869,65.633,46.384,64.562,44.393z"/>
	<path fill="#0097A7" d="M69,69.983c0.742,1.383,2.159,2.163,3.618,2.163c0.659,0,1.312-0.158,1.927-0.487
		c1.994-1.072,2.736-3.554,1.676-5.548l-4.664-8.686c-1.068-1.987-3.546-2.741-5.544-1.668c-1.995,1.072-2.733,3.55-1.668,5.541
		L69,69.983z"/>
	<path fill="#0097A7" d="M129.309,116.932l-9.478-5.417c-1.968-1.121-4.468-0.435-5.593,1.525c-1.11,1.964-0.435,4.465,1.533,5.586
		l9.478,5.413c0.641,0.368,1.338,0.54,2.028,0.54c1.432,0,2.804-0.742,3.562-2.069C131.959,120.545,131.274,118.045,129.309,116.932
		z"/>
	<path fill="#0097A7" d="M153.021,130.457l-9.488-5.413c-1.964-1.117-4.461-0.435-5.586,1.526c-1.113,1.968-0.435,4.464,1.522,5.589
		l9.481,5.409c0.653,0.368,1.338,0.54,2.036,0.54c1.413,0,2.796-0.745,3.55-2.068C155.657,134.079,154.971,131.579,153.021,130.457z
		"/>
	<path fill="#0097A7" d="M57.03,111.675l-9.549,5.279c-1.983,1.098-2.707,3.588-1.604,5.563c0.747,1.35,2.145,2.114,3.584,2.114
		c0.667,0,1.35-0.165,1.975-0.511l9.549-5.285c1.983-1.095,2.703-3.584,1.608-5.567C61.499,111.293,59.001,110.573,57.03,111.675z"
		/>
	<path fill="#0097A7" d="M177.993,24.494c0-10.092-8.207-18.294-18.299-18.294c-10.077,0-18.291,8.202-18.291,18.294
		c0,3.217,0.844,6.234,2.306,8.867l-41.726,43.787c-3.787-2.294-8.214-3.632-12.949-3.632c-13.863,0-25.136,11.273-25.136,25.129
		c0,13.852,11.273,25.129,25.136,25.129c0.259,0,0.491-0.03,0.758-0.038l9.319,36.583c-5.207,3.228-8.708,8.981-8.708,15.55
		c0,10.088,8.214,18.291,18.298,18.291c10.081,0,18.288-8.203,18.288-18.291c0-9.754-7.678-17.725-17.302-18.241l-9.323-36.586
		c8.172-4.147,13.792-12.62,13.792-22.397c0-5.17-1.567-9.983-4.258-13.98l41.729-43.784c2.433,1.211,5.17,1.905,8.068,1.905
		C169.786,42.785,177.993,34.583,177.993,24.494z M101.327,169.012c1.844-1.983,4.454-3.25,7.374-3.25
		c1.125,0,2.193,0.229,3.206,0.573c3.997,1.346,6.902,5.087,6.902,9.533c0,5.575-4.541,10.107-10.107,10.107
		c-5.567,0-10.107-4.532-10.107-10.107C98.594,173.214,99.64,170.818,101.327,169.012z M102.853,101.827
		c-0.637,2.763-2.073,5.215-4.067,7.104c-0.386,0.367-0.81,0.696-1.241,1.026c-2.384,1.796-5.312,2.898-8.51,2.898
		c-0.712,0-1.391-0.109-2.065-0.207c-3.025-0.445-5.751-1.802-7.847-3.842c-1.957-1.915-3.37-4.383-3.974-7.165
		c-0.21-0.967-0.337-1.963-0.337-2.999c0-3.959,1.65-7.547,4.27-10.126c1.904-1.871,4.322-3.213,7.033-3.783
		c0.941-0.195,1.919-0.3,2.92-0.3c1.788,0,3.491,0.367,5.069,0.975c3.535,1.357,6.392,4.067,7.925,7.517
		c0.776,1.751,1.219,3.681,1.219,5.717C103.247,99.743,103.093,100.8,102.853,101.827z M159.694,34.597
		c-0.645,0-1.282-0.075-1.901-0.195c-3.888-0.742-6.965-3.723-7.888-7.542c-0.195-0.765-0.311-1.552-0.311-2.366
		c0-5.575,4.532-10.111,10.1-10.111c5.575,0,10.107,4.536,10.107,10.111C169.802,30.064,165.269,34.597,159.694,34.597z"/>
</g>
</svg>
