<?xml version="1.0" encoding="utf-8"?>
<!-- Generator: Adobe Illustrator 16.0.0, SVG Export Plug-In . SVG Version: 6.00 Build 0)  -->
<!DOCTYPE svg PUBLIC "-//W3C//DTD SVG 1.1//EN" "http://www.w3.org/Graphics/SVG/1.1/DTD/svg11.dtd">
<svg version="1.1" id="圖層_1" xmlns="http://www.w3.org/2000/svg" xmlns:xlink="http://www.w3.org/1999/xlink" x="0px" y="0px"
	 width="200px" height="200px" viewBox="0 0 200 200" enable-background="new 0 0 200 200" xml:space="preserve">
<g>
	<path fill="#0097A7" d="M163,21h-25.553l-0.544,8H163c1.654,0,3,1.346,3,3v145c0,1.654-1.346,3-3,3H40c-1.654,0-3-1.346-3-3V32
		c0-1.654,1.346-3,3-3h25.209l-0.544-8H40c-6.065,0-11,4.935-11,11v145c0,6.065,4.935,11,11,11h123c6.065,0,11-4.935,11-11V32
		C174,25.935,169.065,21,163,21z"/>
	<path fill="#0097A7" d="M70.22,29l0.241,3.646C70.545,33.888,71.686,35,72.996,35h56.121c1.31,0,2.451-1.112,2.533-2.354
		L131.892,29l0.544-8l0.105-1.646c0.083-1.241-0.922-2.354-2.23-2.354h-8.212l-5.237-8.174C116.465,7.641,115.067,7,113.756,7
		h-25.58c-1.311,0-2.709,0.641-3.107,1.826L79.832,17h-8.029c-1.31,0-2.313,1.113-2.23,2.354L69.678,21L70.22,29z"/>
	<path fill="#0097A7" d="M110.532,104.139c1.991,0,4.468-0.094,5.468-0.534v-6.206c-1,0.38-2.935,0.402-4.697,0.402
		c-6.652,0-11.12-2.801-13.263-8.801H112v-5H96.898c-0.078,0-0.078-1.254-0.078-2.006c0-0.752,0-0.994,0.078-1.994H112v-5H98.04
		c2.143-6,6.61-8.763,13.263-8.763c1.763,0,3.697,0.083,4.697,0.453v-6.261c-1-0.445-3.555-0.517-5.468-0.517
		C99.063,59.912,91.233,66,88.556,75H84v5h3.727c-0.072,1-0.072,1.242-0.072,1.994c0,0.752,0,2.006,0.072,2.006H84v5h4.556
		C91.233,99,99.063,104.139,110.532,104.139z"/>
	<path fill="#0097A7" d="M138.207,118H64.16c-1.324,0-2.397,1.14-2.397,2.503c0,1.358,1.073,2.497,2.397,2.497h74.047
		c1.32,0,2.396-1.139,2.396-2.497C140.604,119.14,139.527,118,138.207,118z"/>
	<path fill="#0097A7" d="M138.207,132H64.16c-1.324,0-2.397,1.14-2.397,2.503c0,1.358,1.073,2.497,2.397,2.497h74.047
		c1.32,0,2.396-1.139,2.396-2.497C140.604,133.14,139.527,132,138.207,132z"/>
	<path fill="#0097A7" d="M138.207,147H64.16c-1.324,0-2.397,1.145-2.397,2.5s1.073,2.5,2.397,2.5h74.047
		c1.32,0,2.396-1.145,2.396-2.5S139.527,147,138.207,147z"/>
	<path fill="#0097A7" d="M47,170h109V41H47V170z M51,45h101v121H51V45z"/>
</g>
</svg>
