<?xml version="1.0" encoding="utf-8"?>
<!-- Generator: Adobe Illustrator 16.0.0, SVG Export Plug-In . SVG Version: 6.00 Build 0)  -->
<!DOCTYPE svg PUBLIC "-//W3C//DTD SVG 1.1//EN" "http://www.w3.org/Graphics/SVG/1.1/DTD/svg11.dtd">
<svg version="1.1" id="圖層_1" xmlns="http://www.w3.org/2000/svg" xmlns:xlink="http://www.w3.org/1999/xlink" x="0px" y="0px"
	 width="200px" height="200px" viewBox="0 0 200 200" enable-background="new 0 0 200 200" xml:space="preserve">
<path fill="#0097A7" d="M147.732,116.227l-36.974,10.803l-7.998-2.853c0.034,0.775-0.046,1.558-0.234,2.329
	c-0.573,2.343-3.171,3.717-5.444,3.091c-1.918-0.527-3.136-2.237-3.24-4.176c-0.019-0.075-0.037-0.149-0.06-0.222
	c-0.043-0.085-0.084-0.17-0.13-0.253c-0.306-0.549-0.632-1.087-0.921-1.645c-0.476-0.919-0.63-1.927-0.502-2.883l-22.266-7.944
	l-38.27,9.277l-20.413,67.497l60.129-10.451l60.285,17.682l59.649-29.325L147.732,116.227z M37.461,127.639l29.092-7.056
	l0.513,18.014c-4.588-0.057-8.888,0.427-10.986,1.128c-2.579,0.865-5.379,2.753-8.348,4.755c-4.55,3.069-9.728,6.549-13.649,5.794
	c-1.076-0.203-2.058-0.764-2.976-1.625L37.461,127.639z M21.536,180.288l8.275-27.368c1.083,0.69,2.22,1.202,3.45,1.438
	c5.696,1.079,11.648-2.92,16.89-6.456c2.72-1.835,5.281-3.568,7.308-4.242c1.835-0.609,5.708-0.946,9.729-0.873l0.841,29.422
	L21.536,180.288z M73.817,121.375l33.938,12.106l11.063,33.089c-1.141-0.736-2.286-1.584-3.544-2.521
	c-0.967-0.719-1.974-1.471-3.057-2.226c-2.607-1.806-12.745-7.462-16.813-7.072c-2.079,0.143-3.896,1.036-5.497,1.823
	c-1.209,0.589-2.559,1.259-3.135,1.04c-0.193-0.078-0.893-0.521-1.692-2.887c-0.442-1.296-0.329-2.641-0.215-4.061
	c0.215-2.521,0.472-5.667-2.716-8.506c-1.666-1.481-4.551-2.419-7.824-2.96L73.817,121.375z M75.274,172.555l-0.832-29.105
	c2.155,0.397,3.93,0.974,4.839,1.786c1.576,1.399,1.544,2.644,1.344,5.096c-0.139,1.688-0.296,3.604,0.415,5.703
	c1.003,2.973,2.31,4.697,4.104,5.421c2.33,0.941,4.646-0.171,6.676-1.17c1.304-0.643,2.654-1.3,3.89-1.389
	c2.045-0.109,10.697,3.995,14.039,6.317c1.048,0.728,2.014,1.445,2.946,2.14c2.603,1.937,5.03,3.729,8.007,4.852l5.067,15.155
	L75.274,172.555z M115.232,133.095l30.008-8.765l20.109,23.483c-2.92,0.188-5.753,0.73-8.688,1.352l-1.198,0.256
	c-9.392,1.977-13.283,2.792-15.96,12.473c-1.234,4.461-2.688,6.203-8.403,7.063c-1.414,0.22-2.639,0.275-3.789,0.26L115.232,133.095
	z M128.684,173.313c0.979-0.045,1.953-0.077,3.065-0.247c6.994-1.056,10.101-3.694,11.862-10.09
	c2.002-7.229,3.642-7.575,12.744-9.496l1.271-0.268c3.987-0.844,7.522-1.523,11.291-1.234l11.022,12.871l-46.454,22.836
	L128.684,173.313z"/>
<path fill="#0097A7" d="M54.244,51.331h38.719c1.284,0,2.316-1.038,2.316-2.318V11.938c0-1.28-1.032-2.318-2.316-2.318H54.244
	c-1.28,0-2.319,1.039-2.319,2.318v37.074C51.925,50.292,52.964,51.331,54.244,51.331z"/>
<path fill="#0097A7" d="M54.681,64.648h60.752c1.522,0,2.757-1.1,2.757-2.459s-1.234-2.459-2.757-2.459H54.681
	c-1.522,0-2.756,1.1-2.756,2.459S53.158,64.648,54.681,64.648z"/>
<path fill="#0097A7" d="M54.681,76.077h85.125c1.518,0,2.755-1.098,2.755-2.457c0-1.363-1.237-2.461-2.755-2.461H54.681
	c-1.522,0-2.756,1.098-2.756,2.461C51.925,74.979,53.158,76.077,54.681,76.077z"/>
<path fill="#0097A7" d="M54.681,87.505h85.125c1.518,0,2.755-1.102,2.755-2.458c0-1.355-1.237-2.457-2.755-2.457H54.681
	c-1.522,0-2.756,1.102-2.756,2.457C51.925,86.403,53.158,87.505,54.681,87.505z"/>
<g>
	<path fill="#0097A7" d="M98.09,138c-0.014,0-0.027,0-0.04,0c-1.339,0-2.556-0.67-3.157-1.865L79.171,105H36.042
		c-1.977,0-4.042-1.559-4.042-3.535v-82.84C32,16.647,34.065,15,36.042,15h125.795c1.977,0,3.163,1.647,3.163,3.625v82.84
		c0,1.977-1.187,3.535-3.163,3.535h-43.938l-16.648,31.207C100.628,137.377,99.412,138,98.09,138z M40,98h41.378
		c1.352,0,2.589,0.705,3.196,1.913l13.604,27.001l14.41-27.058c0.622-1.168,1.837-1.856,3.16-1.856H158V22H40V98z"/>
</g>
</svg>
