<?xml version="1.0" encoding="utf-8"?>
<!-- Generator: Adobe Illustrator 16.0.0, SVG Export Plug-In . SVG Version: 6.00 Build 0)  -->
<!DOCTYPE svg PUBLIC "-//W3C//DTD SVG 1.1//EN" "http://www.w3.org/Graphics/SVG/1.1/DTD/svg11.dtd">
<svg version="1.1" id="圖層_1" xmlns="http://www.w3.org/2000/svg" xmlns:xlink="http://www.w3.org/1999/xlink" x="0px" y="0px"
	 width="20px" height="20px" viewBox="0 0 20 20" enable-background="new 0 0 20 20" xml:space="preserve">
<path fill="#ADAFB2" d="M15.333,2H4.667C3.2,2,2,3.2,2,4.667v10.667C2,16.801,3.2,18,4.667,18h10.666C16.8,18,18,16.801,18,15.333
	V4.667C18,3.2,16.8,2,15.333,2z M6.358,14.988C5.609,14.988,5,14.384,5,13.636c0-0.746,0.609-1.357,1.358-1.357
	c0.752,0,1.36,0.611,1.36,1.357C7.719,14.384,7.11,14.988,6.358,14.988z M9.773,15c0-1.278-0.497-2.481-1.398-3.381
	c-0.902-0.903-2.1-1.401-3.374-1.401V8.261c3.713,0,6.736,3.023,6.736,6.739H9.773L9.773,15z M13.244,15
	c0-4.548-3.698-8.249-8.241-8.249V4.794c5.626,0,10.203,4.58,10.203,10.206H13.244L13.244,15z"/>
</svg>
