<?xml version="1.0" encoding="utf-8"?>
<!-- Generator: Adobe Illustrator 16.0.0, SVG Export Plug-In . SVG Version: 6.00 Build 0)  -->
<!DOCTYPE svg PUBLIC "-//W3C//DTD SVG 1.1//EN" "http://www.w3.org/Graphics/SVG/1.1/DTD/svg11.dtd">
<svg version="1.1" id="圖層_1" xmlns="http://www.w3.org/2000/svg" xmlns:xlink="http://www.w3.org/1999/xlink" x="0px" y="0px"
	 width="20px" height="20px" viewBox="0 0 20 20" enable-background="new 0 0 20 20" xml:space="preserve">
<path fill="#5E5F61" d="M16.688,2h-4.692c-1.346,0-2.449,0.996-2.449,2.204L3.83,4.24C3.07,4.24,2.38,4.88,2.38,5.663V6.79H2.311
	C1.552,6.79,1,7.536,1,8.318v8.295C1,17.395,1.552,18,2.021,18h14.997c0.359,0,0.394,0,0.463,0c0.896-0.178,1.518-0.961,1.518-1.956
	V4.56C19.034,3.174,18.033,2,16.688,2z M3.795,5.556h6.476c0.379,0,0.552-0.213,0.552-0.604V4.24c0-0.391,0.621-0.782,1.173-0.782
	h4.692c0.587,0,0.966,0.533,0.966,1.138c0,0,0,11.438,0,11.448c0,0.403-0.291,0.595-0.68,0.595c-1.424,0-1.641-0.465-1.65-0.879
	c-0.008-0.386,0.005-0.771,0.005-1.156c0-1.455,0-2.908,0-4.363c0-0.424,0-0.848,0-1.271v-0.65c0-0.782-0.655-1.529-1.415-1.529
	h-0.586H3.795V5.556z M2.415,8.212h10.947h0.587v0.757v7.04c0,0.213,0,0.533,0.068,0.533H2.415V8.212z"/>
</svg>
