<?xml version="1.0" encoding="utf-8"?>
<!-- Generator: Adobe Illustrator 16.0.0, SVG Export Plug-In . SVG Version: 6.00 Build 0)  -->
<!DOCTYPE svg PUBLIC "-//W3C//DTD SVG 1.1//EN" "http://www.w3.org/Graphics/SVG/1.1/DTD/svg11.dtd">
<svg version="1.1" id="圖層_1" xmlns="http://www.w3.org/2000/svg" xmlns:xlink="http://www.w3.org/1999/xlink" x="0px" y="0px"
	 width="20px" height="20px" viewBox="0 0 20 20" enable-background="new 0 0 20 20" xml:space="preserve">
<g>
	<g>
		<path fill-rule="evenodd" clip-rule="evenodd" fill="#5E5F61" d="M16.895,5.439c-0.376-0.812-0.954-1.688-1.606-2.32
			c-2.932-2.84-7.668-2.817-10.6,0.023c-3.018,2.924-2.76,7.601-0.049,10.573l4.879,5.109c0.244,0.241,0.637,0.232,0.87-0.021
			l3.962-4.227c1.281-1.222,2.486-2.709,2.91-4.449C17.632,8.6,17.562,6.882,16.895,5.439z M9.985,14.618
			c-3.65,0-6.61-2.867-6.61-6.404c0-3.537,2.96-6.404,6.61-6.404s6.609,2.867,6.609,6.404C16.595,11.751,13.636,14.618,9.985,14.618
			z M13.872,6.843h-2.643l-0.809-2.446c-0.039-0.137-0.165-0.238-0.316-0.238c-0.152,0-0.278,0.101-0.318,0.238L8.981,6.843H6.339
			c-0.182,0-0.328,0.156-0.328,0.337c0,0.111,0.057,0.21,0.143,0.269C6.206,7.483,8.288,8.98,8.288,8.98s-0.8,2.416-0.815,2.454
			c-0.012,0.035-0.021,0.074-0.021,0.114c0,0.182,0.148,0.327,0.331,0.327c0.069,0,0.135-0.021,0.189-0.059l2.132-1.526
			c0,0,2.083,1.493,2.131,1.526c0.055,0.037,0.119,0.059,0.189,0.059c0.182,0,0.33-0.147,0.33-0.327c0-0.04-0.008-0.079-0.02-0.114
			C12.72,11.396,11.92,8.98,11.92,8.98s2.082-1.497,2.135-1.532c0.085-0.059,0.142-0.158,0.142-0.27
			C14.196,6.999,14.055,6.843,13.872,6.843z"/>
	</g>
</g>
</svg>
