<?xml version="1.0" encoding="utf-8"?>
<!-- Generator: Adobe Illustrator 16.0.0, SVG Export Plug-In . SVG Version: 6.00 Build 0)  -->
<!DOCTYPE svg PUBLIC "-//W3C//DTD SVG 1.1//EN" "http://www.w3.org/Graphics/SVG/1.1/DTD/svg11.dtd">
<svg version="1.1" id="圖層_1" xmlns="http://www.w3.org/2000/svg" xmlns:xlink="http://www.w3.org/1999/xlink" x="0px" y="0px"
	 width="20px" height="20px" viewBox="0 0 20 20" enable-background="new 0 0 20 20" xml:space="preserve">
<g>
	<path fill="#575859" d="M17.347,5.066V3.771l-3.416,3.417c-0.319,0.318-0.836,0.318-1.155,0c-0.319-0.319-0.319-0.837,0-1.156
		l3.416-3.416h-1.295c-0.452,0-0.817-0.366-0.817-0.817c0.001-0.451,0.365-0.816,0.817-0.817h3.268c0.451,0,0.816,0.366,0.816,0.817
		v3.268c0,0.451-0.365,0.817-0.817,0.817C17.712,5.883,17.347,5.517,17.347,5.066z"/>
	<path fill="#575859" d="M5.066,2.616H3.771l3.416,3.416c0.318,0.319,0.319,0.835,0,1.156c-0.319,0.318-0.836,0.318-1.155,0
		L2.614,3.771v1.295c0,0.451-0.365,0.817-0.816,0.817c-0.452,0-0.817-0.366-0.817-0.817V1.799c0-0.451,0.366-0.817,0.817-0.817
		l3.268,0c0.45,0,0.816,0.366,0.816,0.817C5.882,2.25,5.516,2.616,5.066,2.616z"/>
	<path fill="#575859" d="M2.614,14.896l0,1.296l3.417-3.416c0.319-0.319,0.836-0.319,1.155,0c0.319,0.318,0.319,0.836,0,1.155
		l-3.417,3.415h1.295c0.45,0,0.817,0.366,0.816,0.817c0,0.451-0.366,0.816-0.816,0.816H1.798c-0.452,0-0.817-0.365-0.817-0.816
		v-3.268c0-0.451,0.366-0.816,0.817-0.816C2.249,14.079,2.615,14.444,2.614,14.896z"/>
	<path fill="#575859" d="M14.896,17.346h1.295l-3.416-3.415c-0.318-0.319-0.319-0.836,0-1.155c0.318-0.319,0.836-0.319,1.155,0
		l3.416,3.415v-1.295c0-0.451,0.366-0.816,0.816-0.816c0.452,0.001,0.817,0.365,0.817,0.816v3.269c0,0.45-0.365,0.815-0.817,0.817
		l-3.267-0.001c-0.452,0-0.817-0.365-0.817-0.816C14.079,17.712,14.444,17.346,14.896,17.346z"/>
</g>
</svg>
