<?xml version="1.0" encoding="utf-8"?>
<!-- Generator: Adobe Illustrator 16.0.0, SVG Export Plug-In . SVG Version: 6.00 Build 0)  -->
<!DOCTYPE svg PUBLIC "-//W3C//DTD SVG 1.1//EN" "http://www.w3.org/Graphics/SVG/1.1/DTD/svg11.dtd">
<svg version="1.1" id="圖層_1" xmlns="http://www.w3.org/2000/svg" xmlns:xlink="http://www.w3.org/1999/xlink" x="0px" y="0px"
	 width="18px" height="18px" viewBox="0 0 18 18" enable-background="new 0 0 18 18" xml:space="preserve">
<path fill="#3B5998" d="M15.927,0.005H2.073c-1.138,0-2.068,0.931-2.068,2.068v13.854c0,1.138,0.931,2.068,2.068,2.068h7.723v-7.912
	H7.977V8.188h1.819v-1.11V6.484V6.386c0-0.56,0.017-1.417,0.429-1.961c0.429-0.56,1.021-0.955,2.027-0.955c0,0,1.646,0,2.355,0.247
	l-0.33,1.944c-0.543-0.166-1.055-0.166-1.055-0.166c-0.51,0-0.971,0.182-0.971,0.692v0.198v0.692v1.11h2.092l-0.148,1.895h-1.943
	v7.912h3.675c1.138,0,2.067-0.931,2.067-2.068V2.073C17.994,0.936,17.064,0.005,15.927,0.005z"/>
</svg>
