<?xml version="1.0" encoding="utf-8"?>
<!-- Generator: Adobe Illustrator 16.0.0, SVG Export Plug-In . SVG Version: 6.00 Build 0)  -->
<!DOCTYPE svg PUBLIC "-//W3C//DTD SVG 1.1//EN" "http://www.w3.org/Graphics/SVG/1.1/DTD/svg11.dtd">
<svg version="1.1" id="圖層_1" xmlns="http://www.w3.org/2000/svg" xmlns:xlink="http://www.w3.org/1999/xlink" x="0px" y="0px"
	 width="48px" height="48px" viewBox="0 0 48 48" enable-background="new 0 0 48 48" xml:space="preserve">
<g>
	<circle fill="#FFFFFF" cx="24" cy="24" r="19.375"/>
	<path fill="#272829" d="M24.002,2.074c-12.127,0-21.958,9.816-21.958,21.927c0,12.108,9.831,21.925,21.958,21.925
		c12.126,0,21.951-9.814,21.951-21.925C45.953,11.89,36.128,2.074,24.002,2.074z M35.34,20.117l-0.295,3.761h-3.861v13.076h-4.879
		V23.878h-2.589v-3.761h2.589V18.94v-1.176v-0.198c0-1.112,0.03-2.811,0.848-3.892c0.853-1.107,2.033-1.895,4.031-1.895
		c0,0,3.273,0,4.68,0.491l-0.653,3.856c-1.08-0.327-2.097-0.327-2.097-0.327c-1.014,0-1.93,0.36-1.93,1.375v0.39v1.375v1.177
		L35.34,20.117L35.34,20.117z"/>
</g>
</svg>
