<?xml version="1.0" encoding="utf-8"?>
<!-- Generator: Adobe Illustrator 16.0.0, SVG Export Plug-In . SVG Version: 6.00 Build 0)  -->
<!DOCTYPE svg PUBLIC "-//W3C//DTD SVG 1.1//EN" "http://www.w3.org/Graphics/SVG/1.1/DTD/svg11.dtd">
<svg version="1.1" id="圖層_1" xmlns="http://www.w3.org/2000/svg" xmlns:xlink="http://www.w3.org/1999/xlink" x="0px" y="0px"
	 width="22px" height="22px" viewBox="6 6 22 22" enable-background="new 6 6 22 22" xml:space="preserve">
<g>
	<g>
		<path fill="#5E5F61" d="M18.444,10.653c0.769,1.057,0.555,2.931,0.334,3.773c-0.157,0.6-0.568,1.287-0.877,1.631
			c-0.248,0.277-0.348,0.435-0.396,0.62l-0.025,0.094l-0.002,0.097c-0.012,0.399,0.267,1.629,0.959,2.031
			c0.267,0.154,0.75,0.357,1.4,0.612c0.325-0.467,0.756-0.853,1.254-1.118c-0.701-0.268-1.571-0.603-1.891-0.775
			c-0.082-0.1-0.174-0.341-0.223-0.542l0.006-0.007c0.436-0.486,0.979-1.373,1.211-2.256c0.084-0.32,0.782-3.188-0.573-5.054
			c-0.665-0.915-1.675-1.401-3.001-1.445c-0.004,0-0.008,0-0.013-0.001l-0.046-0.001c-0.011,0-0.022,0-0.034,0
			c-0.026,0-0.052,0-0.077,0.002h-0.006c-1.32,0.047-2.326,0.533-2.99,1.445c-1.355,1.865-0.656,4.733-0.572,5.055
			c0.223,0.854,0.752,1.729,1.176,2.216c0.001,0.001,0.016,0.016,0.031,0.033l-0.001,0.001l0.046,0.052
			c-0.04,0.164-0.158,0.402-0.254,0.501c-0.338,0.183-1.323,0.559-2.049,0.835c-0.011,0.004-0.021,0.008-0.031,0.013
			c-1.176,0.448-1.537,0.597-1.751,0.719c-1.017,0.578-1.212,1.653-1.285,2.06c-0.021,0.117-0.075,0.423-0.111,0.725
			c-0.06,0.483-0.158,1.294,0.485,1.875c0.401,0.36,1.061,0.728,3.149,0.967c0.571,0.066,1.22,0.117,1.911,0.152
			c-0.254-0.458-0.412-0.977-0.443-1.525c-1.795-0.117-3.246-0.357-3.646-0.718c-0.1-0.089,0.063-1.02,0.097-1.204
			c0.072-0.398,0.183-0.81,0.556-1.022c0.176-0.099,1.016-0.42,1.574-0.633l0.008-0.004c1.145-0.437,1.922-0.738,2.297-0.956
			c0.592-0.346,1.164-1.555,0.914-2.272c-0.063-0.179-0.171-0.33-0.325-0.507l-0.054-0.061c-0.001-0.002-0.022-0.025-0.022-0.025
			c-0.305-0.35-0.702-1.021-0.854-1.607c-0.221-0.843-0.436-2.716,0.332-3.773c0.393-0.538,1.006-0.813,1.877-0.843h0.021h0.045
			C17.442,9.84,18.054,10.115,18.444,10.653z M26.576,23.026c-0.001-0.012-0.003-0.023-0.004-0.036
			c-0.003-0.021-0.007-0.044-0.011-0.065c-0.004-0.014-0.007-0.027-0.01-0.04c-0.002-0.005-0.006-0.02-0.008-0.024
			c0,0,0-0.001,0-0.002c-0.004-0.015-0.01-0.033-0.016-0.048c-0.005-0.013-0.01-0.026-0.016-0.04
			c-0.006-0.016-0.014-0.031-0.021-0.047s-0.017-0.032-0.025-0.047c-0.013-0.023-0.026-0.045-0.041-0.066
			c-0.006-0.008-0.01-0.015-0.016-0.021c-0.014-0.02-0.029-0.038-0.044-0.055c-0.018-0.021-0.036-0.04-0.056-0.059l-3.019-2.33
			c-0.157-0.152-0.364-0.236-0.582-0.236c-0.225,0-0.437,0.089-0.599,0.253c-0.16,0.164-0.248,0.382-0.248,0.612
			c0,0.217,0.078,0.422,0.221,0.581c0.016,0.019,0.034,0.037,0.053,0.055l1.322,0.835h-6.053c-0.467,0-0.847,0.388-0.847,0.865
			c0,0.477,0.38,0.864,0.847,0.864h6.053l-1.322,0.835l-0.023,0.023c-0.161,0.163-0.25,0.381-0.25,0.613
			c0,0.231,0.089,0.449,0.248,0.611c0.16,0.163,0.373,0.254,0.599,0.254c0.22,0,0.425-0.085,0.583-0.238l3.018-2.33
			c0.022-0.02,0.043-0.041,0.063-0.064l0.041-0.053c0.01-0.014,0.02-0.027,0.026-0.038c0.002-0.003,0.007-0.011,0.009-0.014
			c0.006-0.01,0.012-0.02,0.018-0.03c0.01-0.018,0.02-0.036,0.027-0.052v-0.001c0.017-0.032,0.03-0.066,0.041-0.102
			c0.003-0.007,0.005-0.014,0.007-0.02c0.001-0.003,0.003-0.008,0.003-0.011l0.004-0.012c0.004-0.016,0.008-0.032,0.012-0.048
			c0.004-0.018,0.008-0.039,0.011-0.06c0.003-0.016,0.005-0.032,0.007-0.048c0.002-0.027,0.003-0.055,0.003-0.082
			C26.58,23.081,26.579,23.056,26.576,23.026z"/>
	</g>
</g>
</svg>
