<?xml version="1.0" encoding="utf-8"?>
<!-- Generator: Adobe Illustrator 16.0.0, SVG Export Plug-In . SVG Version: 6.00 Build 0)  -->
<!DOCTYPE svg PUBLIC "-//W3C//DTD SVG 1.1//EN" "http://www.w3.org/Graphics/SVG/1.1/DTD/svg11.dtd">
<svg version="1.1" id="圖層_1" xmlns="http://www.w3.org/2000/svg" xmlns:xlink="http://www.w3.org/1999/xlink" x="0px" y="0px"
	 width="29px" height="18px" viewBox="-5.5 0 29 18" enable-background="new -5.5 0 29 18" xml:space="preserve">
<g>
	<path fill="#DD4B39" d="M3.841,7.218v3.564c0,0,3.452-0.005,4.858-0.005c-0.763,2.312-1.945,3.569-4.858,3.569
		c-2.948,0-5.248-2.394-5.248-5.348c0-2.952,2.3-5.346,5.248-5.346c1.558,0,2.565,0.548,3.488,1.313
		c0.739-0.74,0.677-0.845,2.557-2.625C8.292,0.888,6.168,0,3.841,0C-1.12,0-5.143,4.029-5.143,8.999C-5.143,13.971-1.12,18,3.841,18
		c7.415,0,9.229-6.469,8.627-10.782H3.841z"/>
	<polygon fill="#DD4B39" points="20.031,7.396 20.031,4.277 17.805,4.277 17.805,7.396 14.605,7.396 14.605,9.624 17.805,9.624 
		17.805,12.832 20.031,12.832 20.031,9.624 23.143,9.624 23.143,7.396 	"/>
</g>
</svg>
