<?xml version="1.0" encoding="utf-8"?>
<!-- Generator: Adobe Illustrator 16.0.0, SVG Export Plug-In . SVG Version: 6.00 Build 0)  -->
<!DOCTYPE svg PUBLIC "-//W3C//DTD SVG 1.1//EN" "http://www.w3.org/Graphics/SVG/1.1/DTD/svg11.dtd">
<svg version="1.1" id="圖層_1" xmlns="http://www.w3.org/2000/svg" xmlns:xlink="http://www.w3.org/1999/xlink" x="0px" y="0px"
	 width="48px" height="48px" viewBox="0 0 48 48" enable-background="new 0 0 48 48" xml:space="preserve">
<g>
	<circle fill="#FFFFFF" cx="24" cy="24" r="19.375"/>
	<path fill="#272829" d="M24,2.074c-12.127,0-21.957,9.816-21.957,21.927c0,12.108,9.83,21.925,21.957,21.925
		c12.128,0,21.955-9.814,21.955-21.925C45.955,11.89,36.128,2.074,24,2.074z M19.296,33.833c-5.422,0-9.817-4.401-9.817-9.834
		c0-5.43,4.395-9.833,9.817-9.833c2.542,0,4.861,0.97,6.604,2.559c-2.054,1.944-1.986,2.059-2.792,2.868
		c-1.009-0.836-2.111-1.435-3.812-1.435c-3.221,0-5.734,2.616-5.734,5.841c0,3.228,2.513,5.842,5.734,5.842
		c3.182,0,4.475-1.374,5.308-3.899c-1.537,0-5.308,0.006-5.308,0.006v-3.894h9.427C29.38,26.766,27.396,33.833,19.296,33.833z
		 M36.986,24.682v3.506h-2.435v-3.506h-3.495v-2.435h3.495v-3.408h2.435v3.408h3.398v2.435H36.986z"/>
</g>
</svg>
