<?xml version="1.0" encoding="utf-8"?>
<!-- Generator: Adobe Illustrator 16.0.0, SVG Export Plug-In . SVG Version: 6.00 Build 0)  -->
<!DOCTYPE svg PUBLIC "-//W3C//DTD SVG 1.1//EN" "http://www.w3.org/Graphics/SVG/1.1/DTD/svg11.dtd">
<svg version="1.1" id="圖層_1" xmlns="http://www.w3.org/2000/svg" xmlns:xlink="http://www.w3.org/1999/xlink" x="0px" y="0px"
	 width="16px" height="16px" viewBox="0 0 16 16" enable-background="new 0 0 16 16" xml:space="preserve">
<path fill="#5E5F61" d="M9.476,1.501C9.439,1.493,9.42,1.514,9.392,1.521c-0.013,0.004-0.031-0.008-0.042,0
	c-0.092-0.013-0.175-0.012-0.251,0C9.022,1.532,8.951,1.57,8.89,1.602c-0.5,0.255-0.604,1.087-0.775,1.655
	C7.652,4.808,6.366,6.241,4.762,6.628C4.375,6.646,3.999,6.645,3.61,6.648V6.366c0-0.194-0.15-0.323-0.335-0.323H0.99v0.323v0.322
	v3.23v3.229v0.323v0.322h2.285c0.185,0,0.335-0.193,0.335-0.322V9.919V7.355c0.223-0.003,0.447-0.013,0.67-0.021v2.584v3.229
	c0.187,0.004,0.379-0.008,0.566,0c1.002,0.193,1.74,1.042,2.765,1.171c1.146,0.193,2.302,0.057,3.456,0.121
	c0.842-0.064,1.877,0.064,2.473-0.646c0.255-0.581,0.027-1.356,0.796-1.614c0.689-0.452-0.155-1.297,0.188-1.878
	c0.441-0.452,0.723-1.158,0.209-1.675c-0.639-0.582,0.229-1.478-0.502-2.06c-0.115-0.106-0.244-0.166-0.377-0.222
	s-0.274-0.1-0.42-0.121c-0.014-0.002-0.027-0.019-0.041-0.021c-0.154-0.028-0.306-0.04-0.44-0.04
	c-0.642-0.045-1.286-0.035-1.927-0.021c-0.264-0.008-0.535-0.014-0.797-0.04c-0.511-0.388,0.122-1.098,0.105-1.615
	c0.093-0.71,0.158-1.473-0.043-2.119c-0.109-0.311-0.326-0.658-0.648-0.787C9.612,1.563,9.589,1.555,9.56,1.541
	C9.529,1.528,9.503,1.508,9.476,1.501z"/>
</svg>
