<?xml version="1.0" encoding="utf-8"?>
<!-- Generator: Adobe Illustrator 16.0.0, SVG Export Plug-In . SVG Version: 6.00 Build 0)  -->
<!DOCTYPE svg PUBLIC "-//W3C//DTD SVG 1.1//EN" "http://www.w3.org/Graphics/SVG/1.1/DTD/svg11.dtd">
<svg version="1.1" id="圖層_1" xmlns="http://www.w3.org/2000/svg" xmlns:xlink="http://www.w3.org/1999/xlink" x="0px" y="0px"
	 width="20px" height="20px" viewBox="0 0 20 20" enable-background="new 0 0 20 20" xml:space="preserve">
<g>
	<g>
		<path fill="#5E5F61" d="M16.229,1L3.771,1C3.071,1,2.5,1.563,2.5,2.25v15.906c0,0.291,0.146,0.558,0.391,0.714
			C3.024,18.955,3.179,19,3.337,19c0.124,0,0.244-0.027,0.357-0.08l6.305-2.758l6.308,2.758c0.11,0.053,0.233,0.08,0.354,0.08
			c0.16,0,0.314-0.045,0.448-0.131c0.244-0.155,0.391-0.423,0.391-0.713V2.25C17.5,1.563,16.928,1,16.229,1z M16.255,17.546
			L10.5,15.03l-0.501-0.22l-0.501,0.22l-5.753,2.516V7.146l0-4.894c0,0,0.008-0.015,0.026-0.015l12.459,0
			c0.017,0,0.024,0.013,0.025,0.013V17.546z M11.781,5.995c-0.182,0-0.365,0.05-0.554,0.15c-0.188,0.1-0.353,0.222-0.493,0.366
			c-0.139,0.144-0.266,0.287-0.381,0.428S10.154,7.201,10.1,7.301l-0.091,0.15c-0.022-0.04-0.052-0.092-0.09-0.158
			s-0.12-0.183-0.247-0.35C9.547,6.777,9.42,6.63,9.291,6.502S9.004,6.259,8.815,6.153S8.441,5.995,8.262,5.995
			c-0.487,0-0.902,0.175-1.248,0.524C6.67,6.868,6.498,7.29,6.498,7.783C6.486,8.049,6.534,8.317,6.641,8.589
			c0.107,0.271,0.245,0.518,0.414,0.74c0.17,0.221,0.388,0.459,0.653,0.715c0.265,0.254,0.514,0.477,0.747,0.665
			c0.231,0.189,0.504,0.41,0.815,0.666c0.312,0.254,0.561,0.469,0.747,0.64c0.169-0.139,0.383-0.312,0.64-0.52
			s0.469-0.38,0.636-0.516c0.166-0.136,0.359-0.301,0.578-0.495s0.398-0.363,0.537-0.507c0.141-0.144,0.286-0.312,0.439-0.503
			c0.152-0.191,0.271-0.37,0.356-0.536s0.156-0.349,0.214-0.549c0.057-0.199,0.086-0.401,0.086-0.606c0-0.5-0.166-0.922-0.496-1.269
			C12.676,6.169,12.268,5.995,11.781,5.995z"/>
	</g>
</g>
</svg>
