<?xml version="1.0" encoding="utf-8"?>
<!-- Generator: Adobe Illustrator 16.0.0, SVG Export Plug-In . SVG Version: 6.00 Build 0)  -->
<!DOCTYPE svg PUBLIC "-//W3C//DTD SVG 1.1//EN" "http://www.w3.org/Graphics/SVG/1.1/DTD/svg11.dtd">
<svg version="1.1" id="圖層_1" xmlns="http://www.w3.org/2000/svg" xmlns:xlink="http://www.w3.org/1999/xlink" x="0px" y="0px"
	 width="56.693px" height="56.693px" viewBox="0 0 56.693 56.693" enable-background="new 0 0 56.693 56.693" xml:space="preserve">
<path fill="#040000" d="M44.795,14.682H11.962c-2.256,0-4.104,1.848-4.104,4.104v24.623c0,2.258,1.848,4.104,4.104,4.104h32.833
	c2.256,0,4.103-1.847,4.103-4.104V18.786C48.897,16.53,47.051,14.682,44.795,14.682 M44.795,43.409H11.962V18.786h32.833V43.409z
	 M26.326,35.407h-10.26v3.692h10.26V35.407z M26.326,29.251h-10.26v3.694h10.26V29.251z M26.326,23.095h-10.26v3.693h10.26V23.095z
	 M40.485,36.228c0,0-3.489-0.914-3.489-2.704c0-1.708,2.257-2.426,2.257-5.915c0-2.833-0.859-4.514-3.693-4.514
	c-2.833,0-3.693,1.68-3.693,4.514c0,3.489,2.258,4.207,2.258,5.915c0,1.79-3.488,2.704-3.488,2.704
	c-0.206,0-0.206,2.871-0.206,2.871h10.26C40.689,39.099,40.689,36.228,40.485,36.228"/>
<rect x="25.69" y="10.597" fill="#040000" width="5.375" height="9.75"/>
</svg>
