<?xml version="1.0" encoding="utf-8"?>
<!-- Generator: Adobe Illustrator 16.0.0, SVG Export Plug-In . SVG Version: 6.00 Build 0)  -->
<!DOCTYPE svg PUBLIC "-//W3C//DTD SVG 1.1//EN" "http://www.w3.org/Graphics/SVG/1.1/DTD/svg11.dtd">
<svg version="1.1" id="圖層_1" xmlns="http://www.w3.org/2000/svg" xmlns:xlink="http://www.w3.org/1999/xlink" x="0px" y="0px"
	 width="24px" height="24px" viewBox="0 0 24 24" enable-background="new 0 0 24 24" xml:space="preserve">
<path fill="#0277BD" d="M18.754,2.949C16.777,1.307,14.357,0.5,11.955,0.5C8.978,0.5,6.016,1.739,3.943,4.133
	C2.269,6.064,1.45,8.431,1.451,10.778c-0.001,2.783,1.15,5.556,3.395,7.572L4.658,23.5l1.363-0.883l3.025-1.957
	c0.956,0.27,1.934,0.4,2.902,0.4c3.032,0,5.981-1.288,8.01-3.631c1.672-1.932,2.492-4.299,2.49-6.645
	C22.451,7.879,21.197,4.982,18.754,2.949z M18.674,16.389c-1.709,1.973-4.182,3.051-6.725,3.051c-0.925,0-1.859-0.143-2.769-0.438
	L8.79,18.875l-2.339,1.514l0.099-2.75l-0.306-0.254c-2.057-1.713-3.115-4.146-3.116-6.607c0.001-1.986,0.689-3.975,2.101-5.603
	c1.751-2.02,4.227-3.051,6.727-3.052c2.016,0.001,4.04,0.672,5.704,2.056c2.057,1.712,3.113,4.147,3.115,6.606
	C20.771,12.77,20.084,14.759,18.674,16.389z M10.807,16.246h2.032v-1.951h-2.032V16.246z M13.756,6.554
	c-0.594-0.295-1.284-0.443-2.07-0.443c-0.899,0-1.656,0.237-2.268,0.709C8.694,7.386,8.332,8.222,8.332,9.329h1.965V9.316
	c0-0.422,0.092-0.769,0.275-1.039c0.254-0.363,0.664-0.545,1.232-0.545c0.35,0,0.646,0.089,0.891,0.266
	C13,8.244,13.154,8.615,13.154,9.113c0,0.313-0.08,0.591-0.237,0.836c-0.131,0.22-0.341,0.435-0.629,0.646
	c-0.611,0.405-1.009,0.807-1.192,1.204c-0.157,0.33-0.236,0.853-0.236,1.57h1.849c0-0.473,0.064-0.827,0.196-1.064
	c0.105-0.194,0.324-0.401,0.656-0.621c0.576-0.414,0.986-0.798,1.23-1.153c0.297-0.422,0.447-0.917,0.447-1.482
	C15.238,7.876,14.744,7.044,13.756,6.554z"/>
</svg>
