<?xml version="1.0" encoding="utf-8"?>
<!-- Generator: Adobe Illustrator 16.0.0, SVG Export Plug-In . SVG Version: 6.00 Build 0)  -->
<!DOCTYPE svg PUBLIC "-//W3C//DTD SVG 1.1//EN" "http://www.w3.org/Graphics/SVG/1.1/DTD/svg11.dtd">
<svg version="1.1" id="圖層_1" xmlns="http://www.w3.org/2000/svg" xmlns:xlink="http://www.w3.org/1999/xlink" x="0px" y="0px"
	 width="24px" height="24px" viewBox="0 0 24 24" enable-background="new 0 0 24 24" xml:space="preserve">
<g>
	<path fill="#78BF12" d="M21.432,2.454c-0.662-0.659-1.539-1.023-2.473-1.023h-6.282h-1.396H4.996c-0.931,0-1.811,0.364-2.468,1.022
		C1.871,3.113,1.505,3.99,1.505,4.922v10.641c0,0.935,0.366,1.812,1.022,2.467c0.657,0.662,1.538,1.023,2.468,1.023H7l0.349,3.893
		l5.132-3.893h6.478c0.934,0,1.811-0.361,2.473-1.023c0.656-0.655,1.021-1.532,1.021-2.467V4.922
		C22.453,3.99,22.088,3.113,21.432,2.454z M20.854,15.563c0,0.504-0.195,0.979-0.552,1.334c-0.364,0.363-0.829,0.557-1.343,0.557
		h-6.478h-0.538l-0.429,0.324l-2.83,2.146l-0.09-1.014l-0.131-1.457H7H4.996c-0.506,0-0.98-0.196-1.337-0.557
		c-0.357-0.355-0.553-0.83-0.553-1.334V4.922c0-0.503,0.197-0.979,0.555-1.338c0.356-0.356,0.831-0.553,1.336-0.553h6.285h1.396
		h6.281c0.514,0,0.979,0.193,1.339,0.551c0.358,0.36,0.556,0.835,0.556,1.339V15.563z"/>
	<polygon fill="#78BF12" points="6.317,5.875 5.695,5.875 5.695,7.561 5.84,7.561 18.121,7.561 18.264,7.561 18.264,5.875 
		17.648,5.875 	"/>
	<polygon fill="#78BF12" points="5.72,9.251 5.695,9.251 5.695,10.936 5.912,10.936 18.057,10.936 18.264,10.936 18.264,9.251 
		18.242,9.251 	"/>
	<polygon fill="#78BF12" points="6.452,12.623 5.695,12.623 5.695,14.202 5.752,14.313 7.311,14.313 11.951,14.313 11.955,14.313 
		12.004,14.313 12.008,14.313 16.65,14.313 18.214,14.313 18.264,14.218 18.264,12.623 17.52,12.623 	"/>
</g>
</svg>
