<?xml version="1.0" encoding="utf-8"?>
<!-- Generator: Adobe Illustrator 16.0.0, SVG Export Plug-In . SVG Version: 6.00 Build 0)  -->
<!DOCTYPE svg PUBLIC "-//W3C//DTD SVG 1.1//EN" "http://www.w3.org/Graphics/SVG/1.1/DTD/svg11.dtd">
<svg version="1.1" id="圖層_1" xmlns="http://www.w3.org/2000/svg" xmlns:xlink="http://www.w3.org/1999/xlink" x="0px" y="0px"
	 width="28px" height="28px" viewBox="0 0 28 28" enable-background="new 0 0 28 28" xml:space="preserve">
<g>
	<circle fill="#FFFFFF" cx="14" cy="14" r="12"/>
	<path fill="#B9BBBD" d="M14,2C7.372,2,2,7.373,2,14c0,5.33,3.476,9.846,8.283,11.41L7.526,8.806c-0.065-0.4,0.203-0.773,0.603-0.84
		C8.525,7.899,8.9,8.171,8.966,8.565l2.863,17.236C12.534,25.93,13.259,26,14,26c6.627,0,12-5.373,12-12S20.627,2,14,2z
		 M11.251,17.189L9.963,9.432c3.37-0.076,6.745,1.703,10.112-0.93c-0.761,2.801-1.263,3.366-2.173,5.273
		c1.476,1.502,2.135,1.879,3.462,2.483C17.998,18.895,14.621,17.114,11.251,17.189z"/>
</g>
</svg>
