<?xml version="1.0" encoding="utf-8"?>
<!-- Generator: Adobe Illustrator 16.0.0, SVG Export Plug-In . SVG Version: 6.00 Build 0)  -->
<!DOCTYPE svg PUBLIC "-//W3C//DTD SVG 1.1//EN" "http://www.w3.org/Graphics/SVG/1.1/DTD/svg11.dtd">
<svg version="1.1" id="圖層_1" xmlns="http://www.w3.org/2000/svg" xmlns:xlink="http://www.w3.org/1999/xlink" x="0px" y="0px"
	 width="56.693px" height="56.693px" viewBox="0 0 56.693 56.693" enable-background="new 0 0 56.693 56.693" xml:space="preserve">
<path fill="#040000" d="M8.621,8.5v41.694h8.686v-6.948h6.949v6.948h8.687V8.5H8.621z M19.045,11.974h3.474v5.212h-3.474V11.974z
	 M19.045,18.924h3.474v5.211h-3.474V18.924z M19.045,25.872h3.474v5.211h-3.474V25.872z M19.045,32.822h3.474v5.212h-3.474V32.822z
	 M12.095,11.974h3.475v5.212h-3.475V11.974z M12.095,18.924h3.475v5.211h-3.475V18.924z M12.095,25.872h3.475v5.211h-3.475V25.872z
	 M12.095,32.822h3.475v5.212h-3.475V32.822z M29.469,38.034h-3.475v-5.212h3.475V38.034z M29.469,31.084h-3.475v-5.211h3.475V31.084
	z M29.469,24.135h-3.475v-5.211h3.475V24.135z M29.469,17.186h-3.475v-5.212h3.475V17.186z"/>
<path fill="#040000" d="M35.444,28.746v21.448h5.224v-5.838h4.182v5.838h5.224V28.746H35.444z"/>
<rect x="35.444" y="23.827" fill="#040000" width="14.629" height="2.815"/>
</svg>
