<?xml version="1.0" encoding="utf-8"?>
<!-- Generator: Adobe Illustrator 16.0.0, SVG Export Plug-In . SVG Version: 6.00 Build 0)  -->
<!DOCTYPE svg PUBLIC "-//W3C//DTD SVG 1.1//EN" "http://www.w3.org/Graphics/SVG/1.1/DTD/svg11.dtd">
<svg version="1.1" id="圖層_1" xmlns="http://www.w3.org/2000/svg" xmlns:xlink="http://www.w3.org/1999/xlink" x="0px" y="0px"
	 width="48px" height="48px" viewBox="0 0 48 48" enable-background="new 0 0 48 48" xml:space="preserve">
<g>
	<circle fill="#FFFFFF" cx="24" cy="24" r="19.375"/>
	<path fill="#272829" d="M24.002,2.074c-12.112,0-21.929,9.816-21.929,21.927c0,12.108,9.816,21.925,21.929,21.925
		c12.109,0,21.923-9.814,21.923-21.925C45.925,11.89,36.111,2.074,24.002,2.074z M38.704,23.711c0.303,0,0.633-0.028,0.935-0.09
		c-0.935,1.025-2.258,1.414-3.613,1.384c-1.533,6.386-8.277,10.112-14.509,10.112c-4.845,0-9.208-2.165-12.07-6.137
		c1.447,1.381,3.433,2.168,5.447,2.168c2.201,0,4.246-0.904,5.752-2.5c-0.813,0.123-2.167-0.239-2.167-1.266
		c0-0.66,0.691-1.111,1.231-1.352c-1.565,0.177-3.009-0.422-3.73-1.871c0.57-0.628,1.264-0.78,2.077-0.839
		c-1.719-0.422-3.042-1.268-3.375-3.069c0.516-0.151,1.056-0.243,1.598-0.243c0.09,0,0.178,0,0.241,0
		c-1.323-0.723-2.65-2.017-2.59-3.645l0.03-0.239c2.621,0.994,5.271,2.107,7.739,3.488c0.842,0.488,1.594,1.207,2.286,1.899
		c0.963-2.647,2.289-5.896,4.726-7.493c-0.029,0.364-0.21,0.661-0.451,0.934c0.633-0.604,1.475-1.025,2.348-1.145
		c-0.088,0.663-1.022,1.022-1.592,1.236c0.75-0.242,1.772-0.752,2.525-0.752c0.211,0,0.452,0.058,0.452,0.331
		c0,0.541-2.078,0.993-2.622,1.202c3.434-0.362,5.963,2.801,6.563,5.838c0.361,0.122,0.726,0.183,1.086,0.183
		c0.693,0,1.864-0.215,2.498-0.574c-0.543,1.295-1.988,1.897-3.311,1.988C36.959,23.592,37.92,23.711,38.704,23.711z"/>
</g>
</svg>
