<?xml version="1.0" encoding="utf-8"?>
<!-- Generator: Adobe Illustrator 16.0.0, SVG Export Plug-In . SVG Version: 6.00 Build 0)  -->
<!DOCTYPE svg PUBLIC "-//W3C//DTD SVG 1.1//EN" "http://www.w3.org/Graphics/SVG/1.1/DTD/svg11.dtd">
<svg version="1.1" id="圖層_1" xmlns="http://www.w3.org/2000/svg" xmlns:xlink="http://www.w3.org/1999/xlink" x="0px" y="0px"
	 width="20px" height="18px" viewBox="0 0 20 18" enable-background="new 0 0 20 18" xml:space="preserve">
<rect fill="none" width="20" height="18"/>
<path fill="#00ACED" d="M20,2.893c-0.736,0.321-1.526,0.538-2.356,0.636c0.847-0.499,1.497-1.291,1.804-2.234
	c-0.793,0.463-1.671,0.799-2.605,0.98c-0.748-0.786-1.814-1.276-2.995-1.276c-2.267,0-4.103,1.809-4.103,4.04
	c0,0.317,0.036,0.625,0.106,0.921C6.439,5.79,3.416,4.182,1.393,1.737C1.039,2.335,0.837,3.028,0.837,3.769
	c0,1.402,0.724,2.639,1.825,3.363C1.989,7.11,1.356,6.929,0.804,6.626c0,0.017,0,0.034,0,0.051c0,1.957,1.415,3.591,3.292,3.962
	C3.75,10.73,3.388,10.78,3.014,10.78c-0.265,0-0.521-0.025-0.772-0.072c0.522,1.605,2.038,2.773,3.833,2.806
	c-1.404,1.083-3.173,1.729-5.096,1.729c-0.332,0-0.658-0.02-0.979-0.057c1.816,1.146,3.973,1.815,6.29,1.815
	c7.548,0,11.675-6.156,11.675-11.495c0-0.176-0.004-0.35-0.013-0.523C18.754,4.414,19.45,3.702,20,2.893z"/>
</svg>
