<?xml version="1.0" encoding="utf-8"?>
<!-- Generator: Adobe Illustrator 16.0.0, SVG Export Plug-In . SVG Version: 6.00 Build 0)  -->
<!DOCTYPE svg PUBLIC "-//W3C//DTD SVG 1.1//EN" "http://www.w3.org/Graphics/SVG/1.1/DTD/svg11.dtd">
<svg version="1.1" id="圖層_1" xmlns="http://www.w3.org/2000/svg" xmlns:xlink="http://www.w3.org/1999/xlink" x="0px" y="0px"
	 width="23px" height="23px" viewBox="0 0 23 23" enable-background="new 0 0 23 23" xml:space="preserve">
<g>
	<g>
		<path fill="#5E5F61" d="M11.5,9.75c-0.967,0-1.75,0.784-1.75,1.75c0,0.965,0.783,1.75,1.75,1.75c0.966,0,1.75-0.785,1.75-1.75
			C13.25,10.534,12.466,9.75,11.5,9.75z M11.5,4.5c-5.799,0-10.5,7-10.5,7s4.701,7,10.5,7s10.5-7,10.5-7S17.299,4.5,11.5,4.5z
			 M11.5,15.875c-2.416,0-4.375-1.959-4.375-4.375S9.084,7.125,11.5,7.125s4.375,1.959,4.375,4.375S13.916,15.875,11.5,15.875z"/>
	</g>
</g>
</svg>
